<svg width="150" height="80" viewBox="0 0 150 80" fill="none" xmlns="http://www.w3.org/2000/svg">
<rect width="150" height="80" fill="white"/>
<g clip-path="url(#clip0_1171_27740)">
<path d="M27.7255 57.9746C23.9938 57.7304 20.6415 56.1942 18.0905 53.5551C15.8556 51.2444 14.4894 48.3612 14.1015 45.1203C14.013 44.3879 14.0003 42.7674 14.0762 42.0688C14.4009 39.173 15.4382 36.6518 17.2303 34.4084C17.7067 33.8149 18.8242 32.6995 19.4187 32.2239C21.3373 30.7002 23.5173 29.6943 25.8702 29.2566C27.1352 29.0167 26.7346 29.0293 35.2228 29.0124L43.0531 28.9956V36.374C43.0531 40.886 43.0362 43.9965 43.0109 44.3837C42.8043 47.4479 41.7375 50.1921 39.8231 52.5913C39.3467 53.1847 38.2292 54.3001 37.6347 54.7757C35.4378 56.5225 32.912 57.5789 30.1712 57.8946C29.6188 57.9577 28.1978 58.004 27.7255 57.9746ZM32.7518 54.3169C36.3233 52.928 39.0388 49.7881 39.8653 46.0883C40.1352 44.8762 40.1183 45.3854 40.131 38.3312L40.1478 31.904H33.9578C27.228 31.904 27.2617 31.904 26.1232 32.1397C22.2987 32.9436 19.1067 35.6458 17.6899 39.2824C17.4748 39.838 17.2851 40.4483 17.3273 40.4483C17.3399 40.4483 17.4959 40.2757 17.6688 40.0653C18.0947 39.5476 18.7525 38.9246 19.3512 38.4785C20.6668 37.4894 22.0204 36.9085 23.783 36.5676C24.2637 36.475 24.2932 36.475 29.9308 36.4624L35.5938 36.4455L35.577 42.0982C35.5643 47.7257 35.5643 47.7551 35.4715 48.2349C35.13 49.9943 34.5481 51.3454 33.5572 52.6586C33.1102 53.2563 32.4861 53.9129 31.9675 54.338C31.7567 54.5106 31.5838 54.6663 31.5838 54.6789C31.5838 54.721 32.1952 54.5316 32.7518 54.3169V54.3169ZM26.937 53.6814C29.8212 53.0879 32.0476 50.7898 32.6211 47.814C32.6928 47.4479 32.7012 47.0733 32.7138 43.3609L32.7265 39.3077L28.6659 39.3203C24.6727 39.3371 24.5968 39.3371 24.1329 39.4297C22.2776 39.7959 20.7259 40.764 19.6 42.2582C19.0266 43.02 18.5206 44.148 18.3266 45.0866C18.2886 45.2634 18.2591 45.4402 18.2591 45.478C18.2591 45.5159 18.4109 45.4191 18.6555 45.2171C19.5579 44.4721 20.5867 44.0344 21.7379 43.8997C21.9614 43.8744 23.3529 43.8576 25.1449 43.8576H28.1725L28.1556 47.1322C28.143 50.3436 28.1388 50.411 28.046 50.8235C27.8225 51.821 27.4051 52.6544 26.7388 53.4457C26.5744 53.6351 26.5069 53.7487 26.5449 53.7487C26.5828 53.7487 26.7599 53.7193 26.937 53.6814ZM23.1294 52.4608C23.6522 52.3219 24.0908 52.0483 24.4998 51.6148C24.816 51.2823 25.048 50.874 25.1702 50.4236C25.2546 50.129 25.2588 49.9985 25.2588 48.437V46.7618H23.6016C22.0879 46.7618 21.9108 46.7702 21.6156 46.846C20.6415 47.0943 19.8109 47.9193 19.541 48.9084C19.4398 49.283 19.4356 50.0153 19.5368 50.3815C19.8319 51.4675 20.6964 52.2798 21.7969 52.5113C22.1342 52.5828 22.771 52.5576 23.1294 52.4608V52.4608Z" fill="#4E5F6E"/>
<path d="M53.7764 55.079C53.2283 54.9527 52.756 54.5907 52.5114 54.1151C52.3133 53.7237 52.2374 53.3238 52.2163 52.5494C52.1741 51.1856 52.4355 50.407 53.0765 49.9566C53.6499 49.561 54.6366 49.4726 55.3956 49.7588C55.5601 49.8177 55.7077 49.9187 55.851 50.0618C56.2558 50.4659 56.4161 50.9878 56.4498 52.0359L56.4751 52.6967H54.6957H52.9205V52.8145C52.9247 53.0671 53.047 53.6016 53.1524 53.8163C53.2873 54.0898 53.5361 54.3087 53.8228 54.4097C54.1602 54.5276 55.1764 54.5065 55.6824 54.3719C55.8932 54.3129 56.0956 54.254 56.1378 54.2372C56.201 54.2077 56.2095 54.233 56.2095 54.515V54.8264L56.0113 54.898C55.4083 55.1084 54.3077 55.1968 53.7764 55.079V55.079ZM55.7245 51.6781C55.6908 51.2067 55.598 50.8405 55.4547 50.6385C55.2396 50.3396 54.6957 50.1797 54.1559 50.2555C53.3927 50.3607 53.0259 50.8279 52.9373 51.8044L52.9078 52.1074H54.333H55.7583L55.7245 51.6781V51.6781Z" fill="#4E5F6E"/>
<path d="M58.5496 55.0744C58.2545 55.0281 58.031 54.9776 57.7611 54.9019C57.6979 54.8808 57.6852 54.8261 57.6852 54.5609C57.6852 54.2789 57.6936 54.2495 57.7611 54.2747C58.0647 54.3926 58.8195 54.5062 59.2875 54.5062C59.6038 54.5062 60.0634 54.4178 60.2489 54.321C60.4176 54.2326 60.6031 54.0306 60.6664 53.8665C60.7296 53.6897 60.7339 53.2856 60.6748 53.1299C60.5568 52.81 60.2152 52.6543 59.4731 52.5701C58.0984 52.4186 57.5967 52.0103 57.6515 51.0801C57.7063 50.171 58.3388 49.6575 59.4773 49.5943C59.9496 49.5691 60.6116 49.6533 60.9573 49.7795L61.164 49.8595L61.1766 50.1667C61.1893 50.4445 61.1808 50.4698 61.1134 50.4488C60.0803 50.1331 58.8364 50.1794 58.5159 50.5413C58.3388 50.735 58.2629 51.2022 58.3641 51.4631C58.4737 51.7578 58.7984 51.8966 59.5616 51.9808C60.3291 52.065 60.8561 52.246 61.1091 52.5154C61.3326 52.7469 61.417 53.012 61.417 53.475C61.417 53.8496 61.4043 53.9254 61.2947 54.1569C61.1513 54.4726 60.8519 54.7672 60.5357 54.9061C60.0339 55.1249 59.2791 55.1923 58.5496 55.0744V55.0744Z" fill="#4E5F6E"/>
<path d="M64.1866 55.0746C63.3813 54.8978 62.9217 54.4222 62.715 53.5509C62.6054 53.0795 62.6054 51.64 62.715 51.1728C62.9132 50.3352 63.3644 49.8512 64.1361 49.6618C64.4354 49.586 65.2703 49.586 65.5697 49.6618C66.3456 49.8554 66.7883 50.3352 66.9907 51.2023C67.0961 51.6653 67.0961 53.0711 66.9907 53.5341C66.7419 54.6284 66.0504 55.1419 64.8318 55.1335C64.6252 55.1335 64.3342 55.104 64.1866 55.0746ZM65.5444 54.3969C66.1685 54.1823 66.413 53.4878 66.3582 52.0862C66.3414 51.7242 66.3034 51.3454 66.2655 51.2023C66.0799 50.512 65.6625 50.2342 64.8023 50.2426C64.0475 50.2469 63.6385 50.5078 63.453 51.1013C63.3644 51.3875 63.356 51.4885 63.356 52.3598C63.356 53.231 63.3644 53.332 63.453 53.6141C63.6596 54.2664 64.1065 54.5274 64.9583 54.4853C65.1691 54.4769 65.4306 54.439 65.5444 54.3969Z" fill="#4E5F6E"/>
<path d="M69.5335 55.0787C69.1835 54.9987 69.0106 54.9103 68.7787 54.6957C68.6354 54.5652 68.5342 54.4179 68.4709 54.2579C68.3739 54.0264 68.3739 54.0012 68.3613 51.8672L68.3486 49.708H68.7113H69.0697V51.7199C69.0697 53.0584 69.0865 53.7823 69.1161 53.896C69.1835 54.1443 69.31 54.2958 69.5293 54.3968C69.698 54.4726 69.7992 54.4852 70.2503 54.481C70.8069 54.4768 71.0009 54.4431 71.4015 54.2664L71.6418 54.1569V51.9346V49.708H72.0003H72.3587V52.3807V55.0534H72.1563H71.9539L71.878 54.8219C71.84 54.6957 71.8021 54.5904 71.7936 54.5904C71.7852 54.5904 71.6671 54.6578 71.5322 54.7378C70.925 55.1039 70.1955 55.226 69.5335 55.0787V55.0787Z" fill="#4E5F6E"/>
<path d="M79.1604 55.0744C78.5743 54.9481 78.1104 54.5735 77.8616 54.0305C77.6888 53.6433 77.6424 53.4539 77.5876 52.852C77.537 52.3048 77.5791 51.5977 77.693 51.16C77.9502 50.1709 78.5658 49.67 79.6073 49.5942C80.0585 49.5648 80.7669 49.6405 81.1296 49.7626L81.4036 49.8552L81.4163 50.1625C81.4289 50.4445 81.4205 50.4697 81.353 50.4487C80.788 50.2761 79.9742 50.1919 79.5104 50.2593C78.9538 50.335 78.5996 50.6339 78.4267 51.1768C78.355 51.3999 78.3339 51.5977 78.317 52.1744C78.2833 53.2603 78.4014 53.7654 78.764 54.1273C78.9959 54.3588 79.2489 54.4599 79.6748 54.4935C80.126 54.5272 80.9778 54.4178 81.353 54.2747C81.4163 54.2494 81.4247 54.2789 81.4247 54.5609V54.8765L81.2139 54.9481C80.6699 55.1291 79.6875 55.188 79.1604 55.0744V55.0744Z" fill="#4E5F6E"/>
<path d="M84.0937 55.0787C83.5203 54.9482 83.048 54.5778 82.8161 54.0728C82.5757 53.5593 82.542 53.353 82.542 52.3597C82.542 51.5347 82.5504 51.4253 82.6432 51.1096C82.7402 50.7687 82.9426 50.3773 83.1239 50.1752C83.2841 50.0027 83.6847 49.767 83.963 49.6828C84.3636 49.5691 85.1437 49.5733 85.5358 49.6954C86.4045 49.9732 86.7797 50.7477 86.7797 52.2881V52.6964H85.0045H83.2251L83.2546 52.9868C83.2883 53.3699 83.4191 53.7781 83.5751 53.9928C83.866 54.3926 84.2877 54.5315 85.0931 54.4894C85.6202 54.4642 86.025 54.3926 86.3286 54.2748C86.4129 54.2411 86.4972 54.2117 86.5057 54.2117C86.5183 54.2117 86.5267 54.3463 86.5267 54.5105V54.8051L86.3707 54.8683C85.8183 55.0998 84.6588 55.205 84.0937 55.0787V55.0787ZM86.0418 51.7199C85.9701 50.7182 85.7129 50.3562 85.0003 50.2552C84.6545 50.2047 84.2582 50.2636 83.9672 50.4025C83.554 50.6045 83.3136 51.0717 83.2546 51.7704L83.2251 52.1072H84.6461H86.0713L86.0418 51.7199V51.7199Z" fill="#4E5F6E"/>
<path d="M88.8376 55.0743C88.6394 55.0407 88.3696 54.9859 88.2389 54.9481L88.0027 54.8807V54.5692V54.262L88.2937 54.342C88.981 54.5187 89.8707 54.5482 90.3556 54.4009C90.7689 54.2746 91.0345 53.9337 91.0387 53.517C91.0387 52.8899 90.7562 52.6794 89.7737 52.57C88.4876 52.4269 88.0154 52.0901 87.969 51.282C87.9184 50.3434 88.475 49.7584 89.5545 49.611C89.9846 49.5563 90.7562 49.6195 91.1779 49.7499L91.4604 49.8383V50.1456V50.4571L91.1568 50.3771C90.4948 50.2045 89.5081 50.1961 89.1159 50.3602C88.7702 50.5034 88.6141 50.7896 88.6437 51.2231C88.6774 51.665 88.9093 51.8502 89.5545 51.9386C90.6466 52.0817 90.9586 52.1659 91.2833 52.4016C91.7682 52.751 91.8947 53.6391 91.5574 54.2662C91.1694 54.9733 90.149 55.2764 88.8376 55.0743Z" fill="#4E5F6E"/>
<path d="M45.752 51.0297V47.0059L47.388 47.0227C48.8891 47.0395 49.0452 47.0479 49.3445 47.1321C50.4071 47.4226 50.8541 48.0539 50.8541 49.2661C50.8541 49.8091 50.7782 50.171 50.5927 50.5162C50.3861 50.9034 50.1204 51.1096 49.4753 51.3748C49.3909 51.4127 49.4331 51.4969 50.3481 53.2352L51.3095 55.0535H50.9005H50.4915L49.5891 53.2857L48.6825 51.5179H47.5567H46.4266V53.2857V55.0535H46.0893H45.752V51.0297V51.0297ZM49.3024 50.7434C49.6018 50.6298 49.8632 50.3815 49.977 50.0953C50.0614 49.8848 50.0698 49.7796 50.0698 49.2661C50.0698 48.5464 49.9939 48.298 49.6903 48.0286C49.3445 47.7256 49.2729 47.713 47.7675 47.6961L46.4266 47.6835V49.2661V50.8487L47.7675 50.836C48.9229 50.8234 49.1295 50.8108 49.3024 50.7434V50.7434Z" fill="#4E5F6E"/>
<path d="M73.75 52.3765V49.7038L73.9693 49.7164C74.1843 49.7291 74.1843 49.7291 74.2476 49.9185C74.2813 50.0237 74.315 50.1121 74.3192 50.1205C74.3277 50.1289 74.4542 50.0658 74.6018 49.9858C75.1541 49.6828 75.7866 49.5439 76.377 49.5986L76.7017 49.6323V49.9648V50.3015L76.5667 50.2805C76.1704 50.2215 76.0439 50.2173 75.6391 50.2552C75.2301 50.2931 74.9222 50.3731 74.6271 50.5077L74.509 50.5625V52.8101V55.0535H74.1295H73.75V52.3765V52.3765Z" fill="#4E5F6E"/>
<path d="M127.893 41.9845V34.3452H128.55H129.204L129.314 34.5893C129.373 34.7198 129.457 34.9092 129.499 35.0102L129.575 35.187L129.862 35.0018C130.427 34.6398 130.929 34.4251 131.603 34.2568C131.957 34.1684 132.105 34.16 132.868 34.1558C133.893 34.1558 134.239 34.2231 134.892 34.543C135.23 34.7113 135.352 34.7997 135.672 35.1196C136.124 35.5742 136.355 35.9572 136.587 36.6349C136.874 37.4809 136.937 37.9649 136.937 39.417C136.937 40.7765 136.899 41.1427 136.68 41.9719C136.541 42.4896 136.183 43.2177 135.883 43.5755C135.225 44.3668 134.201 44.7835 132.906 44.7835C132.059 44.7835 131.021 44.5057 130.372 44.11L130.17 43.9838V46.8038V49.6238H129.031H127.893V41.9845V41.9845ZM133.088 42.78C134.019 42.5569 134.496 41.8582 134.643 40.4903C134.715 39.8337 134.669 38.3479 134.559 37.8428C134.403 37.1189 134.053 36.5591 133.598 36.315C133.21 36.1045 132.944 36.0498 132.299 36.0582C131.603 36.0624 131.123 36.1677 130.528 36.4455L130.17 36.6138V39.4591V42.3044L130.477 42.4475C131.325 42.8389 132.324 42.9652 133.088 42.78Z" fill="#4E5F6E"/>
<path d="M51.2336 44.7541C50.7993 44.712 50.1794 44.5984 49.859 44.5058C47.0886 43.7019 45.7562 41.2396 45.752 36.9296C45.752 34.4084 46.1694 32.6196 47.0718 31.2727C47.329 30.8897 47.9531 30.2583 48.3199 30.01C48.9018 29.6228 49.5891 29.345 50.4324 29.1598C50.833 29.0756 50.9848 29.0672 52.098 29.063C53.1817 29.063 53.3799 29.0756 53.8353 29.1556C54.3877 29.2566 54.9527 29.4081 55.3491 29.5597L55.5979 29.6565L55.6105 30.734L55.6189 31.8115L55.0202 31.6052C54.0588 31.2769 53.2745 31.1464 52.2709 31.1464C51.0439 31.1464 50.2047 31.42 49.5301 32.0388C49.2686 32.2745 48.9187 32.7374 48.7542 33.0615C48.6277 33.3141 48.4127 33.9454 48.3241 34.3327C48.0332 35.5743 47.9952 37.6914 48.2398 39.0552C48.3578 39.7033 48.5097 40.1958 48.7416 40.6798C49.4584 42.1782 50.7487 42.797 52.8486 42.6412C53.2239 42.616 53.7214 42.557 53.9534 42.5065C54.2949 42.4392 55.1973 42.1656 55.5473 42.0267C55.6147 41.9972 55.6189 42.0646 55.6189 43.0705V44.148L55.3997 44.228C54.3413 44.6194 53.2956 44.792 52.0137 44.7752C51.6679 44.7752 51.3137 44.7626 51.2336 44.7541V44.7541Z" fill="#4E5F6E"/>
<path d="M60.5315 44.7372C59.4562 44.5899 58.7014 44.2448 58.1195 43.6303C57.4617 42.9442 57.0949 41.993 56.9642 40.6419C56.8925 39.8885 56.9347 38.2385 57.0443 37.6282C57.3268 36.0583 57.9635 35.1113 59.0978 34.5725C59.7598 34.261 60.426 34.1348 61.438 34.1348C62.4796 34.1348 63.1121 34.2568 63.8205 34.5978C65.077 35.2081 65.7095 36.3192 65.9077 38.2722C65.9752 38.933 65.9414 40.6208 65.8487 41.1638C65.6463 42.3213 65.3385 43.02 64.7566 43.6345C64.2632 44.1522 63.6349 44.4805 62.8085 44.6573C62.3193 44.7625 61.029 44.8046 60.5315 44.7372V44.7372ZM62.2856 42.7885C62.6018 42.6917 62.8295 42.557 63.0235 42.3591C63.4916 41.8793 63.6729 41.0459 63.6729 39.4171C63.6687 37.3252 63.344 36.5044 62.3741 36.1467C62.1675 36.0667 62.0368 36.0541 61.4591 36.0541C60.8646 36.0499 60.7507 36.0625 60.5104 36.1467C60.0128 36.315 59.6502 36.677 59.4604 37.1905C59.3002 37.6114 59.237 38.1081 59.2159 39.1224C59.1737 40.9449 59.3508 41.8414 59.8568 42.3634C60.0761 42.5864 60.464 42.7843 60.8055 42.8432C61.1218 42.9021 62.0452 42.8684 62.2856 42.7885Z" fill="#4E5F6E"/>
<path d="M78.0767 44.7204C76.6473 44.4889 75.7365 43.9039 75.1208 42.8263C74.6106 41.934 74.3576 40.3935 74.463 38.8488C74.5432 37.6872 74.7076 36.9716 75.0576 36.2603C75.454 35.448 75.9262 34.9681 76.681 34.5935C77.3557 34.261 77.9882 34.1348 78.9707 34.1348C81.3699 34.1348 82.597 35.1281 83.0102 37.3967C83.0861 37.8176 83.1451 39.6822 83.0945 40.0863L83.065 40.322L79.8857 40.2925L76.7105 40.2673L76.7316 40.5367C76.8454 42.0266 77.4737 42.6664 78.9707 42.8095C79.8983 42.9021 81.1928 42.7506 82.1331 42.4433C82.3735 42.3634 82.5801 42.3002 82.5885 42.3002C82.6012 42.3002 82.6012 42.7295 82.597 43.2557L82.5843 44.2069L82.2259 44.329C81.3488 44.6278 80.5856 44.7414 79.3797 44.7625C78.7008 44.7751 78.3508 44.7667 78.0767 44.7204V44.7204ZM80.8218 38.1039C80.788 37.2578 80.67 36.8706 80.3411 36.5255C79.9067 36.0751 78.7935 35.9404 77.9966 36.2393C77.3219 36.4918 76.8581 37.2915 76.7611 38.3732L76.7316 38.6763L77.402 38.6931C77.7731 38.6973 78.6966 38.7099 79.4598 38.7142L80.8471 38.7226L80.8218 38.1039V38.1039Z" fill="#4E5F6E"/>
<path d="M92.6703 44.737C89.1241 44.3287 87.4121 41.7697 87.4121 36.8872C87.4121 33.0991 88.4578 30.7379 90.6083 29.6562C90.9963 29.4626 91.5276 29.2816 92.0715 29.1679C92.4131 29.0922 92.6872 29.0711 93.5178 29.0543C95.2382 29.0164 96.5074 29.1932 97.6502 29.6393L98.0803 29.8077V30.9189C98.0803 31.5292 98.076 32.0301 98.0718 32.0301C98.0634 32.0301 97.9242 31.9753 97.7556 31.908C96.5454 31.4155 95.2256 31.1462 94.0112 31.1462C92.2444 31.1462 91.1101 31.7565 90.4397 33.0655C90.1192 33.6884 89.9295 34.3787 89.8072 35.3552C89.7228 36.0286 89.7397 37.9732 89.8325 38.6592C90.1825 41.2225 91.2619 42.4263 93.4124 42.6409C94.1335 42.7125 95.39 42.6157 95.9677 42.4431L96.1828 42.38V40.2797V38.1752H94.8123H93.4419V37.165V36.1549H95.9298H98.4176V40.0061V43.8573L98.2574 43.9373C97.5869 44.2782 96.0605 44.6276 94.7702 44.7412C94.1925 44.7875 93.0962 44.7875 92.6703 44.737V44.737Z" fill="#4E5F6E"/>
<path d="M110.499 44.7246C109.862 44.6278 109.47 44.5142 109.044 44.2995C107.91 43.7313 107.294 42.7211 107.033 40.9954C106.932 40.3178 106.932 38.6047 107.033 37.9187C107.218 36.656 107.552 35.8815 108.18 35.2459C108.947 34.4715 109.942 34.1348 111.469 34.1348C112.995 34.1348 113.99 34.4715 114.758 35.2459C115.559 36.0583 115.917 37.1695 115.985 39.0593C116.044 40.5787 115.833 41.8962 115.39 42.7843C114.884 43.7986 114.083 44.3837 112.818 44.6615C112.316 44.7709 111.047 44.8046 110.499 44.7246ZM112.139 42.8263C113.029 42.6369 113.442 42.1108 113.628 40.9407C113.708 40.423 113.721 38.6384 113.645 38.087C113.518 37.1189 113.223 36.5634 112.679 36.2687C112.101 35.9573 110.891 35.9404 110.305 36.2435C109.753 36.5255 109.458 37.0348 109.314 37.9565C109.221 38.5753 109.217 40.3346 109.31 40.9407C109.491 42.0982 109.909 42.6369 110.782 42.8263C111.136 42.9021 111.781 42.9021 112.139 42.8263V42.8263Z" fill="#4E5F6E"/>
<path d="M120.146 44.7372C118.991 44.5899 118.185 44.0764 117.789 43.2472C117.447 42.5359 117.435 42.3381 117.435 38.0197V34.3452H118.573H119.707L119.72 38.0828C119.733 40.9365 119.745 41.8541 119.787 41.9719C120.024 42.6664 120.66 42.94 121.799 42.8432C122.355 42.7969 122.92 42.6538 123.38 42.4433L123.717 42.2876V38.3185V34.3452H124.835H125.952V39.4381V44.531H125.299H124.641L124.455 44.1269L124.266 43.7229L124.156 43.7944C122.967 44.5731 121.508 44.914 120.146 44.7372V44.7372Z" fill="#4E5F6E"/>
<path d="M67.6357 39.4384V34.3455H68.302H68.964L69.1453 34.7622L69.3308 35.1789L69.6808 34.9516C70.7055 34.2865 72.059 33.9961 73.3072 34.1813L73.6234 34.2276V35.1957V36.1638L73.5306 36.1343C73.4758 36.1175 73.1216 36.0964 72.7379 36.0838C71.688 36.0501 70.95 36.1722 70.2627 36.4921L69.9127 36.6562V40.5916V44.5312H68.7742H67.6357V39.4384Z" fill="#4E5F6E"/>
<path d="M100.062 39.438V34.3451H100.733H101.403L101.458 34.484C101.488 34.5555 101.572 34.7449 101.644 34.9007L101.774 35.1827L102.036 35.0017C102.576 34.6271 103.33 34.3283 104.064 34.202C104.532 34.122 105.401 34.1178 105.797 34.1894L106.071 34.2399L106.084 35.1995L106.092 36.1592L105.894 36.1255C105.78 36.1087 105.321 36.0918 104.869 36.0918C103.828 36.096 103.221 36.2139 102.563 36.5506L102.339 36.66V40.5955V44.5309H101.201H100.062V39.438Z" fill="#4E5F6E"/>
</g>
<defs>
<clipPath id="clip0_1171_27740">
<rect width="123" height="29" fill="white" transform="translate(14 29)"/>
</clipPath>
</defs>
</svg>
