<svg width="150" height="80" viewBox="0 0 150 80" fill="none" xmlns="http://www.w3.org/2000/svg">
<rect width="150" height="80" fill="white"/>
<g clip-path="url(#clip0_1126_26051)">
<path d="M47.7474 29.1641C48.1413 29.301 48.4496 29.558 48.7579 29.8149C49.0832 30.1061 49.2203 30.5171 49.2203 30.9624V48.6205C49.2122 49.0857 49.0238 49.5297 48.6947 49.8587C48.3657 50.1878 47.9218 50.3762 47.4565 50.3843H29.7984C28.8053 50.3843 28.0001 49.5451 28.0001 48.5518V31.0994C27.9964 30.6869 28.1238 30.2838 28.3638 29.9483C28.6039 29.6128 28.9443 29.3622 29.336 29.2326C29.4045 29.2155 29.4558 29.1812 29.5244 29.1641H47.7474ZM43.3461 38.9435C43.3461 38.0357 43.3633 37.1451 43.3461 36.2376C43.336 36.1373 43.2868 36.045 43.2091 35.9806L38.7387 32.8464C38.7044 32.8121 38.6357 32.8292 38.5845 32.8121C38.5069 32.8453 38.4324 32.8854 38.3619 32.9319C36.9233 33.9424 35.4845 34.9356 34.0455 35.9634C33.9505 36.0595 33.8954 36.188 33.8914 36.3231C33.8743 39.3031 33.8914 42.2832 33.8914 45.2633C33.8914 45.3489 33.9085 45.4174 33.9085 45.5373C35.5014 44.4241 37.0599 43.3451 38.6182 42.2489C38.6696 42.2832 38.7211 42.3003 38.7723 42.3346C40.2109 43.3451 41.6496 44.3383 43.0886 45.3489C43.1743 45.4003 43.2599 45.4519 43.3798 45.5373V40.228C43.3456 39.817 43.3456 39.3888 43.3456 38.9435" fill="#4E5F6E"/>
<path d="M75.562 50.4019C73.9007 50.4019 72.2736 50.4019 70.6294 50.3847C70.5264 50.3847 70.3896 50.1964 70.3554 50.0764C69.8758 48.5178 69.4134 46.9764 68.9509 45.4179C68.8479 45.0754 68.7111 44.9555 68.3344 44.9726C66.5531 44.9897 64.7719 44.9897 62.9908 44.9726C62.751 44.9726 62.6311 45.0412 62.5626 45.2809C62.1344 46.8909 61.7063 48.5008 61.2438 50.0936C61.2095 50.2134 61.0726 50.4019 60.9698 50.4019C59.4112 50.419 57.8356 50.419 56.2256 50.419C56.3454 50.0251 56.4316 49.6655 56.551 49.3057C58.5719 42.7119 60.5872 36.118 62.5968 29.5241C62.6654 29.2846 62.7681 29.1816 63.042 29.1816C64.9088 29.1987 66.7756 29.1987 68.6425 29.1816C68.8651 29.1816 69.0021 29.2159 69.0707 29.4728C71.2287 36.4092 73.3867 43.3399 75.5447 50.2649C75.5789 50.282 75.5618 50.3163 75.5618 50.4019H75.562ZM63.4361 41.3589H68.0606C67.2728 38.4815 66.4677 35.6214 65.6971 32.7783C64.9435 35.6213 64.1899 38.4815 63.4363 41.3589" fill="#4E5F6E"/>
<path d="M76.2803 35.0221H80.3907C80.4592 35.7243 80.5448 36.4094 80.6304 37.1801C80.9388 36.8376 81.1785 36.5464 81.4525 36.2723C83.9017 33.926 88.937 33.789 91.1807 38.0193C92.0542 39.6634 92.3111 41.4104 92.1912 43.2602C92.0882 44.8016 91.7459 46.2574 90.9067 47.5765C89.5879 49.6489 87.6697 50.7107 85.2376 50.745C83.7302 50.7621 82.3431 50.334 81.3155 49.118C81.2984 49.0837 81.247 49.0666 81.1614 49.015V56.6365H76.4001C76.3316 49.4432 76.5031 42.2499 76.2803 35.0224V35.0221ZM81.11 42.5582C81.1443 43.346 81.1614 43.9113 81.213 44.4764C81.2693 45.0621 81.5026 45.6167 81.882 46.0664C82.2613 46.5161 82.7687 46.8396 83.3366 46.9937C84.5012 47.3191 85.8199 46.908 86.4879 45.9147C87.721 44.0479 87.7039 42.044 86.8132 40.0573C86.5704 39.5046 86.1561 39.0446 85.6318 38.7455C85.1074 38.4463 84.5007 38.3238 83.9013 38.396C82.6511 38.5501 81.5892 39.4236 81.3152 40.6567C81.161 41.3418 81.161 42.0611 81.1092 42.5574" fill="#4E5F6E"/>
<path d="M107.315 35.0218H111.374C111.46 35.724 111.528 36.4262 111.614 37.1112C112.145 36.615 112.59 36.0837 113.138 35.6897C115.296 34.1312 118.499 34.3538 120.263 36.1349C121.188 37.0769 121.65 38.2243 121.839 39.5088C121.941 40.2868 121.993 41.0706 121.993 41.8552C122.01 44.5441 121.993 47.2159 121.993 49.9048V50.3844H117.18V49.9391C117.18 47.1817 117.197 44.4071 117.163 41.6497C117.157 41.1508 117.082 40.6551 116.94 40.1768C116.392 38.1731 113.977 38.1387 112.898 39.3376C112.333 39.9713 112.111 40.7078 112.111 41.5473V50.4019H107.298C107.315 45.2638 107.321 40.1372 107.315 35.022" fill="#4E5F6E"/>
<path d="M98.2724 28H93.5625V50.3849H98.2724V28Z" fill="#4E5F6E"/>
<path d="M105.209 35.022H100.447V50.3848H105.209V35.022Z" fill="#4E5F6E"/>
<path d="M102.828 33.0865C101.355 33.0865 100.344 32.1273 100.327 30.7401C100.327 29.3185 101.355 28.3252 102.828 28.3252C104.301 28.3252 105.362 29.1815 105.38 30.723C105.38 32.1959 104.301 33.1036 102.828 33.0865" fill="#4E5F6E"/>
<path d="M38.601 42.267C37.0424 43.346 35.4839 44.4421 33.8914 45.5554C33.8786 45.4646 33.8728 45.373 33.8742 45.2813V36.3412C33.8782 36.2062 33.9333 36.0776 34.0283 35.9816L38.3447 32.9501C38.415 32.9036 38.4893 32.8634 38.5667 32.8301C38.5667 32.9499 38.5838 33.0527 38.5838 33.1726V40.0919C38.5838 40.7941 38.5838 41.5134 38.601 42.2156V42.267" fill="#7F849A"/>
<path d="M38.6017 42.2156C38.6017 41.5134 38.5845 40.7941 38.5845 40.0919V33.1726C38.5845 33.0527 38.5674 32.9499 38.5674 32.8301C38.6188 32.8472 38.6872 32.8301 38.7215 32.8643L43.1916 35.9985C43.2692 36.0629 43.3184 36.1552 43.3286 36.2555V38.9614C42.5408 39.4924 41.7529 40.0404 40.9651 40.5713C40.1773 41.1021 39.3895 41.6676 38.6017 42.2156Z" fill="white"/>
<path d="M38.6019 42.2151C39.3897 41.667 40.1776 41.1189 40.9826 40.5709C41.7704 40.0228 42.5583 39.4919 43.3461 38.9609C43.3461 39.3891 43.3632 39.8344 43.3632 40.2624V45.5717C43.2434 45.486 43.1572 45.4347 43.072 45.3833C41.6334 44.3729 40.1947 43.3796 38.7557 42.369C38.7043 42.3347 38.6527 42.3176 38.6016 42.2833V42.2148" fill="#D6D6DE"/>
</g>
<defs>
<clipPath id="clip0_1126_26051">
<rect width="94" height="28.6362" fill="white" transform="translate(28 28)"/>
</clipPath>
</defs>
</svg>
