<svg width="150" height="80" viewBox="0 0 150 80" fill="none" xmlns="http://www.w3.org/2000/svg">
<rect width="150" height="80" fill="white"/>
<g clip-path="url(#clip0_1126_26054)">
<path d="M78.3684 56.6858C77.288 56.5972 76.1291 56.2821 75.2746 55.8587C74.4496 55.4451 73.3594 54.3916 72.6327 53.2986C71.955 52.2844 71.7782 52.1466 71.0612 52.0973L70.4621 52.0481L70.5112 53.5546C70.5702 55.2384 70.5898 55.2778 71.2871 55.4156C71.6014 55.4747 71.2478 55.5042 70.0005 55.5042C68.9103 55.5042 68.4094 55.4747 68.6255 55.4254C68.8023 55.3762 69.0086 55.2679 69.0773 55.1793C69.2639 54.9233 69.3327 53.4463 69.2934 50.4825C69.2639 47.4793 69.2737 47.5581 68.6255 47.3611C68.3702 47.2922 68.8318 47.2627 70.4425 47.2824C72.5541 47.302 72.6228 47.3119 73.0943 47.5581C73.8112 47.9224 74.1746 48.4836 74.1648 49.2024C74.1648 49.8818 73.9487 50.3249 73.2416 51.1225L72.7309 51.6838L73.4577 52.6487C75.6675 55.5928 77.0621 56.3018 80.3621 56.1836C81.1773 56.1442 81.9925 56.095 82.1791 56.0655L82.5228 56.0064L82.2577 56.1639C81.9041 56.3609 80.4996 56.6858 79.7728 56.7252C79.4487 56.7449 78.8202 56.7252 78.3684 56.6858V56.6858ZM72.3184 51.4376C72.8487 51.093 73.1139 49.6948 72.7996 48.8676C72.5541 48.2276 72.1612 47.883 71.5228 47.7353C71.1103 47.6467 70.9237 47.6467 70.7371 47.7255L70.4916 47.8436V49.5471C70.4916 50.7582 70.5309 51.2997 70.6193 51.4081C70.8353 51.7035 71.8961 51.7231 72.3184 51.4376Z" fill="#4E5F6E"/>
<path d="M78.9867 55.6524C78.4466 55.5835 77.6314 55.3176 77.0421 55.0124C76.2957 54.6382 75.6867 54.008 75.2841 53.1809C74.9698 52.5507 74.96 52.4818 74.96 51.3396C74.96 50.2073 74.9698 50.1285 75.2742 49.518C75.8242 48.3857 76.8948 47.5487 78.1519 47.2435C79.1537 47.0071 82.1198 47.1745 82.3555 47.4798C82.4046 47.5487 82.4144 48.0213 82.3751 48.5334C82.3162 49.4195 82.2671 49.5082 82.1394 48.9075C82.051 48.5038 81.6385 48.0903 81.0787 47.8342C80.3519 47.5093 78.7216 47.4995 78.0439 47.8047C77.1109 48.238 76.5805 49.0946 76.3841 50.4928C76.1385 52.275 77.0421 54.136 78.4957 54.7958C79.4582 55.2389 81.0296 55.2093 81.6876 54.7367C81.8448 54.6284 82.0805 54.3034 82.2278 54.0179L82.4832 53.5059L82.4242 54.0474C82.326 54.8647 82.1885 55.3176 82.0019 55.4161C81.5992 55.6327 79.8609 55.7706 78.9867 55.6524V55.6524Z" fill="#4E5F6E"/>
<path d="M93.5714 55.6227C91.6759 55.3175 90.5072 54.254 90.0848 52.4521C89.4661 49.8034 91.067 47.4796 93.7286 47.1547C95.1822 46.9676 96.5964 47.3221 97.5295 48.0803C97.9027 48.3855 98.1482 48.7006 98.433 49.2618C98.8259 50.0299 98.8259 50.0496 98.8259 51.1327C98.8259 52.4029 98.6786 52.9444 98.0893 53.8306C97.1759 55.1895 95.3688 55.9083 93.5714 55.6227V55.6227ZM95.5161 55.1107C96.1545 54.9531 96.9009 54.195 97.1464 53.4565C97.3723 52.7672 97.4607 51.2115 97.3134 50.5025C96.9598 48.7695 95.85 47.6765 94.3473 47.5682C92.4714 47.4402 91.3714 48.7498 91.3911 51.1228C91.4009 53.8306 93.3063 55.6719 95.5161 55.1107Z" fill="#4E5F6E"/>
<path d="M59.0297 55.4068C59.285 55.3378 59.4324 55.2295 59.5011 55.0621C59.6484 54.6781 59.619 47.8151 59.4716 47.6181C59.4029 47.5197 59.1475 47.4114 58.902 47.3621C58.5975 47.3031 59.2752 47.2637 61.1609 47.244L63.8716 47.2046L63.8324 47.7954C63.7833 48.4649 63.6359 48.977 63.6261 48.5142C63.6065 48.0022 63.3511 47.8742 62.1922 47.7954C61.5636 47.7461 61.1118 47.756 61.0529 47.8151C61.0038 47.8643 60.9743 48.5437 60.9841 49.3807L61.0136 50.8478L61.9957 50.838C62.5359 50.838 63.1252 50.7887 63.3118 50.7198C63.6261 50.6115 63.6359 50.6115 63.577 50.8281C63.5475 50.9463 63.5181 51.2811 63.5181 51.5666C63.5181 52.0983 63.3904 52.2559 63.2824 51.8325C63.1841 51.4681 62.919 51.3795 61.9172 51.4091L61.0136 51.4386L60.9841 52.9156C60.9645 53.7329 60.9841 54.5797 61.0136 54.8061C61.0725 55.2394 61.2199 55.3378 61.9466 55.456C62.0841 55.4757 61.3966 55.4954 60.4243 55.5052C59.0591 55.5052 58.7449 55.4855 59.0297 55.4068V55.4068Z" fill="#4E5F6E"/>
<path d="M64.8244 55.406C65.0798 55.3371 65.2271 55.2288 65.2959 55.0614C65.4137 54.7463 65.4137 48.031 65.2959 47.7159C65.2271 47.5485 65.0798 47.4402 64.8244 47.3712C64.5298 47.2925 64.7753 47.2728 66.0226 47.2728C67.3584 47.2629 67.545 47.2826 67.2503 47.3811C66.6512 47.5879 66.6512 47.6174 66.6807 51.5068C66.7101 55.4454 66.6709 55.2386 67.4467 55.406C67.7905 55.4848 67.5253 55.5045 66.17 55.5045C64.8244 55.5045 64.5298 55.4848 64.8244 55.406Z" fill="#4E5F6E"/>
<path d="M83.2593 55.4649C83.2593 55.4354 83.387 55.3664 83.5441 55.3172C83.7503 55.2483 83.8387 55.1301 83.8878 54.9135C83.9762 54.4409 83.9566 47.8141 83.8584 47.6566C83.8093 47.5877 83.5539 47.4597 83.2986 47.3907C82.8664 47.2726 83.0334 47.2627 85.0762 47.2824C87.512 47.3218 87.7378 47.3612 88.2977 47.8831C88.8673 48.4148 89.0146 49.3108 88.6611 50.0887C88.553 50.325 88.2191 50.7976 87.9245 51.1423L87.3745 51.7626L88.7593 53.3479C90.1637 54.9529 90.2718 55.0513 90.9691 55.3467L91.362 55.5141H90.478C89.2896 55.524 88.9459 55.3566 88.17 54.4113C87.8459 54.0076 87.3646 53.3774 87.1093 53.0033C86.5789 52.2254 86.3334 52.0678 85.7146 52.0974L85.2727 52.1269L85.2432 53.3577C85.2039 54.9135 85.253 55.2089 85.5673 55.2877C86.137 55.4255 85.7245 55.524 84.5361 55.524C83.8387 55.524 83.2593 55.5043 83.2593 55.4649V55.4649ZM86.6182 51.5854C87.9539 51.2112 87.9932 48.5625 86.6771 47.8831C86.3628 47.7255 85.4003 47.6369 85.2727 47.755C85.2236 47.8043 85.1843 50.4038 85.2137 51.3097C85.2236 51.605 85.9896 51.7527 86.6182 51.5854Z" fill="#4E5F6E"/>
<path d="M99.0432 55.3969C99.22 55.328 99.4066 55.2295 99.4754 55.1704C99.6423 54.9834 99.6522 47.8348 99.4852 47.6181C99.4066 47.5295 99.1709 47.4212 98.945 47.372C98.6504 47.3031 99.2789 47.2637 101.214 47.244L103.885 47.2046L103.826 47.9431C103.748 48.7899 103.718 48.8883 103.63 48.4551C103.522 47.9234 103.355 47.8545 102.117 47.8249L100.988 47.7954V49.3216V50.8478L102.078 50.838C102.687 50.8281 103.257 50.769 103.374 50.71C103.581 50.6016 103.591 50.6213 103.581 50.9167C103.581 51.094 103.541 51.4681 103.502 51.734C103.433 52.1771 103.424 52.1968 103.355 51.9605C103.227 51.5075 103.021 51.4189 102.049 51.3697C101.351 51.3303 101.116 51.35 101.027 51.4485C100.949 51.5469 100.929 52.118 100.958 53.3094C100.998 55.2492 101.008 55.2788 101.734 55.4166C102.049 55.4757 101.705 55.5052 100.448 55.5052C99.0236 55.5052 98.7781 55.4855 99.0432 55.3969V55.3969Z" fill="#4E5F6E"/>
<path d="M106.76 55.4054C107.016 55.3365 107.163 55.2281 107.232 55.0607C107.281 54.9327 107.32 53.249 107.32 51.3289V47.8235L106.083 47.8629L104.845 47.8925L104.56 48.2371C104.305 48.5325 104.275 48.5522 104.275 48.3651C104.275 48.2469 104.324 47.922 104.383 47.6463L104.491 47.1343L104.953 47.2032C105.199 47.2426 106.79 47.2721 108.479 47.2721L111.543 47.2623L111.533 48.0205V48.7787L111.376 48.4143C111.19 47.9417 110.797 47.8235 109.599 47.8629L108.744 47.8925L108.715 51.3388C108.705 53.2391 108.715 54.8835 108.744 55.0017C108.793 55.2084 109.108 55.3561 109.677 55.4546C109.815 55.4743 109.127 55.494 108.155 55.5038C106.79 55.5038 106.475 55.4841 106.76 55.4054V55.4054Z" fill="#4E5F6E"/>
<path d="M102.313 43.9938C101.37 43.8855 99.8771 43.5704 99.1208 43.3439L98.5315 43.1568L98.5021 40.6755L98.4824 38.1942H99.0619H99.6512L99.7494 38.5683C99.7985 38.7653 99.936 39.425 100.064 40.0158C100.24 40.9217 100.329 41.1481 100.574 41.414C100.957 41.8276 102.087 42.379 102.951 42.5857C103.914 42.8122 105.888 42.7433 106.605 42.4577C107.813 41.9752 108.412 41.1284 108.481 39.7893C108.54 38.7653 108.363 38.2631 107.764 37.7117C107.184 37.18 106.428 36.8157 104.444 36.1067C103.511 35.7818 102.352 35.319 101.851 35.0728C99.9949 34.1768 98.9047 32.7392 98.669 30.8979C98.3155 28.0916 99.6905 26.0435 102.382 25.3543C103.982 24.9407 106.516 24.9604 109.04 25.4035C109.64 25.502 110.15 25.5906 110.199 25.5906C110.239 25.5906 110.268 26.5851 110.268 27.8061V30.0215H109.689H109.119L108.785 28.7218L108.451 27.4122L107.96 27.1463C107.066 26.6442 106.33 26.4768 105.112 26.4768C102.715 26.4768 101.635 27.2645 101.625 28.9975C101.625 29.5883 101.665 29.7557 101.871 30.0609C102.421 30.8683 103.108 31.2622 105.308 32.0204C109.011 33.3004 110.16 34.0586 111.005 35.7818C111.751 37.2883 111.692 39.6022 110.877 41.2466C110.298 42.4085 108.962 43.3932 107.351 43.8166C106.742 43.9839 106.232 44.0332 104.817 44.0529C103.845 44.0726 102.715 44.043 102.313 43.9938V43.9938Z" fill="#4E5F6E"/>
<path d="M58.5285 43.344L58.558 42.8812L59.2455 42.763C59.6285 42.7039 60.1392 42.6153 60.4044 42.5858L60.866 42.5169V34.551V26.595L60.6499 26.5458C60.5222 26.5162 60.0705 26.4374 59.6383 26.3784C58.4696 26.211 58.5088 26.2405 58.5088 25.6793V25.1968L61.6812 25.2066H64.8437L69.3615 31.1539C71.8463 34.423 73.9088 37.1013 73.9579 37.1013C73.9972 37.1111 74.0267 34.7479 74.0267 31.853V26.595L73.7615 26.5359C73.6044 26.5064 73.133 26.4374 72.7008 26.3784C71.3946 26.2011 71.4731 26.2504 71.4731 25.6891V25.1968H74.7731H78.0633L78.0338 25.7088L78.0044 26.2208L77.1696 26.3488C76.708 26.4177 76.1874 26.4965 76.0204 26.5261L75.6963 26.5851V35.191V43.8067H74.891H74.0758L68.3794 36.3529L62.683 28.8991L62.6535 35.6833C62.6437 39.4053 62.6437 42.4775 62.6633 42.4972C62.683 42.5169 63.2428 42.6055 63.9008 42.6941L65.0892 42.8615V43.3341V43.8067H61.7892H58.499L58.5285 43.344V43.344Z" fill="#4E5F6E"/>
<path d="M79.3292 43.3341V42.8615L80.2425 42.7335C80.7336 42.6646 81.264 42.5858 81.4211 42.5562L81.6863 42.507V34.5411V26.5851L81.372 26.5261C81.1952 26.4867 80.6747 26.4079 80.2131 26.3488L79.3783 26.2307L79.3488 25.7088L79.3193 25.1968H87.2256H95.1417V27.5599V29.9231H94.5229H93.9042L93.6783 28.4264C93.5604 27.5993 93.4426 26.9002 93.4131 26.8707C93.3836 26.8412 91.7042 26.8018 89.6809 26.7821L86.0077 26.7525V30.2087V33.6648L88.4827 33.6451L90.9577 33.6156L91.1542 32.6309L91.3604 31.6463L91.9792 31.6167L92.5881 31.5872V34.4033V37.2194L91.9792 37.1899L91.3702 37.1603L91.164 36.1757L90.9577 35.191L88.4827 35.1615L86.0077 35.1418V38.7456V42.3495L89.9658 42.3101C92.6961 42.2904 93.9729 42.2411 94.1202 42.1624C94.2675 42.0738 94.3658 41.8374 94.4934 41.227C94.5917 40.774 94.7586 40.0257 94.8667 39.553L95.0729 38.6865H95.6917C96.2908 38.6865 96.3202 38.6964 96.2809 38.913C96.2515 39.0312 96.2122 39.7992 96.1729 40.6066C96.1434 41.4239 96.0943 42.4676 96.055 42.9501L95.9961 43.8067H87.6676H79.3292V43.3341V43.3341Z" fill="#4E5F6E"/>
<path d="M38.4933 29.5094L38.5227 26.5259H41.4692H44.4156L44.4451 29.5094L44.4647 32.483H41.4692H38.4736L38.4933 29.5094Z" fill="white"/>
<path d="M111.957 29.5591C111.938 29.116 111.908 29.047 111.722 29.0076C111.594 28.988 111.722 28.9683 111.987 28.9683C112.262 28.9683 112.38 28.988 112.262 29.0076C112.075 29.047 112.036 29.1258 112.007 29.5591L111.977 30.0711L111.957 29.5591Z" fill="#4E5F6E"/>
<path d="M112.743 29.5095C112.723 28.8005 112.929 28.7316 113.145 29.3618L113.293 29.7753L113.469 29.3618C113.715 28.7513 113.901 28.8104 113.901 29.4799C113.901 30.1101 113.705 30.2283 113.695 29.6079L113.685 29.1845L113.538 29.6079C113.459 29.8344 113.361 30.0215 113.312 30.0215C113.263 30.0215 113.175 29.8541 113.106 29.6572C112.919 29.0664 112.87 29.0565 112.811 29.5784L112.752 30.0707L112.743 29.5095V29.5095Z" fill="#4E5F6E"/>
<path d="M37.0977 34.5023V25.1973H46.3789H55.6602V34.5023V43.8072H46.3789H37.0977V34.5023ZM44.1494 29.5101L44.12 26.8219H41.4682H38.8164L38.7869 29.5101L38.7673 32.1883H41.4682H44.1691L44.1494 29.5101Z" fill="#4E5F6E"/>
</g>
<defs>
<clipPath id="clip0_1126_26054">
<rect width="77" height="31.8043" fill="white" transform="translate(37 25)"/>
</clipPath>
</defs>
</svg>
