<svg width="150" height="80" viewBox="0 0 150 80" fill="none" xmlns="http://www.w3.org/2000/svg">
<rect width="150" height="80" fill="white"/>
<path d="M32.0863 54.6555C31.7074 54.4611 31.179 54.157 30.9097 53.9825C30.6405 53.808 30.4012 53.6634 30.3763 53.6634C30.3464 53.6634 30.3264 53.6434 30.3264 53.6185C30.3264 53.5986 30.2317 53.5138 30.117 53.439C29.8029 53.2296 29.5786 53.0452 28.9504 52.4768C28.6363 52.1926 28.3621 51.9733 28.3371 51.9932C28.3122 52.0082 28.2175 52.1478 28.1277 52.3073C28.038 52.4619 27.8934 52.6962 27.8037 52.8208C27.7139 52.9455 27.5943 53.1399 27.5394 53.2446C27.4796 53.3493 27.3749 53.5388 27.3001 53.6634C27.2253 53.788 27.0558 54.1021 26.9162 54.3614L26.662 54.835L25.3906 54.85C24.1691 54.8599 23.9099 54.845 24.0246 54.7702C24.0545 54.7503 24.2639 54.3763 24.4832 53.9376C25.1064 52.7062 25.7695 51.5694 26.5822 50.3529C26.7318 50.1236 26.7916 49.9989 26.7467 49.984C26.7168 49.974 26.6869 49.9441 26.6869 49.9242C26.6869 49.8992 26.5024 49.5802 26.2781 49.2162C24.912 46.9826 24.1941 44.3851 24.1941 41.633C24.1941 39.1452 24.7525 36.9316 25.944 34.6731C26.5623 33.5065 27.4696 32.285 28.4319 31.3277C28.9404 30.8192 29.5935 30.206 29.6284 30.206C29.6434 30.206 29.7979 30.0963 29.9724 29.9617C32.0116 28.3912 34.5841 27.3691 37.2564 27.06C38.1339 26.9603 40.1282 26.9902 40.9059 27.1099C43.3788 27.5037 45.4927 28.3613 47.4072 29.7423C47.6266 29.9018 47.836 30.0315 47.8709 30.0315C47.9008 30.0315 48.1152 30.2109 48.3445 30.4303C48.5689 30.6547 48.8381 30.889 48.9378 30.9588C49.0425 31.0286 49.1123 31.1034 49.1023 31.1233C49.0874 31.1433 49.202 31.2829 49.3516 31.4324C50.2739 32.3298 51.3259 33.7956 51.9242 35.0171C52.7468 36.6873 53.1457 37.9885 53.395 39.7535C53.5146 40.621 53.5146 42.7249 53.39 43.5675C53.0509 45.9556 52.2782 47.9449 50.9021 49.9989C50.4086 50.7318 49.4513 51.8686 49.3267 51.8686C49.3067 51.8686 49.212 51.7489 49.1223 51.6093C48.7284 50.9911 47.6714 49.5901 46.8588 48.608C46.4549 48.1194 45.1138 46.6785 44.7 46.2846C44.5106 46.1052 44.1366 45.7512 43.8724 45.4969C43.6032 45.2426 43.324 44.9984 43.2492 44.9485C43.1744 44.9036 43.0896 44.8288 43.0547 44.784C43.0198 44.7391 42.8204 44.5696 42.606 44.41C42.3917 44.2505 42.1773 44.081 42.1324 44.0361C41.923 43.8267 40.0634 42.4956 39.9836 42.4956C39.9686 42.4956 39.8241 42.4058 39.6545 42.2912C39.485 42.1765 39.2308 42.0219 39.0912 41.9471L38.8369 41.8075L38.6076 41.9422C37.2564 42.7448 36.2394 43.4628 34.8633 44.5945C33.6618 45.5767 32.1561 47.0325 32.0564 47.2967C32.0365 47.3466 32.0016 47.3765 31.9767 47.3615C31.9218 47.3266 30.8399 48.5531 30.2516 49.3259C30.1419 49.4705 29.9924 49.6599 29.9176 49.7497C29.8378 49.8394 29.778 49.9341 29.778 49.9591C29.778 50.0239 30.7402 50.9263 31.2089 51.3002C31.503 51.5345 32.3705 52.1378 32.6348 52.2874C32.7644 52.3621 32.8691 52.4469 32.8691 52.4718C32.894 53.2247 32.8641 54.9846 32.8242 54.9995C32.7993 55.0095 32.4652 54.855 32.0863 54.6555V54.6555ZM49.6807 47.5061C50.4285 46.1301 50.942 44.4798 51.1165 42.8844C51.2412 41.6879 51.1514 40.1922 50.8672 38.9258C50.6878 38.1281 50.254 36.9116 49.915 36.2436C49.8552 36.1289 49.7754 35.9743 49.7305 35.8896C49.5361 35.5007 49.0226 34.6781 48.7783 34.354C48.3395 33.7807 47.5219 32.8683 47.472 32.9032C47.4471 32.9182 47.4321 32.9132 47.4371 32.8882C47.4571 32.8384 47.2178 32.5941 47.1679 32.614C47.143 32.619 47.128 32.5991 47.128 32.5741C47.128 32.5442 47.0482 32.4495 46.9485 32.3598C46.6643 32.1055 45.6124 31.3327 45.5874 31.3576C45.5775 31.3676 45.5176 31.3377 45.4628 31.2829C45.1437 30.9937 43.7926 30.3256 42.8852 30.0065C41.6438 29.5728 40.6018 29.3883 39.1959 29.3484C37.411 29.2986 35.9751 29.5429 34.3149 30.191C32.9987 30.6995 31.6027 31.577 30.6255 32.5043C29.6135 33.4666 29.1099 34.0449 28.5665 34.8675C27.345 36.7272 26.7068 38.6267 26.5373 40.9151C26.3778 43.029 26.9212 45.4969 27.9732 47.4513C28.1078 47.7006 28.2374 47.905 28.2624 47.915C28.3072 47.9299 28.8058 47.3765 29.1049 46.9777C29.2994 46.7284 31.1191 44.7541 31.4083 44.4848C32.4054 43.5725 33.2879 42.7947 33.951 42.2662C34.988 41.4386 35.327 41.1993 36.6033 40.3817C37.067 40.0825 38.802 39.1053 38.8668 39.1053C38.8917 39.1053 38.9715 39.1452 39.0413 39.1951C39.1161 39.2499 39.5149 39.4743 39.9238 39.7036C40.3376 39.9329 40.7963 40.2022 40.9458 40.3019C41.0954 40.4066 41.4344 40.6309 41.6937 40.8054C42.4714 41.319 43.1744 41.8375 43.8524 42.3958C44.2064 42.685 44.5903 42.9891 44.71 43.0739C44.8296 43.1636 45.0689 43.373 45.2434 43.5525C45.8118 44.1309 46.6294 44.8887 46.6793 44.8887C46.7042 44.8887 46.7292 44.9086 46.7292 44.9335C46.7292 44.9585 46.9585 45.2227 47.2427 45.5169C48.1052 46.4292 48.5838 46.9727 49.1223 47.6457C49.2669 47.8302 49.4064 47.9648 49.4264 47.9449C49.4463 47.9199 49.561 47.7255 49.6807 47.5061V47.5061Z" fill="#4E5F6E"/>
<path d="M98.5148 50.5973C97.8517 50.5175 97.3482 50.4078 96.7599 50.2184C96.0519 49.994 95.2393 49.6251 95.2393 49.5304C95.2393 49.5054 95.4187 49.1016 95.6381 48.623C95.8575 48.1493 96.037 47.7306 96.037 47.6957C96.037 47.5959 96.1018 47.6159 96.6003 47.8502C97.4678 48.264 98.3104 48.4684 99.3026 48.5133C100.315 48.5582 101.147 48.3887 101.731 48.0147C102.463 47.5511 102.793 46.6138 102.518 45.8111C102.304 45.1879 101.81 44.6494 101.127 44.3004C100.768 44.111 99.7213 43.7022 99.1281 43.5227C98.9785 43.4728 98.4849 43.2535 98.0362 43.0291C97.2634 42.6452 97.1886 42.5953 96.7599 42.1716C96.2314 41.6531 95.9672 41.2044 95.7827 40.5014C95.688 40.1474 95.668 39.9579 95.668 39.3547C95.673 38.3077 95.8575 37.7094 96.4009 36.9865C97.4728 35.5606 100.095 34.9823 102.628 35.6155C103.316 35.785 104.647 36.3134 104.692 36.4331C104.702 36.463 104.587 36.7621 104.433 37.0862C104.283 37.4153 104.109 37.7892 104.049 37.9188C103.989 38.0484 103.914 38.1531 103.879 38.1581C103.849 38.1581 103.715 38.1133 103.585 38.0534C101.641 37.2208 100.459 37.1211 99.3325 37.6945C98.5896 38.0734 98.1758 38.6118 98.1409 39.26C98.096 40.0477 98.5198 40.7207 99.4272 41.2991C99.6515 41.4387 100.389 41.7428 101.247 42.0469C101.496 42.1367 101.741 42.2264 101.795 42.2513C101.85 42.2713 102.04 42.351 102.219 42.4258C103.226 42.8347 103.83 43.2285 104.288 43.7869C105.505 45.2477 105.495 47.5959 104.263 48.9869C103.186 50.2134 100.823 50.8765 98.5148 50.5973V50.5973Z" fill="#4E5F6E"/>
<path d="M111.792 50.6372C110.501 50.5724 109.175 50.2833 108.377 49.8844C107.833 49.6152 107.006 49.0069 106.906 48.8025C106.891 48.7776 106.796 48.6181 106.687 48.4585C106.298 47.8652 106.059 46.9529 106.059 46.0554C106.059 43.7222 107.484 42.2464 110.421 41.5484C111.448 41.3041 112.874 41.1097 114.285 41.02C114.574 41 114.823 40.9601 114.843 40.9302C114.898 40.8504 114.888 39.8433 114.833 39.4046C114.778 38.9858 114.649 38.557 114.579 38.557C114.554 38.557 114.534 38.5271 114.534 38.4872C114.534 38.3825 114.011 37.874 113.791 37.7593C113.682 37.7045 113.552 37.6746 113.502 37.6895C113.437 37.7095 113.432 37.7045 113.477 37.6746C113.557 37.6148 112.954 37.4253 112.48 37.3555C111.672 37.2408 110.371 37.3505 109.294 37.6297C108.701 37.7843 108.397 37.889 107.739 38.1781C107.594 38.243 107.549 38.2479 107.529 38.1981C107.519 38.1632 107.37 37.7544 107.205 37.2957C107.041 36.832 106.906 36.4431 106.906 36.4232C106.906 36.3135 108.282 35.8399 109.15 35.6454C110.227 35.4111 110.805 35.3413 111.842 35.3413C112.859 35.3413 113.358 35.4011 114.08 35.6255C115.177 35.9545 116.01 36.5379 116.528 37.3256C116.638 37.4951 116.753 37.6646 116.778 37.6945C116.867 37.8042 117.112 38.6169 117.172 39.0058C117.211 39.27 117.231 41.02 117.241 44.8739L117.251 50.368L115.98 50.388C115.113 50.3979 114.559 50.4279 114.235 50.4827C113.592 50.5924 112.395 50.6721 111.792 50.6372V50.6372ZM113.427 48.6031C113.727 48.5582 114.17 48.4785 114.415 48.4137L114.858 48.304L114.873 45.5519L114.883 42.7948H114.724C114.365 42.7948 112.585 42.9494 112.116 43.0192C109.568 43.4031 108.432 44.3254 108.442 46.0106C108.442 46.549 108.512 46.8382 108.761 47.3667C109.035 47.945 109.932 48.4336 111.059 48.6231C111.493 48.6978 112.844 48.6829 113.427 48.6031V48.6031Z" fill="#4E5F6E"/>
<path d="M58.0359 50.308C58.1157 50.2133 60.6883 43.1088 60.6883 42.9791C60.6883 42.9442 60.7082 42.8944 60.7331 42.8694C60.7531 42.8395 60.7979 42.7548 60.8279 42.67C60.8578 42.5902 60.9475 42.341 61.0273 42.1216C61.3264 41.3139 62.5978 37.814 62.8072 37.2357C63.1761 36.1887 63.6796 34.8027 63.7794 34.5484C63.8342 34.4138 63.8791 34.2692 63.8791 34.2243C63.8791 34.1745 63.899 34.1196 63.9239 34.0947C63.9638 34.0449 64.3328 33.0477 64.8513 31.577C65.0108 31.1233 65.1654 30.7244 65.1903 30.6895C65.2302 30.6447 65.5443 30.6297 66.5813 30.6397L67.9274 30.6546L68.1418 31.2529C68.7301 32.8882 68.8996 33.3568 69.1389 34.0449C69.2835 34.4587 69.5627 35.2414 69.7621 35.7898C69.9566 36.3383 70.2208 37.0662 70.3405 37.4102C70.4601 37.7542 70.5798 38.0782 70.6047 38.1331C70.6296 38.1879 70.7792 38.6017 70.9387 39.0554C71.0933 39.5091 71.3176 40.1473 71.4373 40.4763C71.5569 40.8054 71.8561 41.638 72.1004 42.321C72.3447 43.009 72.9081 44.5895 73.3518 45.8359C73.8005 47.0823 74.2492 48.3536 74.3539 48.6528C74.4636 48.9569 74.5683 49.2461 74.5932 49.3009C74.668 49.4605 74.9472 50.2731 74.9472 50.328C74.9472 50.3529 74.4087 50.3728 73.5861 50.3728H72.225L72.1104 49.9889C72.0206 49.6699 71.542 48.2988 70.5847 45.5866L70.4701 45.2625L66.5414 45.2476L62.6077 45.2376L62.1889 46.4192C61.7801 47.5809 61.0572 49.6649 60.8977 50.1385L60.8179 50.3728H59.402C58.2702 50.3728 57.996 50.3579 58.0359 50.308V50.308ZM69.7621 43.1437C69.7621 43.1038 69.6873 42.8345 69.5926 42.5454C69.4979 42.2562 69.124 41.1145 68.765 40.0027C67.728 36.7969 67.5635 36.2934 67.5186 36.1887C67.4937 36.1338 67.374 35.7649 67.2494 35.3661C66.7657 33.8155 66.5464 33.1774 66.5015 33.1873C66.4716 33.1973 66.3918 33.3917 66.317 33.6261C66.2423 33.8554 66.0029 34.5933 65.7836 35.2663C65.4097 36.4081 65.0756 37.4351 64.6618 38.7314C64.0436 40.6608 63.5051 42.331 63.3755 42.69C63.2957 42.9193 63.2359 43.1337 63.2459 43.1636C63.2608 43.2035 64.233 43.2184 66.5165 43.2184C69.3683 43.2184 69.7621 43.2085 69.7621 43.1437V43.1437Z" fill="#4E5F6E"/>
<path d="M75.5559 43.3581L75.5708 36.3483L76.194 36.124C77.3657 35.7102 78.5273 35.4758 79.9831 35.3612C80.6861 35.3063 81.9624 35.3313 82.3164 35.406L82.4809 35.4409V36.458L82.4859 37.4801L81.1697 37.4851C79.8485 37.495 79.2203 37.5499 78.3777 37.7393L78.0387 37.8191V44.096V50.3729H76.7923H75.5459L75.5559 43.3581V43.3581Z" fill="#4E5F6E"/>
<path d="M85.3678 43.9661V37.5596H84.3756C83.6278 37.5596 83.3785 37.5446 83.3635 37.4948C83.3486 37.4649 83.3486 37.2804 83.3536 37.0859C83.3586 36.8965 83.3685 36.4478 83.3685 36.0888L83.3735 35.4407L84.3706 35.4556L85.3678 35.4706L85.3777 33.8154L85.3927 32.1601L86.5145 31.7962C87.1327 31.5918 87.6811 31.4272 87.7359 31.4272C87.8357 31.4272 87.8357 31.4572 87.8207 33.4464L87.8107 35.4656H89.2815H90.7523V36.5126V37.5596H89.2815H87.8107V43.9661V50.3727H86.5892H85.3678V43.9661V43.9661Z" fill="#4E5F6E"/>
<path d="M91.7988 42.9194V35.4658H93.0203H94.2418V42.9194V50.3729H93.0203H91.7988V42.9194Z" fill="#4E5F6E"/>
<path d="M118.373 43.3679C118.373 36.4877 118.373 36.3681 118.468 36.3132C118.617 36.2335 119.724 35.8795 120.158 35.7698C120.686 35.6352 121.494 35.4856 122.062 35.4108C122.691 35.3261 124.715 35.3211 125.203 35.4059C126.684 35.6551 127.721 36.1238 128.469 36.8866C128.898 37.3203 129.107 37.6693 129.322 38.2975C129.641 39.2348 129.641 39.17 129.641 45.0082C129.641 47.9098 129.636 50.293 129.626 50.3029C129.616 50.3179 127.94 50.3329 127.387 50.3229H127.247V45.3273C127.247 42.4356 127.228 40.1921 127.198 40.0026C127.138 39.5888 127.003 39.1451 126.953 39.18C126.928 39.19 126.913 39.1501 126.913 39.0853C126.913 38.7761 126.23 38.0782 125.647 37.779C124.65 37.2755 122.76 37.2805 121.215 37.789L120.816 37.9236V44.1457V50.3727H119.595H118.373V43.3679V43.3679Z" fill="#4E5F6E"/>
<path d="M92.5928 33.4517C91.9597 33.2274 91.5957 32.7189 91.6057 32.0657C91.6057 31.6669 91.7154 31.3977 91.9946 31.1035C92.2937 30.7794 92.5779 30.6648 93.0465 30.6648C93.4853 30.6598 93.6947 30.7396 93.9938 31.0088C94.3378 31.3179 94.4176 31.5223 94.4176 32.0757C94.4176 32.6291 94.3378 32.8285 93.9788 33.1576C93.6249 33.4866 93.0316 33.6113 92.5928 33.4517V33.4517Z" fill="#4E5F6E"/>
</svg>
