<svg width="150" height="80" viewBox="0 0 150 80" fill="none" xmlns="http://www.w3.org/2000/svg">
<rect width="150" height="80" fill="white"/>
<path d="M35.1984 51.9069C33.8474 50.0329 32.7283 48.4058 32.6993 48.3041C32.6703 48.1879 33.2083 47.5487 33.8763 46.8805C35.8663 44.8902 36.7814 42.6676 36.7814 39.8493C36.7814 38.9487 36.6804 38.0334 36.5344 37.4524C35.9974 35.3895 34.5303 33.1523 32.9753 32.0192C32.5683 31.7142 32.2344 31.4091 32.2344 31.3219C32.2344 31.0023 34.3264 28.3003 34.5734 28.3003C35.0964 28.3003 37.4934 30.5375 38.4374 31.9321C39.0624 32.8618 39.8474 34.4598 40.1954 35.5638C40.7044 37.1618 40.8494 38.1787 40.8494 39.9946C40.8494 42.7257 40.1083 45.2389 38.6993 47.4034L38.0453 48.3913L40.0504 51.166C42.9414 55.1609 42.7524 54.8559 42.5494 55.1028C42.4034 55.2771 41.9094 55.3207 40.0214 55.3207H37.6684L35.1984 51.9069Z" fill="#4E5F6E"/>
<path d="M24.6371 53.8678C21.7611 53.3449 19.349 52.11 17.199 50.0762C15.384 48.3475 14.2071 46.3864 13.3931 43.6988C13.0451 42.5948 13.0011 42.2171 13.0011 40.0671C12.9871 37.4667 13.1031 36.8856 13.9451 34.663C15.0791 31.7285 17.693 28.9248 20.686 27.443C22.516 26.5423 24.1721 26.1065 26.2061 26.0193C28.7921 25.9031 31.1021 26.3244 31.1891 26.92C31.2181 27.1089 30.8111 27.7771 30.1291 28.7069L29.0391 30.1886L27.6881 30.1014C25.8291 29.9707 24.3031 30.2758 22.5021 31.1619C21.3691 31.714 20.9181 32.0481 19.9451 33.0214C18.9721 33.9947 18.6381 34.4451 18.0861 35.5782C17.7221 36.3336 17.4171 37.0745 17.4171 37.2052C17.4171 37.4377 17.81 37.4522 22.444 37.4522C27.398 37.4522 28.022 37.5103 28.022 37.9316C28.022 38.2512 25.4071 41.7232 25.0731 41.8539C24.8991 41.9265 23.0681 41.9556 21.0061 41.9265L17.2431 41.883L17.3301 42.464C17.3881 42.7836 17.7221 43.6553 18.0861 44.4107C18.6231 45.5147 18.9721 45.9941 19.9311 46.9674C20.9181 47.9553 21.3541 48.2749 22.5021 48.8269C24.3031 49.6985 25.8581 50.0327 27.5861 49.8729C29.8531 49.684 29.5331 49.5387 30.7391 51.2384C31.3341 52.0665 31.7991 52.8509 31.7701 52.9817C31.6831 53.432 29.6491 53.8824 27.3681 53.9405C26.2501 53.9695 25.0151 53.9405 24.6371 53.8678Z" fill="#4E5F6E"/>
<path d="M50.4819 44.145C49.6539 43.84 48.9129 43.1717 48.5069 42.3727C48.0129 41.4285 47.9979 39.7869 48.4779 38.8862C48.8839 38.0727 49.8138 37.3028 50.6568 37.0703C51.9928 36.6781 53.6929 36.9832 54.3179 37.7386C54.4919 37.942 54.4628 38.0146 54.0998 38.3051L53.6929 38.6393L53.0969 38.3051C52.7629 38.1163 52.2689 37.9565 51.9789 37.9565C51.2089 37.9565 50.2348 38.523 49.8578 39.2058C49.1598 40.4116 49.5958 42.3582 50.6858 42.9248C51.4408 43.317 52.5449 43.2734 53.2129 42.8231L53.7508 42.4599L54.1869 42.7795C54.4189 42.9538 54.5939 43.1717 54.5639 43.2589C54.5349 43.3315 54.2009 43.593 53.8089 43.84C53.2279 44.2031 52.9369 44.2758 52.0799 44.3048C51.4559 44.3339 50.8309 44.2758 50.4819 44.145Z" fill="#4E5F6E"/>
<path d="M60.708 44.2167C59.154 43.7228 58.268 42.5751 58.137 40.9336C57.934 38.5221 59.474 36.895 61.929 36.895C63.207 36.895 64.05 37.2437 64.805 38.0717C66.403 39.844 65.895 42.8366 63.832 43.9116C63.076 44.2893 61.449 44.4637 60.708 44.2167ZM63.541 42.6042C64.18 41.9941 64.384 41.3549 64.311 40.2944C64.238 39.292 63.846 38.6528 63.033 38.2461C60.723 37.0694 58.457 39.8586 59.837 42.1393C60.316 42.9383 60.926 43.2143 62.045 43.1562C62.931 43.1127 63.076 43.0545 63.541 42.6042Z" fill="#4E5F6E"/>
<path d="M96.3722 44.1442C95.7182 43.8537 95.0642 43.1564 94.8752 42.5026C94.7742 42.154 94.7012 40.9482 94.7012 39.4955V37.084H95.3402H95.9942L96.0382 39.7861L96.0812 42.4881L96.4882 42.8368C96.7932 43.0983 97.0692 43.1854 97.5482 43.1854C99.0162 43.1854 99.2052 42.7932 99.2052 39.5536V37.084H99.8732H100.541L100.483 39.8151L100.439 42.5608L100.018 43.1564C99.7862 43.4905 99.3502 43.8827 99.0012 44.057C98.2892 44.3912 97.0402 44.4348 96.3722 44.1442Z" fill="#4E5F6E"/>
<path d="M70.0039 40.643V37.0693L71.0349 37.1129L72.0809 37.1564L72.9669 39.597C73.4469 40.9335 73.8829 42.023 73.9259 42.023C73.9699 42.023 74.3909 40.919 74.8699 39.5534L75.7419 37.0838H76.8029H77.8489V40.643V44.2021H77.1949H76.5409L76.5119 41.3693L76.4679 38.5365L75.3929 41.3693L74.3179 44.2166L73.8679 44.173C73.4319 44.1295 73.4029 44.0859 72.4009 41.3984L71.3839 38.6673L71.3399 41.4419L71.3109 44.2021H70.6579H70.0039V40.643Z" fill="#4E5F6E"/>
<path d="M82.3535 40.643V37.0693L83.3985 37.1129L84.4445 37.1564L85.3165 39.5825C85.8105 40.919 86.2315 42.023 86.2755 42.023C86.3185 42.023 86.7405 40.9335 87.2345 39.5825L88.1055 37.1564L89.1515 37.1129L90.1975 37.0693V40.643V44.2021H89.5435H88.8905L88.8615 41.4129L88.8175 38.6092L88.5415 39.3355C88.3965 39.7423 88.1205 40.4541 87.9315 40.9335C87.7575 41.4129 87.3935 42.3426 87.1465 43.0109C86.6965 44.1876 86.6825 44.2021 86.1885 44.2021C85.8835 44.2021 85.6945 44.1295 85.6945 44.0278C85.6945 43.9261 85.4035 43.0835 85.0555 42.1683C84.6915 41.2531 84.2565 40.0764 84.0675 39.5534L83.7335 38.6092L83.6895 41.4129L83.6605 44.2021H83.0065H82.3535V40.643Z" fill="#4E5F6E"/>
<path d="M105.016 40.643V37.0693L105.916 37.1129L106.817 37.1564L108.415 39.7423L110.027 42.3426L110.071 39.7132L110.1 37.0838H110.754H111.408V40.643V44.2021H110.58L109.737 44.1876L108.865 42.7349C108.386 41.9213 107.616 40.672 107.166 39.9457L106.323 38.6237V41.4129V44.2021H105.669H105.016V40.643Z" fill="#4E5F6E"/>
<path d="M116.055 40.6432V37.084H116.636H117.217V40.6432V44.2023H116.636H116.055V40.6432Z" fill="#4E5F6E"/>
<path d="M123.322 41.1516V38.1009H122.232H121.143V37.5925V37.084H123.975H126.808V37.5925V38.1009H125.719H124.629V41.1516V44.2023H123.975H123.322V41.1516Z" fill="#4E5F6E"/>
<path d="M132.324 42.6334C132.324 41.5439 132.266 40.9773 132.12 40.7884C132.019 40.6286 131.423 39.728 130.813 38.7982L129.709 37.084H130.479H131.234L132.091 38.5367C132.556 39.3357 132.949 39.9895 132.978 39.9895C133.007 39.9895 133.428 39.3357 133.922 38.5367L134.808 37.084H135.534H136.246L134.939 39.0452L133.631 40.9918V42.6043V44.2023H132.978H132.324V42.6334Z" fill="#4E5F6E"/>
</svg>
