<svg width="150" height="80" viewBox="0 0 150 80" fill="none" xmlns="http://www.w3.org/2000/svg">
<rect width="150" height="80" fill="white"/>
<g clip-path="url(#clip0_1126_25990)">
<path d="M78.0189 46.9917C77.1775 46.8715 76.483 46.718 75.7417 46.4776C74.9404 46.2171 74.0322 45.8231 74.0322 45.7363C74.0322 45.6962 74.3862 44.7747 74.8135 43.6862L75.5948 41.7096L76.0957 42.0702C77.3377 42.9584 78.7468 43.3857 79.7017 43.152C80.3494 42.9984 80.6833 42.531 80.483 42.0502C80.3494 41.7363 79.9688 41.5694 79.1942 41.4759C76.9972 41.2154 75.5414 40.4141 74.887 39.0919C74.5598 38.4508 74.473 37.9968 74.513 37.142C74.5397 36.5944 74.5932 36.3073 74.7534 35.8532C75.0406 35.0185 75.3144 34.5911 76.0356 33.8699C76.6032 33.2956 76.7501 33.1887 77.4379 32.8482C77.8987 32.6144 78.473 32.3941 78.8736 32.2872C79.4813 32.127 79.6549 32.1136 80.8102 32.1069C82.2259 32.1069 82.8402 32.2004 83.9287 32.6011C84.6032 32.8482 85.3177 33.2822 85.3177 33.4425C85.3177 33.536 84.0957 36.8081 84.0089 36.955C83.9955 36.975 83.7751 36.8816 83.5281 36.7346C82.3461 36.0402 80.9571 35.753 80.2693 36.0669C79.9287 36.2205 79.7751 36.4341 79.7751 36.7413C79.7751 37.142 79.9755 37.2622 80.8903 37.4492C83.5614 37.9767 84.9037 38.7513 85.518 40.1136C85.7918 40.7146 85.8786 41.1754 85.8786 41.95C85.8786 42.7847 85.7584 43.3056 85.3845 44.0535C84.2626 46.3373 81.4513 47.4592 78.0189 46.9917V46.9917Z" fill="#4E5F6E"/>
<path d="M15.0664 39.5723V32.2534L18.9262 32.2801C23.1599 32.3135 23.2935 32.3202 24.4621 32.7476C25.9045 33.2684 26.9662 34.377 27.4137 35.8194C27.7208 36.8277 27.7342 38.2634 27.447 39.2785C27.1599 40.2735 26.4253 41.2618 25.5839 41.7626C24.649 42.3235 23.7743 42.4838 21.5973 42.4838H20.1415V44.6875V46.8911H17.604H15.0664V39.5723V39.5723ZM21.5372 38.7376C22.205 38.5973 22.5522 38.2234 22.599 37.609C22.6323 37.1282 22.5455 36.8811 22.2384 36.6073C21.9379 36.3469 21.6374 36.2735 20.8293 36.2735H20.1415V37.5422V38.811H20.6758C20.9629 38.811 21.3569 38.7776 21.5372 38.7376V38.7376Z" fill="#4E5F6E"/>
<path d="M28.0889 39.5723V32.2534L31.8819 32.2868C34.9804 32.3135 35.7683 32.3402 36.2024 32.427C38.4595 32.8745 39.7283 33.8895 40.3092 35.7058C40.4962 36.2935 40.5697 37.6758 40.4428 38.4037C40.3293 39.0714 39.9954 39.7192 39.548 40.1265C39.1874 40.4538 38.4862 40.8611 38.0254 41.0147C37.8852 41.0548 37.7516 41.1215 37.7316 41.1616C37.7049 41.195 37.8718 41.3953 38.0922 41.6023C38.3927 41.8895 38.9069 42.604 40.1356 44.4404L41.7717 46.8911H38.7333H35.7016L34.5263 44.5406C33.8785 43.2451 33.3243 42.1766 33.2909 42.1633C33.2575 42.1499 33.2308 43.1115 33.2308 44.5139V46.8911H30.6598H28.0889V39.5723V39.5723ZM34.8134 38.5573C35.2208 38.3436 35.3877 37.9896 35.3543 37.4287C35.3076 36.6741 34.8735 36.3469 33.8318 36.2868L33.2308 36.2534V37.5088V38.7576L33.8852 38.7309C34.386 38.7108 34.5997 38.6708 34.8134 38.5573V38.5573Z" fill="#4E5F6E"/>
<path d="M42.2451 39.5793V32.2671H44.8828H47.5206V39.5793V46.8915H44.8828H42.2451V39.5793Z" fill="#4E5F6E"/>
<path d="M48.5898 39.586V32.2671H51.3478C55.1742 32.2671 56.3428 32.3739 57.8186 32.8681C58.4596 33.0818 59.3478 33.5092 59.8019 33.823C60.256 34.1369 60.9972 34.8581 61.3177 35.3122C62.9605 37.6093 63.0072 41.5359 61.4179 43.8731C60.4029 45.3689 58.8536 46.3372 56.8503 46.7312C56.3962 46.8247 55.6216 46.8447 52.4496 46.8714L48.5898 46.9048V39.586V39.586ZM54.9605 42.5175C55.9621 42.3038 56.6566 41.8297 57.0039 41.1218C57.5848 39.9532 57.311 38.2638 56.4162 37.4691C55.862 36.9749 55.0206 36.6744 54.1992 36.6744H53.7985V39.6461V42.6177H54.1524C54.3394 42.6177 54.7067 42.5709 54.9605 42.5175Z" fill="#4E5F6E"/>
<path d="M63.0137 39.5793V32.2671H67.8885H72.7633V34.2704V36.2738H70.5262H68.2891V36.9749V37.6761H70.3259H72.3626V39.5459V41.4157H70.3259H68.2891V42.1502V42.8848H70.593H72.8968V44.8881V46.8915H67.9552H63.0137V39.5793Z" fill="#4E5F6E"/>
<path d="M88.6556 41.5492V36.207H87.2199H85.7842V34.237V32.2671H91.3268H96.8693V34.237V36.207H95.4002H93.9311V41.5492V46.8915H91.2934H88.6556V41.5492Z" fill="#4E5F6E"/>
<path d="M95.1737 46.745C95.2004 46.6582 96.3356 43.3794 97.7046 39.4462L100.189 32.301L103.094 32.2809C105.818 32.2676 106.005 32.2743 106.052 32.3811C106.079 32.4479 107.234 35.6866 108.623 39.5798C110.012 43.4729 111.174 46.7117 111.194 46.7784C111.24 46.8853 111.08 46.892 108.442 46.892H105.644L105.324 45.5898L105.003 44.2876L103.16 44.301L101.317 44.321L101.01 45.5898L100.71 46.8586L97.9183 46.8786L95.127 46.892L95.1737 46.745V46.745ZM104.255 41.3026C104.149 40.9487 103.354 37.6699 103.314 37.4295C103.281 37.2225 103.234 37.1424 103.16 37.1424C103.067 37.1424 102.953 37.523 102.553 39.1991C102.279 40.3277 102.045 41.2893 102.032 41.336C102.005 41.3961 102.259 41.4162 103.147 41.4162C104.209 41.4162 104.289 41.4095 104.255 41.3026V41.3026Z" fill="#4E5F6E"/>
<path d="M111.828 39.5793V32.2671H116.703H121.578V34.2704V36.2738H119.374H117.17V37.2087V38.1436H119.107H121.043V39.9466V41.7496H119.107H117.17V44.3205V46.8915H114.499H111.828V39.5793Z" fill="#4E5F6E"/>
<path d="M122.312 39.5793V32.2671H127.187H132.062V34.2704V36.2738H129.825H127.588V37.2087V38.1436H129.525H131.461V39.9466V41.7496H129.525H127.588V44.3205V46.8915H124.95H122.312V39.5793Z" fill="#4E5F6E"/>
<path d="M133.345 34.5975C133.011 34.4973 132.63 34.0766 132.537 33.7093C132.437 33.3086 132.53 32.9547 132.817 32.6208C133.559 31.7727 134.934 32.2736 134.948 33.3954C134.948 34.2302 134.14 34.8379 133.345 34.5975V34.5975ZM134.266 34.3838C134.6 34.2101 134.867 33.7828 134.867 33.4422C134.861 33.155 134.654 32.721 134.433 32.5474C133.652 31.933 132.483 32.5741 132.617 33.5424C132.724 34.3437 133.552 34.7644 134.266 34.3838Z" fill="#4E5F6E"/>
<path d="M133.264 33.4022V32.7344H133.671C134.179 32.7344 134.332 32.8145 134.332 33.0749C134.332 33.2285 134.285 33.302 134.138 33.3888L133.945 33.4956L134.112 33.7828C134.205 33.9431 134.245 34.0699 134.205 34.0699C134.172 34.0699 134.058 33.9364 133.958 33.7694C133.818 33.5224 133.751 33.4689 133.591 33.4689C133.404 33.4689 133.397 33.4823 133.397 33.7694C133.397 33.9364 133.371 34.0699 133.33 34.0699C133.29 34.0699 133.264 33.8028 133.264 33.4022V33.4022ZM134.185 33.1417C134.219 32.9214 134.045 32.8012 133.684 32.8012H133.397V33.0683V33.3421L133.785 33.322C134.132 33.302 134.165 33.2886 134.185 33.1417Z" fill="#4E5F6E"/>
</g>
<defs>
<clipPath id="clip0_1126_25990">
<rect width="120" height="15.1586" fill="white" transform="translate(15 32)"/>
</clipPath>
</defs>
</svg>
