<svg width="150" height="80" viewBox="0 0 150 80" fill="none" xmlns="http://www.w3.org/2000/svg">
<rect width="150" height="80" fill="white"/>
<path d="M17.5285 42.2138C17.2256 42.1663 16.596 41.9406 16.2753 41.7683C15.9486 41.5961 15.2715 41.0437 15.2715 40.9546C15.2715 40.9011 16.5366 40.5032 17.5285 40.2418C18.5739 39.9627 20.4033 39.5825 20.4449 39.63C20.4687 39.6538 20.6469 40.0814 20.8429 40.5804L21.1992 41.4891L21.0151 41.6079C20.7122 41.7921 19.9697 42.0593 19.4768 42.1603C19.055 42.2494 17.9206 42.2791 17.5285 42.2138V42.2138Z" fill="#4E5F6E"/>
<path d="M29.6152 42.0888C28.7301 41.6611 28.1005 40.5266 28.1065 39.3744C28.1065 38.9942 28.1718 38.4775 28.2253 38.43C28.249 38.4062 31.0288 38.1092 31.0525 38.1211C31.0585 38.127 31.0228 38.2518 30.9753 38.3943C30.6962 39.1962 31.2367 40.1228 31.8782 39.9446C32.4365 39.7901 32.775 39.2615 32.8404 38.4478L32.882 37.9488L33.9214 37.8538C34.4916 37.8004 35.1568 37.741 35.3944 37.7231L35.8221 37.6875V38.2933C35.828 39.6238 35.9587 41.376 36.1012 41.9462L36.1309 42.0769H34.5272C32.7038 42.0769 32.876 42.1363 32.8166 41.4829L32.775 41.0731L32.383 41.4295C32.1692 41.6255 31.795 41.8809 31.5515 42.0056C31.1535 42.2016 31.0585 42.2254 30.5417 42.2432C30.0131 42.261 29.9478 42.2491 29.6152 42.0888V42.0888Z" fill="#4E5F6E"/>
<path d="M58.7613 42.1365C57.8942 41.9048 57.1398 41.3822 56.5459 40.5981C55.9044 39.7547 55.5718 38.7568 55.5064 37.4798L55.4648 36.7492L56.2845 36.7136C56.7359 36.6898 57.4427 36.672 57.8585 36.672H58.6129L58.6485 37.6402C58.6901 38.7628 58.791 39.2676 59.0761 39.8616C59.3197 40.3605 59.5335 40.5387 59.878 40.5447C60.6442 40.5565 61.0778 39.5409 61.161 37.557L61.2025 36.6304L62.2717 36.5948C62.8597 36.571 63.5487 36.5532 63.8041 36.5532H64.2615L64.303 36.7967C64.3684 37.1709 64.2793 38.1213 64.1189 38.7509C63.6912 40.4734 62.4439 41.8098 60.9471 42.1602C60.3947 42.2909 59.3137 42.279 58.7613 42.1365V42.1365Z" fill="#4E5F6E"/>
<path d="M73.7171 42.1602C72.8915 41.9405 72.0718 41.0852 71.6442 40.0042C71.3056 39.1548 71.1631 38.3232 71.1631 37.2303V36.5532H72.7846H74.4002L74.4061 37.3432C74.418 39.1191 74.9348 40.2952 75.7069 40.2952C76.0692 40.2952 76.3484 40.0754 76.5622 39.624C76.8414 39.0419 76.9305 38.5846 76.9661 37.5154L77.0018 36.5532L78.4926 36.5651L79.9835 36.5829V39.3152V42.0474H78.4985H77.0136L76.9839 41.4356L76.9542 40.8298L76.6929 41.1564C76.289 41.6613 75.8554 41.988 75.3565 42.1543C74.9882 42.279 74.1685 42.279 73.7171 42.1602V42.1602Z" fill="#4E5F6E"/>
<path d="M21.8463 42.0414C21.8225 42.0176 21.8047 41.3999 21.8047 40.6753V39.3448L21.9413 39.3151C22.1551 39.2616 24.6735 38.8696 24.7923 38.8696C24.8874 38.8696 24.8933 38.9706 24.8814 40.4615L24.8636 42.0473L23.3728 42.0652C22.5531 42.0711 21.87 42.0592 21.8463 42.0414V42.0414Z" fill="#4E5F6E"/>
<path d="M38.5006 41.8869C38.4709 41.78 38.2511 41.0494 38.0195 40.2654C37.7878 39.4814 37.5146 38.5666 37.4136 38.2281C37.3126 37.8955 37.2414 37.6104 37.2532 37.5985C37.277 37.5807 39.9974 37.3906 41.7436 37.2896L42.4089 37.248L41.7377 39.1131C41.3694 40.1407 40.9774 41.2276 40.8645 41.5305L40.6685 42.077H39.6172H38.5659L38.5006 41.8869Z" fill="#4E5F6E"/>
<path d="M43.7573 41.976C43.7157 41.8335 42.7119 37.3194 42.7119 37.2718C42.7119 37.2481 43.7217 37.1827 44.9571 37.1293C46.1866 37.0699 47.2854 37.0164 47.3924 36.9986C47.4933 36.9867 47.5824 36.9927 47.5824 37.0164C47.5824 37.0402 47.2082 38.1865 46.7449 39.5705L45.9074 42.077H44.8502C43.8939 42.077 43.787 42.0651 43.7573 41.976V41.976Z" fill="#4E5F6E"/>
<path d="M50.7126 42.0413C50.6532 41.9819 50.6591 36.9214 50.7185 36.8917C50.7423 36.8738 51.4372 36.8441 52.2628 36.8204L53.7596 36.7788L53.7477 39.4101L53.7299 42.0473L52.2391 42.0651C51.4194 42.071 50.7363 42.0591 50.7126 42.0413V42.0413Z" fill="#4E5F6E"/>
<path d="M64.9268 39.3152V36.5532H66.5602C67.457 36.5532 68.1936 36.5651 68.1936 36.5829C68.1936 36.5948 68.152 36.7611 68.0985 36.9512C68.0154 37.2363 67.9916 37.7055 67.9738 39.6894L67.9441 42.0771H66.4354H64.9268V39.3152Z" fill="#4E5F6E"/>
<path d="M14.4395 39.7546C14.095 39.0122 14.0059 38.5311 14 37.4144C14 36.6482 14.0238 36.3096 14.101 35.9948C14.5049 34.3852 15.574 33.0904 16.9342 32.5558C18.0865 32.1044 19.506 32.1578 20.5633 32.6983C21.282 33.0607 21.2523 32.9122 20.8128 34.0169C20.5989 34.5456 20.4208 34.9851 20.4208 34.991C20.4148 34.991 20.2069 34.9316 19.9634 34.8485C18.5141 34.3614 17.4628 35.0564 17.2312 36.6423C17.1124 37.4382 17.2727 38.3826 17.6172 38.8815C17.7004 39.0003 17.7657 39.125 17.7657 39.1547C17.7657 39.1785 17.5044 39.2676 17.1896 39.3389C16.7263 39.4517 15.081 39.9506 14.6949 40.0991C14.6474 40.117 14.5583 40.0041 14.4395 39.7546V39.7546Z" fill="#4E5F6E"/>
<path d="M21.8047 35.3947V32.4546H23.349H24.8933L24.9052 33.5118L24.923 34.5632L25.0656 34.1771C25.2972 33.5356 25.6714 32.8763 25.9684 32.6031C26.3069 32.2823 26.6158 32.1873 27.0078 32.2764C27.3464 32.3536 27.4355 32.4011 27.8988 32.7278L28.2611 32.9832L27.8572 34.3553C27.6315 35.1096 27.4355 35.7511 27.4176 35.7748C27.4058 35.8045 27.2513 35.7748 27.0791 35.7154C25.9506 35.3234 25.1368 35.9471 24.9408 37.3548L24.8636 37.8834L23.4381 38.1091C22.6541 38.2279 21.9651 38.3289 21.9116 38.3348C21.8106 38.3348 21.8047 38.1566 21.8047 35.3947V35.3947Z" fill="#4E5F6E"/>
<path d="M28.7004 37.3311C28.7539 37.1767 29.2112 36.6778 29.4963 36.464C30.0903 36.0244 30.7437 35.7512 32.1038 35.3948C32.4959 35.2938 32.8225 35.181 32.8344 35.1454C32.876 35.0325 32.4662 34.5692 32.1989 34.4148C31.789 34.1891 31.2248 34.201 30.714 34.4564C30.5001 34.5633 30.1735 34.783 29.9834 34.9553C29.7933 35.1216 29.6329 35.2523 29.6211 35.2404C29.5201 35.1275 28.8133 33.6129 28.837 33.5535C28.8727 33.4466 29.4666 33.0487 29.924 32.817C31.789 31.8786 34.0758 32.1221 35.0618 33.3635C35.3825 33.7733 35.5072 34.0346 35.6498 34.6048C35.7627 35.0741 35.8874 36.7312 35.8042 36.7312C35.5488 36.7312 31.2069 37.1411 29.0568 37.3608C28.7717 37.3965 28.6826 37.3846 28.7004 37.3311Z" fill="#4E5F6E"/>
<path d="M36.9564 36.5889C36.8851 36.5057 35.8041 32.8707 35.8397 32.835C35.8516 32.8232 36.3921 32.7162 37.0455 32.6034C37.6929 32.4846 38.3463 32.3658 38.4947 32.3361C38.6432 32.3064 38.7799 32.3005 38.8036 32.3242C38.863 32.3836 39.8727 36.381 39.8371 36.4166C39.8193 36.4345 39.2669 36.482 38.6017 36.5295C37.9364 36.5711 37.3068 36.6186 37.1999 36.6305C37.093 36.6423 36.9801 36.6186 36.9564 36.5889V36.5889Z" fill="#4E5F6E"/>
<path d="M40.4611 36.3154C40.4611 36.2679 40.7343 35.3829 41.0728 34.3554L41.6787 32.4844H42.6825H43.6863L44.2387 34.1772C44.5416 35.1097 44.8029 35.9412 44.8208 36.0363L44.8623 36.1967L44.3634 36.2026C44.0902 36.2026 43.1042 36.2501 42.1598 36.3036C40.6511 36.3927 40.4551 36.3927 40.4611 36.3154V36.3154Z" fill="#4E5F6E"/>
<path d="M45.5039 36.0661C45.5039 35.983 46.6087 32.342 46.6443 32.3063C46.6681 32.2826 49.0202 32.6271 49.0499 32.6568C49.0677 32.6687 48.058 35.6919 47.9689 35.9117C47.9392 35.9889 47.8025 36.0127 47.2383 36.0424C46.8581 36.0661 46.3117 36.0958 46.0266 36.1137C45.6168 36.1374 45.5039 36.1315 45.5039 36.0661V36.0661Z" fill="#4E5F6E"/>
<path d="M50.6593 35.0861L50.6415 34.2665L50.0356 34.2486L49.4238 34.2308V33.3458V32.4549H50.0416H50.6533L50.689 31.5817C50.7246 30.6255 50.8078 30.2572 51.0869 29.687C51.8294 28.1724 53.6113 27.6259 55.6664 28.2734C55.9218 28.3565 56.1356 28.4456 56.1356 28.4753C56.1356 28.5288 55.7733 30.281 55.7555 30.2988C55.7495 30.3047 55.5892 30.2572 55.3991 30.1919C54.6923 29.9602 54.1993 30.085 53.938 30.5542C53.8013 30.7977 53.7895 30.8987 53.7716 31.6411L53.7479 32.4549H54.6745H55.6011V33.3458V34.2368H54.6804H53.7598V35.003C53.7598 35.4306 53.7419 35.787 53.7182 35.7989C53.6885 35.8167 52.9995 35.8464 52.1739 35.8702L50.6771 35.9117L50.6593 35.0861V35.0861Z" fill="#4E5F6E"/>
<path d="M55.6602 35.7098C55.6602 35.6029 55.9156 34.9139 56.0581 34.6288C56.4382 33.8625 57.2104 33.0785 57.9469 32.7043C59.2774 32.0391 60.9405 32.1044 62.1462 32.8647C62.6392 33.1735 63.2985 33.8625 63.6074 34.3912C63.8331 34.7772 64.136 35.5256 64.0885 35.5672C64.0766 35.5791 63.3936 35.6029 62.568 35.6207L61.0712 35.6563L61.0355 35.4662C60.8752 34.6585 60.5307 34.112 60.1089 33.9992C59.5269 33.8388 59.0992 34.2783 58.8141 35.3296L58.7191 35.692L58.3627 35.7038C57.2342 35.7454 55.6602 35.7513 55.6602 35.7098V35.7098Z" fill="#4E5F6E"/>
<path d="M64.9268 34.0288V32.4547H66.4414H67.956L67.9679 33.5417L67.9857 34.6227L68.1282 34.2366C68.5381 33.12 69.0607 32.4132 69.5656 32.2884C70.0111 32.1756 70.611 32.3894 71.1515 32.8527L71.3475 33.019L70.9733 34.2723L70.5991 35.5255L68.7341 35.5612C67.7065 35.5849 66.4295 35.6028 65.8949 35.6028H64.9268V34.0288V34.0288Z" fill="#4E5F6E"/>
<path d="M76.8411 35.5315C76.8233 35.4899 76.7876 35.3592 76.7461 35.2404C76.5203 34.492 75.8432 34.0584 75.3265 34.3198C74.9998 34.492 74.7385 34.884 74.5721 35.4721C74.5543 35.5255 74.1801 35.5433 72.9387 35.5433H71.3291L71.3647 35.3949C71.5904 34.498 72.1131 33.5773 72.719 33.019C73.8356 31.9796 75.469 31.9855 76.455 33.0309C76.6332 33.2209 76.8233 33.4407 76.8767 33.5239C76.9718 33.6664 76.9777 33.512 76.9777 30.8391L76.9836 28H78.4982H80.0129L80.001 31.7895L79.9832 35.573L78.421 35.5909C77.2034 35.6027 76.8589 35.5909 76.8411 35.5315V35.5315Z" fill="#4E5F6E"/>
<path d="M84.0465 42.1124C83.4882 41.8867 83.1615 41.5957 82.912 41.1264C82.6388 40.5919 82.6151 40.4196 82.5854 38.4714L82.5557 36.6123H83.114C83.4228 36.6123 84.1178 36.6301 84.6583 36.6539L85.6383 36.6895L85.6086 37.1172C85.573 37.6874 85.6918 38.8694 85.8403 39.3564C85.965 39.7841 86.2026 40.087 86.4699 40.1523C86.66 40.1998 87.2005 40.1405 87.2836 40.0573C87.3787 39.9623 87.545 39.986 87.5806 40.1048C87.7172 40.58 87.9192 41.6788 87.8776 41.7204C87.7885 41.8036 86.9094 42.0768 86.4342 42.1659C86.1729 42.2193 85.6443 42.255 85.181 42.255C84.4801 42.255 84.3376 42.2371 84.0465 42.1124V42.1124Z" fill="#4E5F6E"/>
<path d="M100.772 42.1423C100.576 42.0889 100.309 41.976 100.184 41.9048C98.9366 41.192 98.2595 40.3307 97.8615 38.9528C97.713 38.4479 97.5586 37.0936 97.6358 37.0283C97.6596 37.0045 98.1763 37.0105 98.7822 37.0342C99.388 37.058 100.071 37.0818 100.303 37.0818L100.724 37.0877L100.79 37.9371C100.926 39.618 101.354 40.5327 102.001 40.5327C102.631 40.5327 102.999 39.9269 103.207 38.5726C103.255 38.2638 103.296 37.8242 103.296 37.6045V37.1946L103.67 37.2303C103.872 37.2481 104.466 37.2778 104.989 37.2956C105.512 37.3134 106.058 37.349 106.195 37.3669L106.456 37.4025L106.415 37.8836C106.308 39.125 105.85 40.1585 105.025 41.0316C104.555 41.5246 104.051 41.8632 103.504 42.0592C103.071 42.2077 102.94 42.2255 102.079 42.2374C101.301 42.2493 101.063 42.2314 100.772 42.1423V42.1423Z" fill="#4E5F6E"/>
<path d="M122.47 42.1005C121.829 41.7679 121.235 40.9304 121.057 40.1107C120.979 39.7662 120.997 38.4952 121.074 38.412C121.128 38.3645 121.3 38.3764 122.69 38.5011L123.759 38.6021L123.801 38.9525C123.86 39.392 124.092 39.8019 124.347 39.9088C124.775 40.087 125.398 39.7068 125.565 39.1663C125.612 39.0179 125.666 38.8812 125.69 38.8515C125.725 38.81 126.551 38.8931 127.976 39.0772C128.339 39.1248 128.659 39.1663 128.695 39.1663C128.742 39.1663 128.766 39.3386 128.772 39.689C128.778 40.3721 128.826 40.9304 128.933 41.5066C128.98 41.762 129.016 41.9936 129.016 42.0233C129.016 42.053 128.297 42.0768 127.388 42.0768H125.761L125.719 41.6313C125.69 41.3521 125.648 41.1858 125.606 41.1858C125.565 41.1858 125.44 41.2809 125.327 41.3996C124.769 41.9817 124.11 42.255 123.29 42.255C122.833 42.249 122.708 42.2253 122.47 42.1005V42.1005Z" fill="#4E5F6E"/>
<path d="M131.047 42.1365C130.619 42.0177 129.984 41.7029 129.716 41.4772L129.532 41.3287L129.788 40.5566C129.93 40.1349 130.079 39.7013 130.126 39.6003L130.203 39.4043L130.548 39.6656C131.469 40.3725 131.973 40.4556 132.413 39.9864L132.633 39.7488L133.541 39.9329C134.498 40.123 135.365 40.3249 135.412 40.3725C135.478 40.4437 135.145 40.9486 134.795 41.3169C134.373 41.7505 133.797 42.0771 133.245 42.19C132.74 42.2969 131.486 42.2672 131.047 42.1365Z" fill="#4E5F6E"/>
<path d="M88.5007 42.0531C88.4888 42.0412 88.4829 40.8296 88.4948 39.3743L88.5066 36.7134L90.0391 36.7609C90.8766 36.7847 91.5655 36.8084 91.5655 36.8144C91.5655 36.8144 91.5596 38.0023 91.5477 39.4516L91.5299 42.0769H90.0272C89.2016 42.0769 88.5126 42.065 88.5007 42.0531V42.0531Z" fill="#4E5F6E"/>
<path d="M93.7868 42.0531C93.7749 42.0412 93.769 40.8651 93.7809 39.4456L93.7928 36.8618L94.9688 36.8915C95.6103 36.9093 96.2934 36.939 96.4775 36.9628L96.816 36.9984L96.8339 39.5228L96.8517 42.0471L95.3311 42.0649C94.4996 42.0709 93.8046 42.0649 93.7868 42.0531V42.0531Z" fill="#4E5F6E"/>
<path d="M107.098 39.7305V37.3784L107.442 37.4141C107.751 37.4438 109.842 37.5625 110.085 37.5625C110.18 37.5625 110.186 37.711 110.186 39.8196V42.0767H108.642H107.098V39.7305Z" fill="#4E5F6E"/>
<path d="M112.206 39.8734V37.6758L112.461 37.7055C112.598 37.7233 113.234 37.7649 113.869 37.8005C114.505 37.8362 115.087 37.8777 115.164 37.8955L115.295 37.9193V39.9982V42.0771H113.75H112.206V39.8734Z" fill="#4E5F6E"/>
<path d="M117.314 40.0576V38.0381L117.629 38.0678C118.223 38.1272 120.1 38.2757 120.249 38.2757H120.403V40.1764V42.077H118.859H117.314V40.0576V40.0576Z" fill="#4E5F6E"/>
<path d="M135.014 39.3091C134.313 39.1309 133.648 38.9943 132.603 38.8101C132.294 38.7567 132.24 38.721 131.504 38.0261C130.262 36.8619 129.954 36.3511 129.87 35.3057C129.799 34.3792 130.043 33.6783 130.643 33.0784C131.242 32.4844 131.854 32.2646 132.906 32.2646C133.707 32.2646 134.26 32.3834 134.973 32.722C135.186 32.823 135.311 32.9239 135.311 32.9833C135.305 33.0724 134.753 34.5752 134.699 34.6286C134.687 34.6405 134.557 34.587 134.414 34.5098C134.105 34.3435 133.612 34.2247 133.405 34.2782C133.203 34.3257 132.947 34.5811 132.906 34.7771C132.817 35.1751 132.965 35.3948 134.094 36.5531C135.371 37.8657 135.567 38.1687 135.602 38.9408C135.626 39.4754 135.638 39.4635 135.014 39.3091V39.3091Z" fill="#4E5F6E"/>
<path d="M128.415 38.1924C128.403 38.1805 128.124 38.139 127.798 38.1033C125.523 37.8539 125.748 37.9192 125.748 37.4975C125.748 37.1589 125.713 37.0936 125.594 37.1946C125.564 37.2242 125.422 37.2777 125.273 37.3193C125.125 37.3609 124.863 37.4737 124.685 37.5687C124.382 37.7291 124.347 37.7351 123.943 37.6816C123.711 37.6519 123.159 37.5984 122.719 37.5628C121.745 37.4797 121.531 37.45 121.531 37.3965C121.531 37.2896 122.078 36.7016 122.398 36.458C122.844 36.1254 123.325 35.8938 124.026 35.674C124.774 35.4364 125.481 35.2463 125.594 35.2463C125.766 35.2463 125.754 35.1216 125.546 34.8365C125.196 34.3613 124.62 34.1713 124.014 34.3257C123.646 34.4207 122.986 34.8128 122.725 35.0919C122.642 35.1751 122.559 35.2463 122.541 35.2463C122.47 35.2463 121.656 33.607 121.698 33.5417C121.763 33.4466 122.612 32.9002 122.927 32.7576C123.717 32.3894 124.287 32.2646 125.208 32.2646C126.354 32.2646 127.132 32.5379 127.768 33.1675C128.487 33.8862 128.659 34.5039 128.712 36.5531C128.73 37.3193 128.736 38.0083 128.724 38.0855C128.712 38.1746 128.665 38.2162 128.576 38.2162C128.498 38.2162 128.427 38.2043 128.415 38.1924V38.1924Z" fill="#4E5F6E"/>
<path d="M119.749 37.2956C119.702 37.2837 119.22 37.2421 118.68 37.2065C118.139 37.1708 117.617 37.1293 117.516 37.1115L117.332 37.0877L117.302 36.2977C117.278 35.6265 117.254 35.4602 117.142 35.2226C116.975 34.8841 116.827 34.7772 116.441 34.7297C115.924 34.6703 115.579 34.9197 115.407 35.484C115.372 35.5968 115.324 35.971 115.3 36.3155L115.265 36.9333L114.968 36.9214C114.338 36.8917 112.699 36.7848 112.461 36.7551L112.206 36.7254V36.3334C112.206 35.6681 112.099 35.2226 111.891 34.9791C111.719 34.7831 111.665 34.7594 111.344 34.7356C110.905 34.694 110.632 34.8247 110.442 35.1632C110.311 35.4008 110.186 35.9889 110.186 36.3928C110.186 36.5294 110.157 36.6125 110.115 36.6125C109.842 36.6125 107.662 36.4878 107.412 36.4581L107.098 36.4284V34.4386V32.4548H108.642H110.186V33.126L110.192 33.7912L110.317 33.613C110.549 33.2863 111.172 32.7042 111.434 32.5736C112.117 32.2231 113.073 32.1519 113.72 32.3954C114.172 32.5676 114.617 32.9893 114.867 33.4645L115.051 33.8209L115.229 33.5714C115.419 33.2923 115.876 32.8408 116.156 32.6448C116.607 32.3419 117.439 32.1875 118.151 32.2885C119.161 32.4191 120.004 33.2447 120.218 34.2961C120.313 34.7772 120.402 35.8938 120.402 36.66V37.3253L120.123 37.3193C119.963 37.3134 119.797 37.3015 119.749 37.2956V37.2956Z" fill="#4E5F6E"/>
<path d="M105.108 36.3631C104.555 36.3393 103.914 36.2918 103.682 36.268C103.272 36.2265 103.266 36.2205 103.249 36.0483C103.177 35.2583 102.928 34.5337 102.619 34.2307C102.423 34.0347 102.037 33.9278 101.817 34.005C101.342 34.1892 101.081 34.7059 100.825 36.0067L100.796 36.1433L99.4473 36.1077C98.7048 36.0898 98.0099 36.0601 97.903 36.0423C97.7129 36.0126 97.707 36.0007 97.7426 35.8226C97.8377 35.3949 98.1822 34.5931 98.4435 34.1951C98.8118 33.6427 99.4948 33.0072 100.023 32.728C101.17 32.1281 102.827 32.0925 103.938 32.6567C105.001 33.1972 105.957 34.4208 106.272 35.6503C106.426 36.2621 106.42 36.4343 106.254 36.4225C106.177 36.4165 105.666 36.3928 105.108 36.3631V36.3631Z" fill="#4E5F6E"/>
<path d="M95.3965 35.9532C94.7906 35.9354 94.1729 35.9116 94.0185 35.9057L93.7393 35.8997L93.6977 35.6324C93.6502 35.282 93.3651 34.8603 93.1275 34.7771C92.9018 34.6999 92.5454 34.694 92.3494 34.7653C92.1 34.8603 91.8446 35.1751 91.7317 35.5196L91.6307 35.8463L90.1102 35.8106C89.2786 35.7869 88.5718 35.7631 88.5362 35.7572C88.4946 35.7453 88.4827 34.4089 88.4946 31.8667L88.5065 28H90.0211H91.5357V30.7798C91.5357 32.3122 91.5476 33.5773 91.5654 33.5951C91.5832 33.613 91.8089 33.417 92.0643 33.1615C92.3969 32.8289 92.6405 32.6448 92.9078 32.5201C93.9115 32.0508 95.0698 32.1934 95.836 32.8764C96.4834 33.4526 96.7448 34.0881 96.7982 35.2404L96.8398 36.0185L96.6675 36.0066C96.5725 36.0007 96.0023 35.9769 95.3965 35.9532Z" fill="#4E5F6E"/>
<path d="M83.6779 35.662L82.5553 35.6323L82.5494 34.9493L82.5375 34.2662L82.0148 34.2365C81.7297 34.2187 81.498 34.189 81.498 34.1652C81.498 34.1355 81.498 33.7435 81.498 33.2862V32.4546H82.0326H82.5672V31.3083V30.1619L83.9511 29.9125C84.7055 29.7759 85.3885 29.6571 85.4657 29.6452L85.6023 29.6333L85.5964 30.946C85.5964 31.6647 85.6083 32.3002 85.632 32.3537C85.6617 32.4428 85.7865 32.4546 86.6299 32.4546C87.1645 32.4546 87.6099 32.4665 87.6218 32.4784C87.6337 32.4903 87.6396 32.8942 87.6278 33.3693L87.6099 34.2365H86.6418C85.8102 34.2365 85.6617 34.2484 85.632 34.3316C85.6142 34.385 85.5964 34.7176 85.5964 35.074V35.7214L85.1984 35.7096C84.9727 35.7036 84.2897 35.6799 83.6779 35.662Z" fill="#4E5F6E"/>
<path d="M72.9149 52.9289C72.3388 52.7388 71.9587 52.3824 71.7924 51.8894C71.6439 51.4618 71.6439 51.4618 72.1369 51.4618H72.5764L72.6477 51.6697C72.6833 51.7885 72.814 51.9488 72.9328 52.0439C73.1169 52.1864 73.1941 52.2042 73.5742 52.2042C73.9841 52.2042 74.0197 52.1924 74.2157 52.0023C74.4474 51.7766 74.5483 51.4618 74.5483 50.9629V50.6362L74.2989 50.8025C73.9544 51.0282 73.7049 51.1054 73.301 51.1054C72.5883 51.1054 72.024 50.7431 71.7211 50.0838C71.5726 49.7571 71.5488 49.6443 71.5488 49.175C71.5488 48.7236 71.5785 48.587 71.7033 48.3078C72.0002 47.6723 72.517 47.304 73.1882 47.2565C73.6396 47.2268 73.9247 47.304 74.2989 47.5476L74.5483 47.7139V47.5416V47.3634H74.9998H75.4452L75.4274 49.5492C75.4096 51.6222 75.4037 51.741 75.2849 52.0023C75.1186 52.3527 74.78 52.6913 74.4355 52.8457C74.0969 53.0002 73.2654 53.0417 72.9149 52.9289V52.9289ZM74.1266 50.161C74.5305 49.87 74.679 49.0978 74.4296 48.587C74.0732 47.8564 72.9862 47.8327 72.6061 48.5514C72.3507 49.0265 72.4517 49.7868 72.808 50.1076C72.9922 50.2798 73.1941 50.3333 73.5683 50.3154C73.8356 50.3036 73.9841 50.262 74.1266 50.161V50.161Z" fill="#4E5F6E"/>
<path d="M126.254 52.9226C125.689 52.7445 125.297 52.3881 125.131 51.8891C124.983 51.4615 124.983 51.4615 125.476 51.4615C125.885 51.4615 125.921 51.4734 125.963 51.5981C126.087 52.002 126.444 52.2336 126.931 52.2336C127.537 52.2336 127.828 51.8832 127.875 51.0932L127.905 50.624L127.644 50.7963C127.293 51.0279 127.044 51.1051 126.64 51.1051C125.927 51.1051 125.41 50.7725 125.084 50.1073C124.905 49.7449 124.888 49.6677 124.894 49.1747C124.894 48.5867 125 48.2541 125.327 47.8443C125.844 47.1909 126.966 47.0483 127.65 47.5473L127.887 47.7195V47.5413V47.3631H128.339H128.784L128.766 49.5489C128.748 51.509 128.736 51.7525 128.635 51.9782C128.481 52.3406 127.952 52.8039 127.578 52.9167C127.21 53.0236 126.58 53.0296 126.254 52.9226V52.9226ZM127.459 50.1607C127.739 49.9647 127.887 49.6321 127.887 49.2104C127.887 48.7887 127.816 48.5808 127.602 48.3491C127.121 47.8383 126.26 47.9393 125.945 48.5451C125.713 48.9906 125.784 49.7093 126.093 50.0597C126.367 50.3627 127.097 50.4221 127.459 50.1607Z" fill="#4E5F6E"/>
<path d="M28.1125 50.9983C27.6492 50.832 27.3879 50.5944 27.1503 50.1252C26.9602 49.7451 26.9424 49.6738 26.9424 49.1748C26.9424 48.7116 26.9661 48.5868 27.1146 48.2661C27.4413 47.5533 28.0472 47.2148 28.9025 47.2563C29.9241 47.3098 30.524 47.9038 30.5834 48.9254L30.6131 49.3827H29.2291H27.8511L27.8927 49.5787C27.9462 49.8223 28.1778 50.1311 28.3976 50.244C28.4926 50.2915 28.7065 50.3331 28.8787 50.3331C29.2351 50.3331 29.4786 50.2024 29.7043 49.8876C29.7875 49.7747 29.8766 49.6797 29.9003 49.6797C29.9241 49.6797 30.1082 49.7629 30.3042 49.8579C30.6131 50.0183 30.6487 50.0539 30.5953 50.1549C30.4705 50.3865 29.9835 50.8261 29.7162 50.9449C29.3182 51.123 28.5342 51.1468 28.1125 50.9983ZM29.6449 48.5868C29.6449 48.468 29.4192 48.2007 29.2291 48.1057C28.7896 47.88 28.1184 48.1235 27.964 48.569C27.9284 48.664 27.9937 48.67 28.7837 48.67C29.4727 48.67 29.6449 48.6522 29.6449 48.5868Z" fill="#4E5F6E"/>
<path d="M35.0084 50.9923C34.3906 50.7785 33.9036 50.3152 33.7432 49.7687C33.6244 49.3886 33.6541 48.7946 33.8026 48.4382C34.0046 47.975 34.5094 47.5354 35.044 47.3632C35.537 47.2087 36.1547 47.2147 36.5824 47.3929L36.8318 47.4938V48.064V48.6343L36.6121 48.4204C36.0537 47.8799 35.3469 47.8799 34.8539 48.4264C34.3728 48.955 34.5391 49.8935 35.1687 50.2142C35.4241 50.3449 35.8874 50.3746 36.1607 50.2677C36.2498 50.238 36.4398 50.0954 36.5824 49.9588L36.8378 49.7093L36.82 50.3033L36.8021 50.8913L36.4755 50.9982C36.0419 51.1289 35.4004 51.1289 35.0084 50.9923V50.9923Z" fill="#4E5F6E"/>
<path d="M46.3529 51.0221C45.9965 50.9092 45.652 50.6123 45.4917 50.2856C45.3669 50.0242 45.3551 49.9233 45.3372 48.6878L45.3135 47.3633H45.7649H46.2163L46.2222 48.3908C46.2222 49.7035 46.2638 49.947 46.5073 50.1668C46.6499 50.2975 46.7509 50.3331 46.9588 50.3331C47.2973 50.3331 47.4755 50.2499 47.6181 50.0183C47.719 49.852 47.7309 49.6857 47.7487 48.5987L47.7725 47.3633H48.212H48.6516V48.5215C48.6516 49.1511 48.6219 49.8104 48.5862 49.9767C48.5031 50.3687 48.218 50.7311 47.8556 50.9211C47.5052 51.0993 46.7509 51.1528 46.3529 51.0221V51.0221Z" fill="#4E5F6E"/>
<path d="M87.6459 50.9925C87.3786 50.8678 87.1113 50.6243 86.9866 50.3748L86.8975 50.2085L87.2717 50.0422L87.6459 49.87L87.7349 49.9947C87.925 50.2679 88.0319 50.3332 88.2695 50.3332C88.4299 50.3332 88.5487 50.2917 88.6259 50.2144C88.8932 49.9472 88.715 49.7155 87.9963 49.377C87.2241 49.0028 86.9806 48.6226 87.141 48.0524C87.2598 47.6129 87.7587 47.2446 88.2279 47.2446C88.6318 47.2446 88.8219 47.3218 89.1189 47.6069C89.4634 47.9396 89.4515 47.9752 88.9823 48.195L88.6853 48.3375L88.519 48.1772C88.317 47.9811 88.127 47.9693 88.0082 48.1475C87.8656 48.3494 87.9904 48.4801 88.5546 48.7414C89.1605 49.0206 89.4218 49.2047 89.5465 49.4423C89.6653 49.668 89.6594 50.1135 89.5406 50.3689C89.4099 50.6421 89.0357 50.9628 88.7625 51.0401C88.418 51.141 87.9131 51.1173 87.6459 50.9925V50.9925Z" fill="#4E5F6E"/>
<path d="M98.3134 51.04C97.8561 50.9034 97.4819 50.5649 97.2324 50.0541C97.1136 49.8105 97.0898 49.6799 97.0898 49.175C97.0898 48.6345 97.1077 48.5513 97.2621 48.2365C97.7432 47.2921 98.9014 46.9536 99.733 47.5119L100.03 47.7138V47.5357V47.3634H100.505H100.98V49.175V50.9866H100.505C100.036 50.9866 100.03 50.9866 100.03 50.8381V50.6896L99.8102 50.8262C99.6855 50.9034 99.4954 50.9985 99.3825 51.0341C99.145 51.1173 98.5985 51.1173 98.3134 51.04V51.04ZM99.6558 50.1669C100.25 49.7452 100.238 48.6048 99.6439 48.2009C98.9846 47.7554 98.1115 48.1712 97.9808 48.9968C97.9036 49.4779 98.1827 50.0778 98.5688 50.2501C98.842 50.3748 99.4241 50.3332 99.6558 50.1669Z" fill="#4E5F6E"/>
<path d="M56.7173 50.9982L56.3134 50.9804V49.5609V48.1353H56.1352H55.957V47.7552C55.957 47.381 55.963 47.3691 56.1233 47.3513L56.2837 47.3335L56.3015 46.6682L56.3193 45.9971H56.7589H57.1984L57.2162 46.6682L57.2341 47.3335L57.5786 47.3513L57.9171 47.3691V47.7493V48.1353H57.5607H57.2044V49.5549C57.2044 50.3389 57.1865 50.9864 57.1628 50.9982C57.1331 51.0101 56.9371 51.0101 56.7173 50.9982V50.9982Z" fill="#4E5F6E"/>
<path d="M21.8643 49.175V47.3634H22.3097C22.7136 47.3634 22.7552 47.3753 22.7552 47.4822C22.7552 47.6069 22.8443 47.6426 22.9037 47.5416C22.975 47.4228 23.4086 47.2446 23.6224 47.2446C23.9016 47.2446 24.3055 47.3634 24.3411 47.4585C24.3589 47.5 24.2817 47.696 24.1807 47.8861C23.9966 48.2365 23.9906 48.2425 23.8362 48.1593C23.4917 47.9811 23.1056 48.094 22.9096 48.4326C22.7968 48.6167 22.7849 48.7592 22.7611 49.8165L22.7433 50.9866H22.3038H21.8643V49.175V49.175Z" fill="#4E5F6E"/>
<path d="M39.9209 49.1749V47.3633H40.3664C40.7703 47.3633 40.8118 47.3752 40.8118 47.4821C40.8118 47.6068 40.9009 47.6424 40.9603 47.5415C40.9841 47.5058 41.1088 47.4227 41.2454 47.3573C41.4355 47.2564 41.5602 47.2385 41.8156 47.2623C41.9998 47.2801 42.2195 47.3217 42.3086 47.3633L42.469 47.4405L42.2671 47.8444L42.0592 48.2483L41.875 48.1533C41.7562 48.0939 41.6078 48.076 41.4593 48.0939C40.9366 48.1651 40.8594 48.379 40.8237 49.846L40.8 50.9865H40.3604H39.9209V49.1749V49.1749Z" fill="#4E5F6E"/>
<path d="M52.031 50.9627C52.0191 50.9508 52.0131 50.1312 52.025 49.1511L52.0428 47.3633H52.4824H52.9279V49.1749V50.9865H52.4943C52.2507 50.9865 52.0429 50.9746 52.031 50.9627Z" fill="#4E5F6E"/>
<path d="M60.7686 49.1749V47.3633H61.214H61.6595V49.1749V50.9865H61.214H60.7686V49.1749Z" fill="#4E5F6E"/>
<path d="M65.0449 49.1749V47.3633H65.4904C65.8943 47.3633 65.9359 47.3751 65.9359 47.4821C65.9359 47.5474 65.9418 47.6009 65.9537 47.6009C65.9596 47.6009 66.1259 47.5177 66.316 47.4227C66.9753 47.09 67.7593 47.2445 68.1157 47.785L68.282 48.0344L68.2998 49.5134L68.3177 50.9864H67.8722H67.4208V49.7688C67.4208 48.3908 67.3851 48.2067 67.0703 48.076C66.809 47.9691 66.3813 48.0285 66.1972 48.2008C65.9774 48.4086 65.9359 48.664 65.9359 49.8757V50.9864H65.4904H65.0449V49.1749V49.1749Z" fill="#4E5F6E"/>
<path d="M92.7236 49.5609V48.1353H92.5454H92.3672V47.7552C92.3672 47.381 92.3731 47.3691 92.5335 47.3513L92.6939 47.3335L92.7117 46.6682L92.7295 45.9971H93.169H93.6086L93.6264 46.6682L93.6442 47.3335L93.9887 47.3513L94.3273 47.3691V47.7493V48.1353H93.9709H93.6145V49.5609V50.9864H93.169H92.7236V49.5609Z" fill="#4E5F6E"/>
<path d="M104.365 49.5611V48.1356H104.217C104.074 48.1356 104.068 48.1237 104.068 47.7495C104.068 47.3753 104.074 47.3634 104.217 47.3634H104.365V46.4309C104.371 45.1895 104.466 44.9222 104.989 44.6846C105.25 44.5658 105.809 44.5361 106.052 44.6312C106.201 44.6846 106.207 44.7084 106.207 45.1123C106.207 45.4924 106.195 45.528 106.106 45.4924C106.046 45.4687 105.88 45.433 105.731 45.4211C105.31 45.3736 105.286 45.433 105.286 46.4665V47.3337L105.749 47.3515L106.207 47.3693V47.7495V48.1356H105.731H105.256V49.5611V50.9866H104.811H104.365V49.5611V49.5611Z" fill="#4E5F6E"/>
<path d="M109.295 49.5611V48.1356H109.147C109.004 48.1356 108.998 48.1237 108.998 47.7495C108.998 47.3753 109.004 47.3634 109.147 47.3634H109.295V46.4309C109.301 45.1895 109.396 44.9222 109.919 44.6846C110.18 44.5658 110.738 44.5361 110.982 44.6312C111.13 44.6846 111.136 44.7084 111.136 45.1063C111.136 45.5221 111.13 45.528 111.006 45.4805C110.928 45.4568 110.75 45.433 110.602 45.433C110.222 45.433 110.18 45.5399 110.198 46.5318L110.216 47.3337L110.679 47.3515L111.136 47.3693V47.7495V48.1356H110.661H110.186V49.5611V50.9866H109.741H109.295V49.5611V49.5611Z" fill="#4E5F6E"/>
<path d="M114.106 49.1749V47.3633H114.552H114.997V49.1749V50.9865H114.552H114.106V49.1749Z" fill="#4E5F6E"/>
<path d="M118.383 49.1751V47.3635H118.828C119.268 47.3635 119.274 47.3635 119.274 47.5179V47.6664L119.47 47.5238C119.874 47.2209 120.474 47.1556 120.937 47.3694C121.596 47.6664 121.673 47.9099 121.679 49.6502V50.957L121.222 50.9748L120.759 50.9926V49.769C120.759 48.391 120.723 48.2069 120.408 48.0762C120.147 47.9693 119.719 48.0287 119.535 48.201C119.315 48.4089 119.274 48.6643 119.274 49.8759V50.9867H118.828H118.383V49.1751V49.1751Z" fill="#4E5F6E"/>
<path d="M80.9631 50.03C80.5948 49.8756 80.3691 49.5251 80.3691 49.0975C80.3691 48.5451 80.7968 48.1353 81.3789 48.1353C81.9313 48.1353 82.3233 48.4798 82.3708 49.0084C82.4302 49.6083 82.0501 50.0419 81.4502 50.0775C81.2601 50.0835 81.0463 50.0656 80.9631 50.03Z" fill="#4E5F6E"/>
<path d="M52.0789 46.2345C51.877 46.0741 51.8235 45.8187 51.9423 45.5871C52.1324 45.2307 52.5838 45.1654 52.8749 45.4564C53.0946 45.6762 53.1006 45.9257 52.8927 46.1692C52.7679 46.3236 52.6967 46.3533 52.4828 46.3533C52.3225 46.3533 52.1799 46.3117 52.0789 46.2345V46.2345Z" fill="#4E5F6E"/>
<path d="M60.8696 46.2882C60.8162 46.2585 60.7271 46.1456 60.6736 46.0506C60.3944 45.5101 61.1666 45.0171 61.6061 45.4566C61.8259 45.6764 61.8318 45.9258 61.624 46.1694C61.4992 46.3238 61.4279 46.3535 61.226 46.3535C61.0894 46.3535 60.929 46.3238 60.8696 46.2882Z" fill="#4E5F6E"/>
<path d="M114.208 46.2882C114.154 46.2585 114.065 46.1456 114.012 46.0506C113.732 45.5101 114.504 45.0171 114.944 45.4566C115.188 45.7001 115.164 46.0625 114.885 46.2763C114.772 46.3654 114.356 46.3713 114.208 46.2882Z" fill="#4E5F6E"/>
</svg>
