<svg width="150" height="80" viewBox="0 0 150 80" fill="none" xmlns="http://www.w3.org/2000/svg">
<rect width="150" height="80" fill="white"/>
<g clip-path="url(#clip0_1173_28030)">
<path d="M81.9814 52.3032H82.4781V52.9845H81.9814V52.3032Z" fill="#4E5F6E"/>
<path d="M103.119 52.3032H103.615V52.9845H103.119V52.3032Z" fill="#4E5F6E"/>
<path d="M61.3368 47.7134H61.9901V52.9845H61.5422V48.324L59.7786 52.9845H59.14L57.3728 48.324V52.9845H56.9268V47.7134H57.591L59.4685 52.6591L61.3368 47.7134Z" fill="#4E5F6E"/>
<path d="M64.6973 53.0635C63.6047 53.0635 63.1885 52.4541 63.1885 51.6504V50.4517C63.1885 49.6595 63.6047 49.0386 64.6973 49.0386C65.7899 49.0386 66.2091 49.6479 66.2091 50.4517V51.6613C66.2091 52.4529 65.7929 53.0635 64.6973 53.0635ZM65.7442 50.4347C65.7442 49.7875 65.4249 49.4627 64.6973 49.4627C63.9697 49.4627 63.6534 49.7875 63.6534 50.4347V51.6784C63.6534 52.3286 63.9727 52.6534 64.6973 52.6534C65.4218 52.6534 65.7442 52.3316 65.7442 51.6784V50.4347Z" fill="#4E5F6E"/>
<path d="M67.245 50.2377C67.245 49.5338 67.5643 49.0506 68.443 49.0506C68.8457 49.0513 69.2472 49.0938 69.6411 49.1773V47.5497L70.106 47.4888V52.9859H69.6794L69.6563 52.6203C69.2775 52.9028 68.8192 53.0582 68.3467 53.0646C67.5881 53.0646 67.2432 52.691 67.2432 51.9957L67.245 50.2377ZM69.6411 49.5984C69.2433 49.5135 68.8381 49.4686 68.4314 49.4644C67.9208 49.4644 67.7124 49.7185 67.7124 50.2389V51.9963C67.7124 52.4406 67.855 52.652 68.3827 52.652C68.8467 52.6404 69.2923 52.4681 69.6435 52.1645L69.6411 49.5984Z" fill="#4E5F6E"/>
<path d="M72.7418 52.6589C73.1577 52.6494 73.5708 52.588 73.9715 52.4761L74.0513 52.846C73.6186 52.9879 73.1661 53.0605 72.7107 53.0611C71.6138 53.0611 71.2646 52.4956 71.2646 51.6479V50.4517C71.2646 49.6595 71.6242 49.0386 72.7168 49.0386C73.8094 49.0386 74.1433 49.6479 74.1433 50.4517V51.1952H71.7375V51.6784C71.7259 52.3682 71.9654 52.6589 72.7418 52.6589ZM71.7259 50.785H73.6759V50.4347C73.6759 49.7875 73.445 49.4456 72.7174 49.4456C71.9898 49.4456 71.7272 49.7875 71.7272 50.4347L71.7259 50.785Z" fill="#4E5F6E"/>
<path d="M76.9901 49.5025C76.5606 49.706 76.1483 49.944 75.7573 50.2142V52.9844H75.2783V49.1289H75.6945L75.7177 49.7169C76.0926 49.4535 76.4942 49.2301 76.9157 49.0503L76.9901 49.5025Z" fill="#4E5F6E"/>
<path d="M80.1618 52.9844V49.8766C80.1618 49.5939 80.0101 49.4897 79.7395 49.4897C79.2179 49.5409 78.7107 49.6904 78.2447 49.9302V52.9856H77.7822V49.1289H78.1875L78.2216 49.4799C78.7168 49.2385 79.2531 49.0928 79.8023 49.0503C80.4117 49.0503 80.6237 49.3922 80.6237 49.9205V52.9844H80.1618Z" fill="#4E5F6E"/>
<path d="M86.1448 52.5658H88.5408V52.9845H85.6768V47.7134H86.1478L86.1448 52.5658Z" fill="#4E5F6E"/>
<path d="M90.7781 52.6589C91.1939 52.6494 91.6068 52.588 92.0073 52.4761L92.0871 52.846C91.6544 52.988 91.2019 53.0606 90.7465 53.0611C89.6496 53.0611 89.2998 52.4956 89.2998 51.6479V50.4517C89.2998 49.6595 89.6593 49.0386 90.755 49.0386C91.8506 49.0386 92.1669 49.6479 92.1669 50.4517V51.1952H89.7654V51.6784C89.7654 52.3682 90.0036 52.6589 90.7781 52.6589ZM89.7654 50.785H91.7154V50.4347C91.7154 49.7875 91.4814 49.4456 90.7568 49.4456C90.0323 49.4456 89.7672 49.7875 89.7672 50.4347L89.7654 50.785Z" fill="#4E5F6E"/>
<path d="M94.6606 51.8059C94.4864 51.807 94.3125 51.7909 94.1414 51.7578C94.0539 51.8117 93.9806 51.8857 93.9276 51.9737C93.8746 52.0617 93.8435 52.1611 93.8367 52.2636C93.8367 52.4135 93.9251 52.5177 94.1908 52.5463L95.309 52.6341C96.0189 52.6901 96.273 53.0125 96.273 53.5524C96.273 54.3525 95.8739 54.6292 94.6125 54.6292C94.151 54.62 93.6924 54.5555 93.2462 54.4372L93.3175 54.0753C93.7487 54.1715 94.1884 54.2246 94.6301 54.2337C95.6825 54.2337 95.8196 54.0186 95.8196 53.575C95.8196 53.1965 95.66 53.0466 95.195 53.0095C94.7301 52.9723 94.6612 52.9784 94.142 52.9394C93.5717 52.8912 93.3748 52.6 93.3748 52.2581C93.3782 52.1285 93.4133 52.0018 93.477 51.889C93.5408 51.7761 93.6312 51.6807 93.7404 51.6109C93.546 51.4912 93.3893 51.319 93.2883 51.1142C93.1873 50.9094 93.1461 50.6803 93.1695 50.4531V50.4019C93.1695 49.5318 93.5607 49.0485 94.6643 49.0485C94.8849 49.0432 95.1051 49.0697 95.3181 49.1271H96.3876V49.4641L95.9001 49.5037C96.0829 49.7674 96.1722 50.0847 96.1536 50.405V50.4531C96.153 51.3227 95.6819 51.8059 94.6606 51.8059ZM94.6606 49.4458C93.8849 49.4458 93.6137 49.6835 93.6137 50.3898V50.469C93.6137 51.1953 93.9501 51.4098 94.6606 51.4098C95.3711 51.4098 95.7075 51.1661 95.7075 50.469V50.3898C95.7075 49.6914 95.4339 49.4458 94.6606 49.4458Z" fill="#4E5F6E"/>
<path d="M99.9802 52.9844H99.5811L99.5469 52.6846C99.1528 52.9323 98.6968 53.0637 98.2313 53.0636C97.5439 53.0636 97.2246 52.6761 97.2246 51.9869C97.2246 51.1727 97.5982 50.918 98.3654 50.918H99.5092V50.1667C99.5092 49.6377 99.224 49.4628 98.5908 49.4628C98.2073 49.4696 97.8252 49.5121 97.4495 49.5896L97.3782 49.2026C97.7698 49.1033 98.1721 49.0521 98.5762 49.0503C99.5835 49.0503 99.9826 49.4458 99.9826 50.1807L99.9802 52.9844ZM99.5268 51.3312H98.3855C97.8492 51.3312 97.6896 51.489 97.6896 51.9948C97.6896 52.4476 97.7865 52.6505 98.3288 52.6505C98.7553 52.6372 99.1687 52.4997 99.5183 52.255L99.5268 51.3312Z" fill="#4E5F6E"/>
<path d="M101.259 52.9847V47.5497L101.721 47.4888V52.9859L101.259 52.9847Z" fill="#4E5F6E"/>
<path d="M108.253 53.0637C107.742 53.065 107.234 52.9789 106.752 52.809L106.838 52.4305C107.301 52.5691 107.781 52.6413 108.264 52.645C109.174 52.645 109.422 52.3623 109.422 51.7011C109.422 50.887 109.422 50.7999 108.229 50.5311C106.946 50.2484 106.803 50.0083 106.803 48.9467C106.803 48.0985 107.122 47.6323 108.458 47.6323C108.921 47.6351 109.382 47.6966 109.83 47.8151L109.776 48.2112C109.348 48.1138 108.911 48.0607 108.472 48.0528C107.419 48.0528 107.274 48.3045 107.274 48.9632C107.274 49.8108 107.299 49.8559 108.415 50.1332C109.812 50.4805 109.893 50.6816 109.893 51.6761C109.899 52.5408 109.602 53.0637 108.253 53.0637Z" fill="#4E5F6E"/>
<path d="M112.428 52.6589C112.844 52.6488 113.258 52.5874 113.66 52.4761L113.74 52.846C113.307 52.9877 112.855 53.0603 112.399 53.0611C111.307 53.0611 110.953 52.4956 110.953 51.6479V50.4517C110.953 49.6595 111.313 49.0386 112.408 49.0386C113.503 49.0386 113.829 49.6467 113.829 50.4517V51.1952H111.425V51.6784C111.416 52.3682 111.656 52.6589 112.428 52.6589ZM111.415 50.785H113.365V50.4347C113.365 49.7875 113.134 49.4456 112.406 49.4456C111.679 49.4456 111.417 49.7875 111.417 50.4347L111.415 50.785Z" fill="#4E5F6E"/>
<path d="M116.672 49.5025C116.243 49.706 115.832 49.944 115.442 50.2142V52.9844H114.994V49.1289H115.408L115.434 49.7169C115.809 49.4529 116.211 49.2295 116.633 49.0503L116.672 49.5025Z" fill="#4E5F6E"/>
<path d="M119.099 52.9844H118.388L117.07 49.1289H117.541L118.739 52.659L119.946 49.1289H120.414L119.099 52.9844Z" fill="#4E5F6E"/>
<path d="M121.216 48.397V47.5493H121.681V48.397H121.216ZM121.216 52.9782V49.1288H121.681V52.9843L121.216 52.9782Z" fill="#4E5F6E"/>
<path d="M123.267 51.7495C123.267 52.4393 123.552 52.6507 124.274 52.6507C124.552 52.6483 124.829 52.622 125.103 52.5721L125.16 52.9536C124.87 53.0241 124.572 53.0611 124.273 53.0639C123.176 53.0639 122.804 52.566 122.804 51.7354V50.3784C122.804 49.5472 123.177 49.0469 124.273 49.0469C124.573 49.0487 124.872 49.0865 125.164 49.1596L125.107 49.538C124.833 49.4881 124.555 49.4618 124.277 49.4594C123.549 49.4594 123.27 49.6739 123.27 50.3607L123.267 51.7495Z" fill="#4E5F6E"/>
<path d="M127.487 52.6589C127.902 52.6494 128.315 52.588 128.716 52.4761L128.795 52.846C128.363 52.988 127.91 53.0606 127.455 53.0611C126.358 53.0611 126.009 52.4956 126.009 51.6479V50.4517C126.009 49.6595 126.368 49.0386 127.463 49.0386C128.559 49.0386 128.89 49.6479 128.89 50.4517V51.1952H126.488V51.6784C126.474 52.3682 126.713 52.6589 127.487 52.6589ZM126.474 50.785H128.424V50.4347C128.424 49.7875 128.193 49.4456 127.465 49.4456C126.738 49.4456 126.476 49.7875 126.476 50.4347L126.474 50.785Z" fill="#4E5F6E"/>
<path d="M131.058 53.0637C130.669 53.0644 130.283 52.9974 129.917 52.8656L129.997 52.4927C130.333 52.5929 130.682 52.646 131.033 52.6505C131.752 52.6505 131.886 52.5177 131.886 52.0259C131.886 51.461 131.869 51.4165 130.985 51.2124C130.01 50.9833 129.929 50.7456 129.929 50.0394C129.929 49.4007 130.24 49.0503 131.199 49.0503C131.571 49.0486 131.942 49.0941 132.303 49.1856L132.254 49.5732C131.895 49.5055 131.532 49.469 131.167 49.4641C130.487 49.4641 130.39 49.639 130.39 50.0576C130.39 50.589 130.425 50.6426 131.144 50.8261C132.285 51.1088 132.348 51.2928 132.348 52.0131C132.348 52.7334 132.111 53.0637 131.058 53.0637Z" fill="#4E5F6E"/>
<path d="M133.504 52.3032H134.001V52.9845H133.504V52.3032Z" fill="#4E5F6E"/>
<path d="M17 43.1374H18.3498V37.8395H23.5599V36.5952H18.3498V32.4191H23.9444V31.1748H17V43.1374Z" fill="#4E5F6E"/>
<path d="M29.2951 31.1748H27.9453V43.1374H34.5406V41.8931H29.2951V31.1748Z" fill="#4E5F6E"/>
<path d="M39.9439 37.6646H45.0846V36.4203H39.9439V32.4191H45.4691V31.1748H38.5947V43.1374H45.4868V41.8931H39.9439V37.6646Z" fill="#4E5F6E"/>
<path d="M76.738 36.5301C74.3578 35.9359 74.3578 35.9006 74.3578 34.0962C74.3578 32.7556 74.5705 32.2443 76.8215 32.2443C77.6198 32.2443 78.6722 32.3741 79.6368 32.5905L79.805 32.6282L79.9708 31.4467L79.8385 31.4083C78.9927 31.1645 77.7667 31 76.7868 31C74.0324 31 73.0087 31.83 73.0087 34.0615C73.0087 36.4155 73.3085 37.0346 76.2615 37.7135C78.7435 38.2833 78.7435 38.3887 78.7435 40.1461C78.7435 41.4483 78.3882 42.0681 76.3669 42.0681C75.3218 42.0641 74.2828 41.9074 73.2829 41.6031L73.1202 41.5544L72.8594 42.6933L72.988 42.7427C73.913 43.0998 75.1634 43.313 76.3322 43.313C77.8008 43.313 78.7606 43.0394 79.3529 42.452C79.8647 41.9444 80.0933 41.2174 80.0933 40.0943C80.0933 37.7848 79.8446 37.3113 76.738 36.5301Z" fill="#4E5F6E"/>
<path d="M91.5954 39.6738C91.5954 41.2399 90.6162 42.068 88.7643 42.068C86.9124 42.068 85.9337 41.2399 85.9337 39.6738V31.1748H84.584V39.6738C84.584 41.9863 86.1074 43.3123 88.7643 43.3123C91.4212 43.3123 92.9446 41.9863 92.9446 39.6738V31.1748H91.5954V39.6738Z" fill="#4E5F6E"/>
<path d="M99.1349 31.1748H97.7852V43.1374H99.1349V31.1748Z" fill="#4E5F6E"/>
<path d="M107.651 36.5301C105.271 35.9347 105.271 35.9006 105.271 34.0962C105.271 32.7556 105.483 32.2443 107.735 32.2443C108.533 32.2443 109.585 32.3741 110.55 32.5905L110.718 32.6282L110.884 31.4467L110.751 31.4083C109.906 31.1645 108.679 31 107.7 31C104.946 31 103.922 31.83 103.922 34.0615C103.922 36.4155 104.222 37.0346 107.175 37.7135C109.657 38.2832 109.657 38.3887 109.657 40.1461C109.657 41.4483 109.301 42.0681 107.281 42.0681C106.236 42.0639 105.197 41.907 104.197 41.6025L104.034 41.5538L103.774 42.6927L103.902 42.742C104.828 43.0991 106.078 43.3124 107.247 43.3124C108.716 43.3124 109.676 43.0388 110.268 42.4514C110.78 41.9438 111.008 41.2168 111.008 40.0937C111.006 37.7848 110.758 37.3113 107.651 36.5301Z" fill="#4E5F6E"/>
<path d="M119.174 36.5301C116.794 35.9347 116.794 35.9006 116.794 34.0962C116.794 32.7556 117.007 32.2443 119.258 32.2443C120.056 32.2443 121.108 32.3741 122.074 32.5905L122.242 32.6282L122.407 31.4467L122.275 31.4083C121.429 31.1645 120.203 31 119.223 31C116.469 31 115.445 31.83 115.445 34.0615C115.445 36.4155 115.745 37.0346 118.698 37.7135C121.18 38.2833 121.18 38.3887 121.18 40.1461C121.18 41.4483 120.824 42.0681 118.803 42.0681C117.758 42.0641 116.719 41.9074 115.718 41.6031L115.556 41.5544L115.295 42.6933L115.423 42.7427C116.349 43.0998 117.599 43.313 118.768 43.313C120.236 43.313 121.196 43.0394 121.789 42.452C122.3 41.9444 122.529 41.2174 122.529 40.0943C122.529 37.7848 122.281 37.3113 119.174 36.5301Z" fill="#4E5F6E"/>
<path d="M128.457 41.8931V37.6646H133.597V36.4203H128.457V32.4191H133.982V31.1748H127.107V43.1374H133.999V41.8931H128.457Z" fill="#4E5F6E"/>
<path d="M55.6087 35.6867C55.7556 35.5368 55.9024 35.3954 56.0493 35.254L51.7952 31L50.9189 31.8732L55.1736 36.1273C55.3314 35.9804 55.4564 35.8336 55.6087 35.6867Z" fill="#4E5F6E"/>
<path d="M58.067 37.2744L57.6233 37.704L57.1943 38.1476L62.7786 43.7295L63.6464 42.8563L58.067 37.2744Z" fill="#4E5F6E"/>
<path d="M63.6126 32.1256L63.0306 31.0391L62.4761 31.3297C62.3572 31.3907 59.4719 32.9568 56.1684 36.2578C54.4618 37.9515 52.9493 39.8302 51.6591 41.8591L49.6359 39.836L48.7627 40.7092L51.9363 43.878L52.3294 43.1467C52.3434 43.1163 53.868 40.3034 57.0411 37.1298C58.8323 35.3031 60.8552 33.7191 63.058 32.4181L63.6126 32.1256Z" fill="#4E5F6E"/>
</g>
<defs>
<clipPath id="clip0_1173_28030">
<rect width="117" height="23.6291" fill="white" transform="translate(17 31)"/>
</clipPath>
</defs>
</svg>
