<svg width="150" height="80" viewBox="0 0 150 80" fill="none" xmlns="http://www.w3.org/2000/svg">
<rect width="150" height="80" fill="white"/>
<path d="M65.5012 49.1126C64.8505 48.9507 64.2866 48.5211 63.9902 47.9647C63.8745 47.7464 63.8239 47.5 63.8022 47.0493C63.7733 46.4647 63.7806 46.4084 63.9974 45.9788C64.2722 45.4436 64.6698 45.0845 65.2265 44.8802C65.8265 44.6619 66.7881 44.7112 67.3086 44.9859C67.5183 45.0985 67.7352 45.2394 67.8002 45.3098C67.8942 45.4155 67.8798 45.4507 67.6556 45.6619C67.4243 45.8802 67.3954 45.8873 67.2797 45.7816C67.0556 45.5915 66.5134 45.3802 66.2169 45.3802C65.5446 45.3802 64.9084 45.7746 64.6915 46.3309C64.4963 46.8098 64.5686 47.4788 64.8361 47.8591C65.3638 48.5774 66.5567 48.7112 67.2291 48.1197C67.3737 47.9859 67.3809 47.9929 67.6195 48.2324L67.8653 48.4788L67.699 48.6478C67.3158 49.0422 66.1953 49.2816 65.5012 49.1126V49.1126Z" fill="#4E5F6E"/>
<path d="M89.5036 49.1125C88.8674 48.9576 88.2818 48.5069 87.9926 47.9646C87.8769 47.7533 87.8263 47.4998 87.8046 47.0632C87.7757 46.5139 87.7901 46.4153 87.9709 46.0209C88.2167 45.4857 88.6577 45.0914 89.2288 44.8801C89.7855 44.6759 90.776 44.7111 91.2604 44.9505C91.7014 45.1688 92.099 45.5562 92.3304 45.9787C92.4894 46.2745 92.5183 46.4223 92.5256 46.9294C92.5256 47.4435 92.4966 47.5843 92.3231 47.9294C91.9544 48.6618 91.2242 49.1054 90.2988 49.1477C90.0169 49.1688 89.6554 49.1477 89.5036 49.1125ZM90.8917 48.3449C91.7158 47.9294 91.9978 46.9223 91.5134 46.1125C91.0507 45.3378 89.8217 45.1477 89.1204 45.7463C88.7011 46.1054 88.5637 46.4435 88.5999 47.0421C88.6216 47.4716 88.6577 47.5984 88.8384 47.8519C89.1421 48.2745 89.5759 48.4787 90.1542 48.4787C90.4651 48.4787 90.7037 48.4364 90.8917 48.3449V48.3449Z" fill="#4E5F6E"/>
<path d="M104.563 49.0846C104.115 48.9719 103.753 48.7465 103.413 48.3662C103.016 47.9296 102.871 47.4719 102.915 46.7958C102.965 45.9437 103.37 45.3381 104.115 44.9789C104.483 44.8029 104.599 44.7817 105.286 44.7817C106.154 44.7817 106.508 44.9085 107.007 45.3733C107.477 45.8169 107.636 46.2254 107.636 46.9648C107.636 47.5141 107.607 47.6479 107.44 47.9508C107.13 48.5212 106.674 48.8803 106.009 49.0705C105.553 49.2043 105.018 49.2113 104.563 49.0846V49.0846ZM105.994 48.3451C106.775 47.9508 107.086 47.0775 106.725 46.2958C106.529 45.8733 106.399 45.7395 105.973 45.5493C105.365 45.2677 104.715 45.3522 104.209 45.7817C103.826 46.0986 103.667 46.5141 103.71 47.0986C103.746 47.662 104.006 48.0705 104.483 48.317C104.896 48.5282 105.604 48.5423 105.994 48.3451V48.3451Z" fill="#4E5F6E"/>
<path d="M113 49.1126C112.595 49.014 112.313 48.852 111.93 48.4999C111.481 48.0915 111.286 47.6126 111.286 46.9013C111.286 46.4718 111.322 46.3168 111.503 45.9577C111.915 45.1549 112.522 44.8098 113.563 44.7605C114.286 44.7323 114.807 44.8661 115.226 45.1971L115.443 45.3661L115.197 45.6126L114.959 45.8591L114.706 45.6901C114.048 45.2605 113.18 45.2957 112.595 45.7746C112.212 46.0985 112.052 46.507 112.096 47.0985C112.146 47.9436 112.768 48.4788 113.701 48.4788C113.968 48.4788 114.294 48.4295 114.431 48.3802L114.684 48.2746V47.6056V46.9295H115.046H115.407V47.7605C115.407 48.7253 115.4 48.7394 114.749 48.9858C114.308 49.1478 113.412 49.2112 113 49.1126V49.1126Z" fill="#4E5F6E"/>
<path d="M132.339 49.0704C131.941 48.9648 131.565 48.8028 131.5 48.6972C131.479 48.669 131.508 48.5141 131.573 48.3592L131.681 48.0845L132.1 48.2888C132.802 48.6268 133.691 48.6338 134.031 48.3028C134.457 47.8803 134.154 47.5564 133.069 47.2676C132.643 47.1549 132.18 46.993 132.05 46.9155C131.305 46.4718 131.363 45.4296 132.158 44.9789C132.599 44.7254 133.525 44.669 134.175 44.8521C134.768 45.0141 134.804 45.0564 134.667 45.3662C134.609 45.5071 134.551 45.6268 134.544 45.6409C134.53 45.6479 134.349 45.5986 134.146 45.5211C133.394 45.2395 132.455 45.3803 132.353 45.7817C132.238 46.2324 132.455 46.4014 133.554 46.6902C134.32 46.8944 134.631 47.0493 134.826 47.338C134.992 47.5845 134.999 48.1549 134.833 48.4648C134.501 49.0704 133.38 49.3451 132.339 49.0704V49.0704Z" fill="#4E5F6E"/>
<path d="M50.8467 47.2817V45.4508H50.1165H49.3936L49.4152 45.1198L49.4369 44.7817H51.3022H53.1602V45.1127V45.4508H52.4011H51.642V47.2817V49.1127H51.2443H50.8467V47.2817Z" fill="#4E5F6E"/>
<path d="M56.7754 46.9648C56.7754 45.7817 56.7971 44.8099 56.8332 44.8099C56.8621 44.8029 57.5923 44.7958 58.4599 44.7888L60.0287 44.7817V45.1127V45.4508H58.7997H57.5707V46.0141V46.5775H58.6551H59.7395V46.8944V47.2113H58.6551H57.5707V47.8451V48.4789H58.8358H60.101V48.7958V49.1127H58.4382H56.7754V46.9648Z" fill="#4E5F6E"/>
<path d="M71.7402 46.9434V44.7744L72.0873 44.7885C72.2752 44.7955 72.4487 44.8026 72.4849 44.8096C72.5138 44.8096 72.5355 45.211 72.5355 45.6969V46.5772H73.7284H74.9141L74.9357 45.6829L74.9574 44.7885L75.3044 44.7815L75.6442 44.7744V46.9434V49.1124H75.2828H74.9285L74.9068 48.1829L74.8851 47.2462L73.7139 47.2251L72.5355 47.211V48.1617V49.1124H72.1379H71.7402V46.9434V46.9434Z" fill="#4E5F6E"/>
<path d="M79.9102 46.9434V44.7744H80.2355H80.5536L81.7682 46.2392C82.4333 47.042 83.0044 47.6969 83.0406 47.704C83.0695 47.704 83.0912 47.042 83.0912 46.2392V44.7744L83.4382 44.7885C83.6262 44.7955 83.7997 44.8026 83.8359 44.8096C83.8648 44.8096 83.8865 45.7815 83.8865 46.9646V49.1124H83.5394H83.1924L81.9489 47.6265L80.7054 46.1406V47.6265V49.1124H80.3078H79.9102V46.9434Z" fill="#4E5F6E"/>
<path d="M96.4803 46.9508L96.502 44.7817H96.8635H97.2249L97.2466 46.6339L97.2611 48.4789H98.4178H99.5746V48.7958V49.1127H98.0202H96.4658L96.4803 46.9508Z" fill="#4E5F6E"/>
<path d="M119.528 46.9437V44.7817H119.926H120.324V46.9437V49.1127H119.926H119.528V46.9437Z" fill="#4E5F6E"/>
<path d="M124.517 46.9437V44.7817H126.143H127.77V45.1127V45.4508H126.541H125.312V46.0141V46.5775H126.396H127.481V46.8944V47.2113H126.396H125.312V47.8451V48.4789H126.577H127.842V48.7958V49.1127H126.179H124.517V46.9437Z" fill="#4E5F6E"/>
<path d="M66.6432 41.8239C65.3057 41.5422 64.0983 40.6337 63.5055 39.4647C63.1295 38.7182 62.9922 38.0915 62.9922 37.1197C62.9922 35.8661 63.2814 34.9506 63.9537 34.0633C64.8574 32.8802 66.4624 32.2112 68.1614 32.3028C70.7857 32.4506 72.6004 34.2323 72.7305 36.7887C72.8534 39.1408 71.581 41.007 69.3904 41.6901C68.6458 41.9225 67.4023 41.9788 66.6432 41.8239ZM68.3566 40.2323C69.5061 39.9999 70.3953 39.1267 70.6556 37.9788C70.7857 37.4013 70.7134 36.2253 70.5182 35.7323C70.07 34.6056 69.1157 33.9647 67.8722 33.9436C66.1949 33.9225 65.0743 35.0281 64.9659 36.8239C64.8574 38.5704 65.6382 39.8309 67.0408 40.1971C67.5324 40.3239 67.8577 40.3309 68.3566 40.2323Z" fill="#4E5F6E"/>
<path d="M87.8626 41.8237C86.5251 41.5279 85.3395 40.6195 84.7683 39.4645C84.3418 38.5913 84.2189 37.9645 84.2695 36.8307C84.3273 35.3589 84.7177 34.4153 85.6287 33.535C87.371 31.8589 90.6316 31.8589 92.3522 33.542C93.1186 34.2955 93.4945 35.0843 93.6463 36.2462C93.6897 36.5843 93.7042 37.0631 93.6753 37.3167L93.6246 37.7744H89.9375H86.2504L86.2938 38.1124C86.4095 39.0702 87.1469 39.9293 88.1157 40.211C88.6507 40.366 89.5616 40.3448 90.0604 40.1617C90.487 40.0138 91.1304 39.4645 91.2244 39.1829C91.2678 39.0491 91.3256 39.042 92.3522 39.042H93.4294L93.321 39.3096C93.0969 39.8237 92.7354 40.3307 92.3016 40.7251C91.7594 41.2251 91.369 41.4505 90.6388 41.6899C89.9231 41.9223 88.6145 41.9857 87.8626 41.8237V41.8237ZM91.622 36.0491C91.622 35.3448 91.0437 34.542 90.2629 34.1688C89.8002 33.9434 89.7423 33.9364 88.9471 33.9364C88.1807 33.9364 88.0867 33.9505 87.7325 34.1336C87.5228 34.2392 87.2192 34.4575 87.0601 34.6124C86.742 34.9223 86.3878 35.5984 86.301 36.035L86.2576 36.2955H88.9398H91.622V36.0491V36.0491Z" fill="#4E5F6E"/>
<path d="M109.884 41.8169C108.864 41.5774 107.939 40.9507 107.339 40.0915C106.703 39.176 106.442 38.3028 106.442 37.0281C106.442 35.5704 106.876 34.4718 107.816 33.5422C108.741 32.6267 109.84 32.2253 111.214 32.3098C112.32 32.3662 113.094 32.676 113.86 33.3591L114.323 33.7746V33.0986V32.4225H115.299H116.275V37.1056V41.7887H115.299H114.323V41.1197C114.323 40.7535 114.315 40.4507 114.301 40.4507C114.294 40.4507 114.091 40.6267 113.867 40.838C112.884 41.7394 111.25 42.1408 109.884 41.8169V41.8169ZM112.031 40.2042C112.624 40.0563 112.992 39.8521 113.39 39.4648C114.373 38.507 114.605 36.7605 113.918 35.4436C113.376 34.3943 112.089 33.7605 110.918 33.9648C109.58 34.1901 108.669 35.1408 108.459 36.5281C108.112 38.8239 109.963 40.7324 112.031 40.2042Z" fill="#4E5F6E"/>
<path d="M54.2086 41.7464C52.6253 41.4013 51.2516 40.4929 50.3841 39.2182C49.184 37.4647 49.0827 34.8239 50.131 32.9154C50.9552 31.4295 52.3072 30.4295 54.1001 29.9859C54.8882 29.7957 56.3702 29.8028 57.2233 30.014C58.8645 30.4084 60.1875 31.3802 60.8888 32.7042C61.055 33.007 61.1852 33.2746 61.1852 33.2957C61.1852 33.3168 60.6646 33.338 60.0357 33.338H58.8789L58.6114 32.9506C57.9608 31.9929 56.9558 31.507 55.6039 31.507C54.3604 31.507 53.435 31.8521 52.647 32.6267C51.736 33.5211 51.3818 34.5422 51.4396 36.1126C51.4758 36.9225 51.5047 37.1056 51.7071 37.6337C52.3578 39.3591 53.9194 40.3309 55.8714 40.2182C57.1149 40.1478 58.1993 39.5492 58.691 38.669L58.8355 38.4084H60.0067C60.6574 38.4084 61.1852 38.4225 61.1852 38.4436C61.1852 38.5633 60.7153 39.3521 60.4188 39.7394C59.7537 40.6056 58.6476 41.3098 57.4258 41.6549C56.6956 41.8591 54.9532 41.9084 54.2086 41.7464V41.7464Z" fill="#4E5F6E"/>
<path d="M77.2421 41.6336C77.206 41.5421 76.3963 39.4576 75.4347 36.9928C74.4804 34.535 73.6924 32.4998 73.6924 32.4717C73.6924 32.4435 74.1551 32.4224 74.7262 32.4224H75.7528L77.0975 36.2111C77.8422 38.2886 78.4712 39.9857 78.5073 39.9787C78.5362 39.9717 79.1652 38.2674 79.9027 36.197L81.2474 32.4224H82.2884C83.0837 32.4224 83.315 32.4435 83.2861 32.5069C83.2717 32.5562 82.4475 34.6688 81.457 37.19L79.6568 41.7886H78.4784C77.3289 41.7886 77.3 41.7886 77.2421 41.6336V41.6336Z" fill="#4E5F6E"/>
<path d="M95.6709 37.1054V32.4223H96.6469H97.6229V32.9505C97.6229 33.2392 97.6374 33.4786 97.6518 33.4786C97.6663 33.4786 97.8036 33.3659 97.9555 33.2251C98.5844 32.6617 99.3652 32.3589 100.334 32.3026C102.286 32.1899 103.732 33.1265 104.318 34.8871C104.433 35.2321 104.448 35.6336 104.477 38.535L104.498 41.7885H103.522H102.539V38.873C102.539 36.1617 102.532 35.9293 102.394 35.5068C102.192 34.8519 101.852 34.4505 101.267 34.1758C100.833 33.9645 100.717 33.9434 100.161 33.9434C98.9098 33.9364 98.2157 34.3941 97.8036 35.4857C97.6807 35.8026 97.6663 36.1336 97.6374 38.8167L97.6084 41.7885H96.6397H95.6709V37.1054V37.1054Z" fill="#4E5F6E"/>
<path d="M118.95 37.1057V32.4226H119.926H120.902V32.9578V33.493L121.228 33.2113C122.392 32.2184 124.257 31.993 125.724 32.6832C126.267 32.9367 127.033 33.6691 127.286 34.1832C127.713 35.0494 127.72 35.1409 127.756 38.6057L127.778 41.7888H126.802H125.818V38.9719C125.818 37.162 125.789 36.0282 125.739 35.7888C125.63 35.2958 125.428 34.9156 125.103 34.5846C124.777 34.2465 124.459 34.0846 123.903 33.9719C122.695 33.7325 121.531 34.3029 121.112 35.3451C120.946 35.7606 120.938 35.8029 120.917 38.7818L120.895 41.7888H119.919H118.95V37.1057V37.1057Z" fill="#4E5F6E"/>
<path d="M132.563 41.7184C131.732 41.5564 131.095 41.0705 130.835 40.3944C130.712 40.0986 130.698 39.7465 130.676 37.0212L130.654 33.9719H130.083H129.505V33.1972V32.4226H130.083H130.662V31.2606V30.0986H131.638H132.614V31.2606V32.4226H133.807H134.999V33.1972V33.9719H133.807H132.614V36.7184C132.614 39.7747 132.621 39.8522 133.062 40.0705C133.228 40.155 133.546 40.1972 134.146 40.2254L134.999 40.2606V41.0212V41.7888L133.937 41.7817C133.344 41.7747 132.729 41.7465 132.563 41.7184V41.7184Z" fill="#4E5F6E"/>
<path d="M27.8203 51.9226C27.4227 51.8944 26.7648 51.8029 26.3599 51.7254C25.9623 51.6409 25.608 51.5775 25.5863 51.5775C25.5647 51.5775 25.543 51.5494 25.543 51.5071C25.543 51.4719 25.6153 51.4367 25.7093 51.4367C25.796 51.4367 26.1792 51.3592 26.5551 51.2606C28.377 50.7818 29.794 50.0212 31.0375 48.8451C31.5219 48.3804 31.746 48.2184 32.0858 48.0916C33.3148 47.6409 34.3776 46.9719 35.3175 46.0705C35.932 45.4789 36.7417 44.4719 36.9514 44.0634L37.067 43.8311H38.9684H40.8698L40.718 44.2043C40.4433 44.8733 39.7854 46.0423 39.2938 46.7113C37.4213 49.2747 34.5439 51.0987 31.4351 51.7113C30.7772 51.8381 29.071 52.0142 28.6951 51.993C28.6083 51.986 28.2179 51.9578 27.8203 51.9226V51.9226Z" fill="#4E5F6E"/>
<path d="M23.2654 48.8522C22.3183 48.7466 21.5086 48.5142 20.735 48.141C18.5878 47.1057 16.8744 44.7184 16.2888 41.9719C15.6743 39.0494 16.202 35.8945 17.7347 33.2959C20.482 28.641 26.0054 26.2184 31.4349 27.2888C35.1292 28.0142 38.4404 30.4367 40.1755 33.6903C40.3924 34.0987 40.6382 34.5987 40.7178 34.8029L40.8696 35.1691H38.9899H37.1174L36.9945 34.9438C36.9294 34.817 36.727 34.5072 36.5462 34.2536C35.0859 32.2536 32.8953 30.9015 30.43 30.486C29.6058 30.3522 28.0586 30.3522 27.2345 30.486C25.2535 30.8241 23.41 31.7959 22.0147 33.2255C20.735 34.5494 19.8964 36.1762 19.571 37.986C19.3975 38.979 19.4626 40.8029 19.7084 41.7184C20.3085 43.9649 21.711 45.3241 23.5835 45.4931C24.6246 45.5846 25.7958 45.141 26.5115 44.3874C27.3718 43.486 27.502 43.0142 27.5453 40.655C27.5598 39.6691 27.5526 38.8029 27.5236 38.7395C27.4875 38.6339 27.314 38.6198 25.8608 38.6198H24.2414V36.9649V35.31H29.2298H34.2183V36.9649V38.6198H32.5989H30.9794L30.9433 41.0001C30.9071 43.6057 30.8565 43.9719 30.4444 44.9508C29.8299 46.3874 28.5719 47.5917 26.9525 48.2818C25.9404 48.7184 24.2848 48.9719 23.2654 48.8522V48.8522Z" fill="#4E5F6E"/>
</svg>
