<svg width="150" height="80" viewBox="0 0 150 80" fill="none" xmlns="http://www.w3.org/2000/svg">
<rect width="150" height="80" fill="white"/>
<path d="M32.7702 55.1124C30.2811 53.9932 30.4431 50.2673 33.0199 49.4131C33.889 49.1333 34.9934 49.2069 35.6862 49.6046C36.2751 49.958 36.3342 50.1642 35.8777 50.4587C35.5385 50.6796 35.4947 50.6796 35.1259 50.444C34.6399 50.1347 33.7717 50.1347 33.1532 50.444C32.1069 50.9889 31.8277 52.8003 32.6377 53.7723C33.3 54.5529 34.6104 54.6707 35.347 53.9932C35.5681 53.7871 35.6415 53.8018 35.995 54.0815C36.3342 54.3467 36.3637 54.4203 36.2017 54.6264C35.5976 55.3481 33.8299 55.5984 32.7702 55.1124Z" fill="#4E5F6E"/>
<path d="M53.8291 55.1124C52.7246 54.597 52.1357 53.6103 52.1357 52.2554C52.1357 50.061 54.1827 48.6914 56.3764 49.4131C58.9836 50.282 59.0713 54.0963 56.5241 55.1713C55.7874 55.4659 54.5505 55.4512 53.8291 55.1124ZM56.3468 54.1257C57.2016 53.5661 57.4809 52.4027 57.0244 51.3718C56.6127 50.4292 55.6845 49.9874 54.6982 50.2672C53.5928 50.5618 53.0039 51.7252 53.3136 52.9181C53.5051 53.5808 54.1532 54.3024 54.683 54.4055C55.169 54.5086 55.9647 54.3761 56.3468 54.1257Z" fill="#4E5F6E"/>
<path d="M66.6268 55.039C65.4194 54.4794 64.8448 53.3602 64.9925 51.8875C65.1688 50.2232 66.2885 49.2954 68.1143 49.2808C69.3074 49.2808 70.1174 49.6489 70.6616 50.4442C72.5474 53.1982 69.6905 56.4675 66.6268 55.039ZM68.6594 54.3616C69.3074 54.1701 69.9107 53.5074 70.0432 52.8153C70.4558 50.6357 68.1287 49.2808 66.642 50.8271C66.2437 51.2541 66.1999 51.3867 66.1999 52.2998C66.1999 53.1687 66.2437 53.3602 66.5677 53.6988C66.907 54.0817 67.6427 54.4941 67.9667 54.5088C68.0553 54.5088 68.3649 54.4352 68.6594 54.3616Z" fill="#4E5F6E"/>
<path d="M74.5796 55.0537C73.3722 54.4794 72.7976 53.36 72.9444 51.9021C73.0482 50.9006 73.4895 50.1937 74.2995 49.7225C75.1542 49.2071 76.1701 49.104 77.2307 49.4132C78.1732 49.6931 78.3791 49.9729 77.9521 50.4146C77.6577 50.6945 77.6424 50.6945 77.1564 50.4441C76.5236 50.1201 75.5364 50.1201 75.0361 50.4441C73.7544 51.2835 73.7696 53.3159 75.0504 54.17C75.4926 54.4499 76.9353 54.5088 77.186 54.2584C77.2746 54.17 77.3184 53.8166 77.2889 53.4631C77.245 52.8299 77.2307 52.8151 76.6561 52.7416C76.0815 52.6679 76.052 52.6237 76.111 52.0493C76.1406 51.9168 76.4645 51.8579 77.245 51.8579H78.3495V53.4042V54.9506L77.9521 55.1273C77.7167 55.2157 77.0392 55.304 76.435 55.3483C75.4926 55.3924 75.2276 55.3629 74.5796 55.0537Z" fill="#4E5F6E"/>
<path d="M20.8988 55.0976C20.8836 55.024 20.8541 53.9636 20.8397 52.7413C20.8245 51.5336 20.7958 50.4733 20.7806 50.3849C20.7806 50.3114 20.3681 50.2377 19.8677 50.2377C18.9843 50.2377 18.9843 50.2377 19.0282 49.84L19.072 49.4277L21.3991 49.3835L23.711 49.3394V49.7959V50.2377H22.8276H21.9442V52.7413V55.2449H21.4286C21.1485 55.2449 20.8988 55.186 20.8988 55.0976Z" fill="#4E5F6E"/>
<path d="M25.332 52.2994V49.354H27.2465H29.161V49.7958V50.2377H27.762H26.3631V50.974V51.7104H27.6887H29.0142V52.1522V52.5793L27.7325 52.6234L26.4365 52.6676L26.3926 53.5217L26.3488 54.3612H27.8354H29.3087V54.803V55.2449H27.3208H25.332V52.2994Z" fill="#4E5F6E"/>
<path d="M37.998 52.2994V49.354H38.5136H39.0282V50.5321V51.7104H40.3538H41.665L41.7089 50.5764L41.7527 49.4277H42.2683H42.7838V52.2994V55.1712L42.2388 55.2154L41.6794 55.2595V53.9194V52.5793L40.3985 52.6234L39.1025 52.6676L39.0578 53.9636L39.0139 55.2449H38.5136H37.998V52.2994Z" fill="#4E5F6E"/>
<path d="M44.9789 55.0534C44.9493 54.9503 44.9341 53.6396 44.9494 52.1522L44.9932 49.4277L45.686 49.3835L46.3626 49.3394L47.6443 51.4012C48.3514 52.5498 48.9698 53.4776 49.0289 53.4776C49.0728 53.4776 49.1166 52.6382 49.1166 51.6073C49.1023 50.5617 49.1318 49.6339 49.1614 49.5455C49.1909 49.4425 49.4406 49.354 49.7208 49.354H50.2211V52.2995V55.2449H49.5149H48.8078L47.4966 53.08L46.1719 50.9152L46.1272 53.08L46.0833 55.2449H45.5678C45.2877 55.2449 45.0227 55.1565 44.9789 55.0534Z" fill="#4E5F6E"/>
<path d="M60.3828 52.2994V49.354H60.8983H61.4139V51.8576V54.3612H62.6804H63.9325L63.8878 54.7735L63.8439 55.1712L62.121 55.2154L60.3828 55.2595V52.2994Z" fill="#4E5F6E"/>
<path d="M81.5888 54.0372V52.8148L80.4844 51.1655C79.8802 50.2524 79.3799 49.4719 79.3799 49.4277C79.3799 49.3688 79.6601 49.354 79.9984 49.3835C80.6025 49.4277 80.6321 49.4571 81.2944 50.5617C81.6623 51.1949 82.0014 51.7104 82.0605 51.7104C82.1044 51.7104 82.4579 51.1801 82.841 50.5321C83.5185 49.3835 83.5472 49.354 84.1075 49.354C84.4163 49.354 84.6812 49.3835 84.6812 49.4277C84.6812 49.4719 84.2104 50.2229 83.6215 51.0918L82.5609 52.6676L82.5465 53.9194V55.1712L82.0605 55.2154L81.5888 55.2595V54.0372Z" fill="#4E5F6E"/>
<path d="M89.9544 52.7854L89.9097 50.3114L88.9824 50.2671C88.0686 50.2229 88.0543 50.2229 88.0982 49.8254L88.1429 49.4277L90.47 49.3835L92.7818 49.3394V49.7959V50.2377H91.8984H91.0142V52.7413V55.2449H90.4986H89.984L89.9544 52.7854Z" fill="#4E5F6E"/>
<path d="M93.2246 55.1859C93.2246 55.1418 93.784 53.8311 94.4616 52.27L95.6985 49.4277H96.1845H96.6705L97.8931 52.2848C98.5707 53.8458 99.1148 55.1565 99.1148 55.1859C99.1148 55.2154 98.8499 55.2448 98.5411 55.2448C97.996 55.2448 97.9522 55.2007 97.6864 54.5822L97.4215 53.9195H96.1406H94.8742L94.6084 54.5822C94.373 55.2154 94.3291 55.2448 93.7983 55.2448C93.4743 55.2448 93.2246 55.2154 93.2246 55.1859ZM96.9059 52.8591C96.9059 52.5646 96.2579 50.8268 96.155 50.8268C96.0664 50.8268 95.2859 52.7708 95.2859 52.9769C95.2859 53.0064 95.6546 53.0358 96.0959 53.0358C96.641 53.0358 96.9059 52.9769 96.9059 52.8591Z" fill="#4E5F6E"/>
<path d="M100.587 52.2994V49.354H101.102H101.618L101.648 51.8282L101.691 54.2875L102.914 54.3317L104.121 54.376V54.803V55.2449H102.355H100.587V52.2994Z" fill="#4E5F6E"/>
<path d="M105.844 55.1417C105.8 55.0386 105.815 49.8989 105.874 49.5013C105.888 49.4129 106.639 49.354 107.803 49.354H109.717V49.7958V50.2229L108.289 50.2671L106.846 50.3112L106.801 51.0035L106.757 51.6956L108.127 51.7398C109.496 51.7839 109.496 51.7839 109.541 52.1816L109.585 52.5793L108.215 52.6234L106.846 52.6676V53.4776V54.2875L108.362 54.3317L109.865 54.376V54.803V55.2449H107.891C106.801 55.2449 105.874 55.2006 105.844 55.1417Z" fill="#4E5F6E"/>
<path d="M111.779 52.2847V49.3394L112.486 49.3835L113.178 49.4277L114.504 51.5484L115.829 53.6838L115.873 51.5189L115.918 49.354H116.418H116.934V52.3142V55.2596L116.242 55.2154L115.549 55.1712L114.695 53.7722C114.225 53.0064 113.62 52.0049 113.355 51.5632L112.884 50.7532L112.84 53.0064L112.796 55.2449H112.295H111.779V52.2847Z" fill="#4E5F6E"/>
<path d="M120.321 52.7413V50.2377H119.438H118.555V49.7958V49.354H120.837H123.119V49.7958C123.119 50.2082 123.105 50.2229 122.28 50.2671L121.426 50.3112L121.382 52.7854L121.353 55.2449H120.837H120.321V52.7413Z" fill="#4E5F6E"/>
<path d="M19.1029 46.3058C19.0438 46.2617 19 45.9524 19 45.6432V45.0835H71.0598H123.12V45.7463V46.409H71.1636C42.5779 46.409 19.1477 46.3647 19.1029 46.3058Z" fill="#4E5F6E"/>
<path d="M21.8444 41.7551C21.4909 41.5489 21.2107 41.328 21.2107 41.2396C21.2107 40.9745 20.6809 41.1218 20.1206 41.5489C19.0018 42.403 19.0752 42.8301 19.0752 34.9953V28H20.4008H21.7263L21.6825 31.1222C21.6377 34.1706 21.6377 34.2443 21.9026 33.8909C22.4924 33.0514 23.5522 32.6243 24.5689 32.8011C26.6007 33.1545 27.8376 35.1868 27.6461 37.8524C27.5583 39.222 27.1753 40.2087 26.3948 41.0187C25.5991 41.8434 24.8777 42.138 23.5674 42.138C22.6392 42.138 22.3591 42.079 21.8444 41.7551ZM24.0382 41.004C24.6128 40.3854 24.8929 39.2367 24.8929 37.44C24.8929 35.5991 24.7157 34.8775 24.1563 34.3032C23.6846 33.8466 23.3025 33.7877 22.6983 34.1117C21.9769 34.4799 21.7406 35.2162 21.6825 37.278C21.6082 39.3693 21.7997 40.4591 22.3152 41.0187C22.8012 41.5489 23.5226 41.5341 24.0382 41.004Z" fill="#4E5F6E"/>
<path d="M31.8105 42.0057C30.6621 41.6375 29.7931 40.8423 29.2928 39.7083C29.0278 39.1192 28.9688 38.7068 28.9688 37.5728C28.9688 35.732 29.3223 34.76 30.3381 33.847C31.192 33.0811 32.0763 32.7866 33.4305 32.8013C35.6546 32.8455 36.965 34.2593 36.965 36.6304V37.5728H34.2996H31.6189L31.7227 38.3387C31.9143 39.782 32.5623 40.6803 33.5925 40.9601C34.2557 41.1368 35.3154 40.9453 36.0225 40.5183C36.5971 40.1501 36.7001 40.2532 36.4647 40.9306C36.1702 41.7553 35.4631 42.0646 33.6516 42.0941C32.8416 42.1088 32.0172 42.0793 31.8105 42.0057ZM34.4472 35.9971C34.4177 33.7291 32.974 32.7866 32.1497 34.4802C31.9724 34.8483 31.7809 35.4963 31.7227 35.9235L31.6189 36.6892H33.0483H34.4615L34.4472 35.9971Z" fill="#4E5F6E"/>
<path d="M51.3402 41.8435C49.3372 41.063 48.2623 38.4563 48.9541 36.0558C49.7641 33.2724 53.1071 31.9764 56.1412 33.2871L56.8331 33.5817L56.5681 34.2886C56.4061 34.6715 56.2441 35.1133 56.2003 35.2606C56.0678 35.6729 55.6991 35.5404 55.5228 34.9955C55.0072 33.4344 52.9898 33.3019 52.1503 34.7746C51.7529 35.4815 51.487 37.1897 51.6052 38.206C51.7377 39.178 52.2093 40.1793 52.7392 40.5622C53.6226 41.1956 55.0215 41.1808 55.8763 40.5033C56.3918 40.1058 56.4652 40.1941 56.2441 40.9305C56.0965 41.4459 55.964 41.5785 55.3607 41.8288C54.4031 42.2411 52.3856 42.2559 51.3402 41.8435Z" fill="#4E5F6E"/>
<path d="M84.2696 41.8431C83.5625 41.4013 83.209 40.7385 83.209 39.7813C83.209 38.2792 83.8427 37.7048 86.2136 37.0421C88.1872 36.4972 88.5255 36.0996 87.9956 35.0687C87.421 33.9642 85.536 33.9052 84.4459 34.9361C84.0932 35.2749 84.0342 35.216 83.8865 34.5238C83.7836 34.0967 83.8274 34.0231 84.343 33.6843C86.2136 32.4473 89.1591 32.5209 90.0864 33.8316C90.6467 34.6269 90.764 35.4074 90.661 38.014C90.5581 40.665 90.6315 41.092 91.2947 41.254C92.2811 41.4896 91.309 42.1376 89.9692 42.1376C89.3059 42.1376 89.1592 42.0788 88.7027 41.6222L88.2015 41.1215L87.5391 41.6222C86.9207 42.0934 86.7882 42.1376 85.8162 42.1376C85.0205 42.1376 84.6375 42.064 84.2696 41.8431ZM87.5096 40.7975C87.9804 40.5471 88.2167 39.7518 88.2167 38.4559C88.2167 37.101 88.2757 37.1305 86.935 37.749C85.963 38.2055 85.5361 39.1628 85.8601 40.1495C86.1107 40.9153 86.7882 41.1804 87.5096 40.7975Z" fill="#4E5F6E"/>
<path d="M38.6592 37.528V33.051H39.9552H41.236V33.6401V34.2144L41.8992 33.6253C43.5192 32.1968 45.9492 32.5944 46.7002 34.4059C46.8326 34.7151 46.8917 35.9522 46.8917 38.4116L46.906 41.9903H45.5661H44.2406L44.2997 39.1333C44.3731 35.908 44.314 35.3336 43.8137 34.833C43.3277 34.347 42.3852 34.347 41.8992 34.833C41.3103 35.422 41.1921 36.2172 41.2655 39.2363L41.3246 41.9903H39.9847H38.6592V37.528Z" fill="#4E5F6E"/>
<path d="M57.9531 34.9953V28H59.3073H60.6481L60.5738 31.1663L60.486 34.3179L61.1636 33.6846C62.7093 32.1972 65.2423 32.5654 65.9932 34.4062C66.1266 34.7155 66.1847 35.9526 66.1847 38.412L66.2 41.9907H64.8744H63.5345L63.5927 39.1189C63.667 35.8789 63.608 35.334 63.1067 34.8333C62.6207 34.3473 61.6782 34.3473 61.1922 34.8333C60.6033 35.4224 60.4861 36.2029 60.5595 39.2367L60.6328 41.9907H59.293H57.9531V34.9953Z" fill="#4E5F6E"/>
<path d="M68.2617 37.5287V33.0516H69.5577H70.8394V33.6407V34.2151L71.5017 33.626C72.9741 32.33 74.9333 32.5509 75.8167 34.112C75.9644 34.3918 75.9939 34.3918 76.5381 33.8764C77.5549 32.9044 78.4383 32.6246 79.6314 32.8602C80.5881 33.0664 81.2953 33.6849 81.5602 34.5832C81.6783 34.9662 81.7374 36.3358 81.7374 38.589V41.991H80.3966H79.0711L79.1749 39.3695C79.2921 36.3063 79.2044 35.5258 78.7032 34.922C77.9523 34.0383 76.5829 34.4802 76.3618 35.6878C76.3027 35.9675 76.2884 37.4992 76.318 39.0897L76.3618 41.991H75.0363H73.6964L73.7107 38.692C73.7107 35.5552 73.6964 35.3638 73.4019 34.9662C72.9893 34.4065 72.0021 34.3034 71.5017 34.7747C70.9271 35.3196 70.8099 36.1149 70.868 39.1634L70.9128 41.991H69.5873H68.2617V37.5287Z" fill="#4E5F6E"/>
<path d="M93.2242 41.9166C93.2242 41.8725 93.2242 39.8695 93.2242 37.4691L93.209 33.0804L94.4755 33.0657L95.7572 33.0362L95.6981 34.0671C95.6685 34.8035 95.6981 35.0244 95.8011 34.8477C96.6111 33.478 97.1856 33.0068 98.1872 32.889C98.7904 32.8301 98.8647 32.8448 98.7761 33.0657C98.7171 33.213 98.6732 33.8168 98.6732 34.4058V35.4956L97.8927 35.4073C96.8169 35.3041 96.2727 35.584 95.9487 36.4676C95.7276 37.0419 95.6981 37.4396 95.8011 39.5603L95.904 41.9902H94.5641C93.8275 41.9902 93.2242 41.9608 93.2242 41.9166Z" fill="#4E5F6E"/>
<path d="M100.338 34.9953V28H101.648H102.944V32.5948V37.2044L103.343 36.792C103.563 36.5711 104.344 35.6433 105.08 34.7302L106.421 33.0808L107.333 33.0661C107.834 33.0514 108.246 33.0955 108.246 33.1397C108.246 33.1986 107.555 33.9203 106.7 34.7744C105.846 35.6286 105.153 36.3649 105.153 36.4091C105.153 36.468 105.89 37.7198 106.773 39.1778C107.672 40.6505 108.393 41.8729 108.393 41.917C108.393 41.9612 107.745 41.9907 106.95 41.9907H105.507L104.874 40.8566C103.813 38.9716 103.033 37.7198 102.9 37.7198C102.841 37.7198 102.797 38.6624 102.812 39.8258L102.827 41.917L101.59 41.9612L100.338 42.0054V34.9953Z" fill="#4E5F6E"/>
<path d="M111.266 36.1736V30.3564H112.591H113.917V36.1736V41.9907H112.591H111.266V36.1736Z" fill="#4E5F6E"/>
<path d="M119.363 36.8069V31.6082L118.185 31.6525C117.537 31.6671 116.859 31.726 116.682 31.7702C116.373 31.8291 116.344 31.7849 116.344 31.0928V30.3564H120.673H125.003V31.0928C125.018 31.7702 124.988 31.8291 124.694 31.7555C124.517 31.726 123.84 31.6671 123.192 31.6525L122.014 31.6082L122.028 36.8069L122.043 41.9907H120.703H119.363V36.8069Z" fill="#4E5F6E"/>
<path d="M126.875 41.2983C127.111 40.9006 127.847 39.6783 128.54 38.5591L129.791 36.5268L128.216 34.9362C127.361 34.0673 126.655 33.3015 126.655 33.2426C126.655 33.1984 127.066 33.1543 127.582 33.1543L128.495 33.169L129.084 33.9348C129.408 34.3619 130.189 35.3191 130.837 36.0849L132 37.484L131.735 37.9258C131.588 38.1762 131.014 39.1924 130.439 40.1937L129.408 41.9904H127.95H126.478L126.875 41.2983Z" fill="#4E5F6E"/>
</svg>
