<svg width="150" height="80" viewBox="0 0 150 80" fill="none" xmlns="http://www.w3.org/2000/svg">
<rect width="150" height="80" fill="white"/>
<g clip-path="url(#clip0_1171_27714)">
<path d="M22.4458 33.375H34.5948V34.2667L33.8703 35.0469C30.9309 38.7152 28.0512 42.431 25.2323 46.1927H32.5885C32.8672 46.1927 33.1458 46.1927 33.2573 46.0812C33.4245 46.0255 33.5359 45.9141 33.5917 45.7469L33.6474 45.1896V44.5208H34.5391V47.3073H30.2479C27.5729 47.2917 24.8979 47.2917 22.2229 47.3073L22 46.75L22.2786 46.4156L23.0589 45.4125C23.974 44.2791 24.8658 43.1272 25.7339 41.9573C27.725 39.4669 29.6942 36.959 31.6411 34.4339H24.3964C24.062 34.4339 23.8391 34.4339 23.7276 34.5453C23.656 34.5669 23.5895 34.6028 23.5321 34.6506C23.4746 34.6985 23.4274 34.7575 23.3932 34.824L23.2818 35.3813V36.1615H22.4458V33.375ZM53.5427 47.3073H49.6417C47.8583 47.3073 46.5766 46.9172 45.6292 46.0255C45.163 45.5713 44.7979 45.0238 44.5578 44.4187C44.3178 43.8137 44.2081 43.1649 44.2359 42.5146V37.2203C44.2105 36.4382 44.1548 35.6574 44.0687 34.8797C43.9573 34.6568 43.7901 34.4896 43.6229 34.3781C43.4 34.2667 43.1214 34.2109 42.7313 34.2109H42.6198V33.375H53.5984V34.4896H47.6354C47.301 34.4896 47.0781 34.601 46.9109 34.7125C46.7466 34.8609 46.6302 35.0549 46.5766 35.2698C46.4986 36.011 46.4428 36.7544 46.4094 37.499V39.5052H51.425V40.3411H46.4094V43.1276C46.4094 43.7406 46.4651 44.2422 46.688 44.688C46.8513 45.0725 47.0989 45.4153 47.4125 45.6911L48.4714 46.2484L49.5859 46.3599H53.487V47.3073H53.5427ZM65.4688 43.5177C65.5105 44.3007 65.5849 45.0816 65.6917 45.8583C65.7474 46.0812 65.9146 46.2484 66.1932 46.3599L67.1406 46.4714V47.3073H61.5677V46.5271H61.7349C62.125 46.5271 62.4036 46.4156 62.6266 46.3599C62.7938 46.2484 62.9609 46.0812 63.0724 45.8026C63.1762 45.0255 63.2506 44.2447 63.2953 43.462V38.2792C63.2953 36.7745 63.7411 35.5484 64.6885 34.7125C65.5802 33.8208 66.9177 33.375 68.701 33.375C69.537 33.375 70.3172 33.4865 70.9302 33.7094C71.599 33.988 72.1563 34.2667 72.6021 34.7125C73.0479 35.1583 73.438 35.6599 73.6609 36.2172C73.8839 36.8302 73.9953 37.499 73.9953 38.2792V43.5177C74.0413 44.3004 74.1156 45.0811 74.2182 45.8583C74.3297 46.0812 74.4411 46.2484 74.6641 46.3599L75.5 46.4714H75.7229V47.3073H70.2057V46.4714C70.5958 46.4714 70.9302 46.4714 71.1531 46.3599C71.376 46.2484 71.5432 46.0812 71.7104 45.8026L71.8219 44.9109L71.8776 43.5177V37.7219C71.8776 37.1089 71.7661 36.6073 71.599 36.1615C71.436 35.7755 71.1847 35.4333 70.8653 35.1622C70.5458 34.8912 70.1672 34.699 69.7599 34.601L68.6453 34.4896C68.2518 34.4674 67.8572 34.505 67.475 34.601C67.0849 34.7125 66.7505 34.9354 66.4161 35.1583C66.1375 35.3813 65.8589 35.7156 65.6917 36.1615C65.4688 36.5516 65.413 37.1089 65.413 37.7219V43.5177H65.4688Z" fill="#4E5F6E"/>
<path d="M87.3141 43.5177C87.3562 44.3006 87.4305 45.0815 87.537 45.8583C87.6484 46.0812 87.7599 46.2484 87.9828 46.3599L88.8187 46.4714H88.9859V47.3073H83.5245V46.4714C83.9146 46.4714 84.249 46.4714 84.4719 46.3599C84.6948 46.2484 84.862 46.0812 84.9734 45.8026C85.079 45.0257 85.1533 44.2448 85.1964 43.462V37.276C85.1534 36.4932 85.079 35.7123 84.9734 34.9354C84.862 34.7125 84.7505 34.5453 84.5276 34.4339C84.3604 34.3224 84.026 34.2667 83.6917 34.2667H83.4688V33.375H89.0417V34.2109C88.5958 34.2109 88.2615 34.2667 88.0385 34.3781C87.8156 34.4896 87.6484 34.6568 87.537 34.8797C87.4305 35.6565 87.3562 36.4374 87.3141 37.2203V43.5177Z" fill="#4E5F6E"/>
<path d="M103.922 34.7682V43.5177C103.947 44.2998 104.003 45.0807 104.09 45.8583C104.201 46.0813 104.368 46.2484 104.535 46.3599L105.427 46.4714H105.594V47.3073H100.077V46.4714C100.523 46.4714 100.802 46.4714 101.08 46.3599C101.303 46.2484 101.47 46.0813 101.582 45.8026C101.687 45.0257 101.762 44.2448 101.805 43.462V34.824H99.2969C98.9068 34.824 98.6281 34.824 98.4052 34.9354C98.1823 34.9911 98.0708 35.1026 98.0151 35.2698C97.9441 35.4857 97.9065 35.7112 97.9036 35.9385V36.4958H97.0677V33.375H108.604V36.4401H107.768C107.702 35.9584 107.646 35.4753 107.601 34.9911C107.545 34.9354 107.433 34.824 107.266 34.824H103.922V34.7682ZM116.573 33.375H122.034V34.2109C121.644 34.2109 121.31 34.2667 121.087 34.3781C120.864 34.4896 120.697 34.6568 120.585 34.8797C120.48 35.6566 120.405 36.4374 120.363 37.2203V40.4526H124.654V37.2203C124.612 36.4374 124.537 35.6565 124.431 34.8797C124.375 34.6568 124.208 34.4896 123.985 34.3781C123.818 34.2667 123.539 34.2109 123.149 34.2109H122.982V33.375H128.443V34.2109C128.053 34.2109 127.719 34.2667 127.496 34.3781C127.273 34.4896 127.106 34.6568 126.994 34.8797C126.89 35.6568 126.816 36.4376 126.771 37.2203V47.3073H124.654V41.1771H120.363V47.3073H118.245V37.2203C118.2 36.4375 118.126 35.6568 118.022 34.8797C117.91 34.6568 117.799 34.4896 117.576 34.3781C117.409 34.2667 117.13 34.2109 116.74 34.2109H116.573V33.375V33.375ZM90.213 51.8214L89.6 52.3786C89.3771 52.1 89.1542 51.9328 88.9313 51.9328C88.8198 51.9328 88.7641 51.9328 88.6526 52.0443L88.5411 52.2115C88.5411 52.2672 88.5411 52.3786 88.6526 52.4344L89.2099 52.9917C89.5443 53.2146 89.7672 53.3818 89.7672 53.4932C89.9901 53.6604 90.1016 53.7719 90.1573 53.9391L90.2688 54.4964C90.2672 54.6555 90.2315 54.8124 90.1642 54.9566C90.097 55.1008 89.9996 55.2289 89.8786 55.3323C89.6557 55.5552 89.3214 55.6667 88.9313 55.6667C88.6526 55.6667 88.374 55.6109 88.151 55.4437C87.9281 55.2766 87.7052 55.0536 87.5938 54.7193L88.2625 54.3292C88.4297 54.7193 88.7083 54.8865 88.987 54.8865C89.0984 54.8865 89.2099 54.8865 89.3214 54.775C89.4328 54.6635 89.4328 54.6078 89.4328 54.4964L89.3771 54.2177L88.8755 53.7719C88.5399 53.5157 88.24 53.2158 87.9839 52.8802C87.8501 52.7027 87.7725 52.4892 87.7609 52.2672C87.7609 51.9328 87.8724 51.7099 88.0953 51.487C88.3182 51.2641 88.6526 51.1526 88.9313 51.1526C89.1542 51.1526 89.3771 51.2083 89.5443 51.3198C89.7672 51.4313 89.9344 51.5984 90.213 51.8771V51.8214ZM94.4484 51.2641H96.7891V52.0443H95.2844V52.8802H96.7891V53.6604H95.2844V54.775H96.7891V55.6109H94.4484V51.3198V51.2641ZM102.306 51.2641H103.142L104.814 55.5552H103.922L103.588 54.6635H101.86L101.526 55.5552H100.579L102.251 51.2641H102.306ZM102.752 52.3786L102.195 53.8833H103.309L102.752 52.3786ZM108.938 51.2641H109.774C110.22 51.2641 110.554 51.2641 110.777 51.3755C111 51.487 111.111 51.5984 111.279 51.8214C111.39 51.9885 111.446 52.2672 111.446 52.4901C111.446 52.7688 111.39 53.0474 111.223 53.2146C111.111 53.3818 110.889 53.549 110.666 53.6604L111.669 55.5552H110.777L109.774 53.7161H109.718V55.5552H108.882V51.2641H108.938ZM109.718 52.9359H109.941C110.22 52.9359 110.387 52.9359 110.498 52.8245C110.61 52.8245 110.666 52.6573 110.666 52.4901C110.669 52.4033 110.644 52.3179 110.593 52.2472C110.543 52.1765 110.47 52.1247 110.387 52.1H109.718V52.8802V52.9359ZM119.694 52.0443L119.136 52.6016C118.975 52.3999 118.772 52.2357 118.541 52.1202C118.31 52.0048 118.057 51.9408 117.799 51.9328C117.353 51.9328 117.019 52.1 116.74 52.3786C116.461 52.6573 116.35 52.9917 116.35 53.3818C116.35 53.7161 116.35 53.9391 116.517 54.162C116.629 54.3849 116.796 54.5521 117.074 54.7193C117.297 54.8307 117.52 54.8865 117.799 54.8865C118.022 54.8865 118.245 54.8865 118.468 54.775C118.635 54.6635 118.858 54.4964 119.081 54.2177L119.638 54.8307C119.359 55.1651 119.081 55.388 118.746 55.4995C118.468 55.6109 118.189 55.6667 117.799 55.6667C117.493 55.6849 117.187 55.6398 116.899 55.5343C116.611 55.4289 116.349 55.2652 116.127 55.0536C115.915 54.8321 115.752 54.5692 115.646 54.2816C115.541 53.9939 115.496 53.6876 115.514 53.3818C115.514 52.9917 115.626 52.6016 115.793 52.2672C116.003 51.9248 116.298 51.6423 116.65 51.4471C117.001 51.2519 117.397 51.1505 117.799 51.1526C118.161 51.1521 118.519 51.2318 118.846 51.386C119.174 51.5402 119.463 51.765 119.694 52.0443V52.0443ZM123.818 51.2641H124.654V52.9359H126.047V51.2641H126.883V55.5552H126.047V53.6604H124.654V55.5552H123.818V51.2641Z" fill="#4E5F6E"/>
<path d="M86.1444 20L85.4199 29.1953L86.1444 31.5359L86.8689 29.1953L86.1444 20Z" fill="#4E5F6E"/>
</g>
<defs>
<clipPath id="clip0_1171_27714">
<rect width="107" height="35.6667" fill="white" transform="translate(22 20)"/>
</clipPath>
</defs>
</svg>
