<svg width="150" height="80" viewBox="0 0 150 80" fill="none" xmlns="http://www.w3.org/2000/svg">
<rect width="150" height="80" fill="white"/>
<path d="M47.5345 53.9989C44.9037 53.3166 43.4742 51.5468 43.2878 48.7749C43.1428 46.216 43.8058 44.6382 45.608 43.4015C46.9337 42.4632 48.0939 42.1433 51.6362 41.6955L54.6399 41.3331V39.8405C54.6399 37.7295 54.2255 36.9406 52.879 36.4714C51.6155 36.0237 48.7774 35.981 46.623 36.3861C45.7944 36.5354 45.1108 36.5781 45.1108 36.4714C45.1108 35.917 45.9809 33.2091 46.188 33.0598C46.8302 32.6547 48.9639 32.3774 51.5326 32.3774C53.977 32.3774 54.4741 32.4414 55.5306 32.8679C56.9807 33.4649 58.0165 34.3605 58.6379 35.5332C59.0729 36.3861 59.0937 36.6207 59.1558 45.1073L59.2179 53.7857H57.3535H55.5099L55.3649 53.1034C55.1371 52.0372 55.0956 52.0372 54.267 52.7196C53.8527 53.0607 53.1276 53.5085 52.6719 53.7004C51.6983 54.1269 48.6946 54.2974 47.5345 53.9989ZM53.8319 50.2461L54.5363 49.8196L54.5984 47.0903L54.6605 44.3609L53.2519 44.5102C48.6531 44.9793 47.8039 45.4911 47.8039 47.8793C47.8039 49.116 48.2182 50.0329 49.0054 50.4807C49.834 50.9711 52.8583 50.8218 53.8319 50.2461Z" fill="#4E5F6E"/>
<path d="M77.944 53.9991C73.6974 53.0609 71.2322 50.2889 70.5901 45.7257C69.9687 41.2479 71.0044 37.1327 73.366 34.8298C74.671 33.5717 75.7275 32.996 77.4676 32.5695C80.5956 31.8019 83.9307 32.5055 85.9815 34.3606C87.5351 35.7893 88.4052 38.4973 88.4673 42.2501L88.5088 44.5104L81.8384 44.5743C74.2567 44.6383 74.8989 44.425 75.4789 46.5574C75.8725 47.9646 76.8461 49.2867 77.9026 49.7984C80.1398 50.9073 83.9928 50.6513 87.4316 49.2015C87.7423 49.0735 87.7837 49.2015 87.7837 50.6727C87.7837 52.5704 87.763 52.5918 85.1943 53.4873C83.8685 53.9351 83.0814 54.0631 81.1548 54.127C79.8498 54.1696 78.3997 54.1057 77.944 53.9991ZM83.8478 40.3098C83.8478 37.4738 82.3356 35.8106 79.8083 35.8106C78.1511 35.8106 76.9911 36.4289 76.1832 37.7083C75.686 38.54 75.1475 40.2245 75.1475 40.9921C75.1475 41.12 76.8875 41.2054 79.4977 41.2054H83.8478V40.3098Z" fill="#4E5F6E"/>
<path d="M115.957 53.8077C114.403 53.3173 113.305 52.2938 112.809 50.8652C112.601 50.2255 112.539 47.7094 112.539 39.1802V28.3054L114.197 28.0496C115.108 27.9216 116.102 27.7938 116.434 27.7938L116.993 27.7725V30.2245V32.6767H119.997H123L122.876 33.231C122.793 33.551 122.586 34.3399 122.4 35.0009L122.047 36.195L119.52 36.259L116.993 36.3229V42.4C116.993 50.4601 117.013 50.5027 120.473 50.3321L122.172 50.2468V51.7821V53.3173L121.198 53.6584C120.183 54.021 116.93 54.1062 115.957 53.8077Z" fill="#4E5F6E"/>
<path d="M34.7532 41.8451V29.9043H30.9416C28.8287 29.9043 27.0679 29.819 27.0058 29.7337C26.9643 29.6483 27.1508 28.6889 27.4407 27.6014L27.9794 25.6396H33.7382H39.5177V39.7128V53.7859H37.1354H34.7532V41.8451Z" fill="#4E5F6E"/>
<path d="M62.9258 39.7128V25.661L63.6094 25.5331C64.3758 25.4051 67.0895 25 67.3381 25C67.421 25 67.4831 31.4821 67.4831 39.393V53.7859H65.2044H62.9258V39.7128Z" fill="#4E5F6E"/>
<path d="M91.7621 43.5084L91.8243 33.2094L92.9636 33.0601C93.585 32.9961 94.5379 32.8681 95.0972 32.8042L96.0708 32.6549V33.6358V34.5954L96.858 34.1049C97.7074 33.5718 98.8257 33.0601 100.11 32.6549C101.249 32.2711 104.44 32.2925 105.704 32.6549C107.07 33.0814 108.355 34.3821 108.666 35.7041C108.831 36.3865 108.914 39.4357 108.914 45.2568V53.8073L106.698 53.7434L104.461 53.6794L104.419 45.7898C104.378 40.0753 104.295 37.7724 104.108 37.4099C103.445 36.1092 100.774 35.8107 97.8938 36.7063L96.278 37.2181V45.4913V53.7859H93.9994H91.7207L91.7621 43.5084Z" fill="#4E5F6E"/>
<path d="M40.7607 29.7337C40.7607 29.627 40.885 29.0727 41.0508 28.4969C41.2165 27.9212 41.465 27.047 41.5893 26.5565L41.8172 25.6396H45.7531C49.4197 25.6396 49.689 25.661 49.5854 26.0235C49.544 26.2154 49.2954 27.1749 49.0468 28.1558L48.5911 29.9043H44.676C42.5215 29.9043 40.7607 29.819 40.7607 29.7337Z" fill="#4E5F6E"/>
</svg>
