<svg width="150" height="80" viewBox="0 0 150 80" fill="none" xmlns="http://www.w3.org/2000/svg">
<rect width="150" height="80" fill="white"/>
<path d="M111.306 49.2082V47.4246L111.562 47.4479C111.748 47.4634 111.817 47.5099 111.833 47.6495L111.856 47.8201L112.058 47.665C112.702 47.1609 113.71 47.3858 114.066 48.107C114.175 48.3241 114.214 48.5723 114.214 49.0608C114.214 49.7975 114.066 50.1465 113.617 50.4644C113.175 50.7824 112.407 50.7359 112.019 50.3714L111.848 50.2163V50.6118V50.9995H111.577H111.306V49.2082ZM113.337 49.9371C113.81 49.4873 113.826 48.6188 113.361 48.1535C113.151 47.9442 113.05 47.8976 112.756 47.8976C112.531 47.8976 112.329 47.9597 112.151 48.076L111.887 48.2543L111.864 48.9755C111.848 49.5804 111.864 49.7277 111.98 49.8596C112.345 50.2628 112.957 50.3016 113.337 49.9371Z" fill="#4E5F6E"/>
<path d="M17.5202 50.5352C15.7676 49.8528 15.6901 47.1696 17.4039 46.4329C18.2104 46.084 19.0324 46.1615 19.707 46.6578C20.0637 46.9137 20.1025 47.0145 19.9009 47.1696C19.7148 47.3092 19.5287 47.3015 19.4046 47.1464C19.2417 46.9525 18.7067 46.7354 18.381 46.7354C18.0165 46.7354 17.5822 46.9137 17.2876 47.1851C16.5353 47.8908 16.6362 49.2944 17.4814 49.8838C17.9312 50.194 18.6058 50.2327 19.1022 49.9768C19.4511 49.7985 19.4511 49.7985 19.4744 49.3565L19.4976 48.9144L18.7765 48.8912L18.0553 48.8679L18.032 48.6198L18.0087 48.3639H19.0556H20.1103V49.1703V49.9846L19.8466 50.1862C19.1952 50.6825 18.2569 50.8221 17.5202 50.5352V50.5352Z" fill="#4E5F6E"/>
<path d="M23.2282 50.6278C22.9336 50.5348 22.507 50.1393 22.352 49.8058C22.0728 49.1932 22.1969 48.2781 22.6156 47.8361C23.0576 47.3553 23.9106 47.2468 24.5233 47.5957C25.0273 47.8749 25.2677 48.3402 25.2677 49.0304C25.2677 49.5034 25.2367 49.6275 25.0351 49.9609C24.6629 50.5658 23.9417 50.8294 23.2282 50.6278V50.6278ZM24.2674 50.0307C24.5388 49.8524 24.7171 49.4569 24.7171 49.0226C24.7171 48.3169 24.3372 47.8982 23.6935 47.8982C23.1429 47.8982 22.7474 48.3712 22.7474 49.0381C22.7474 49.9609 23.5617 50.496 24.2674 50.0307V50.0307Z" fill="#4E5F6E"/>
<path d="M26.9035 50.4963C26.5622 50.318 26.5467 50.3102 26.5467 50.4576C26.5467 50.5816 26.4925 50.6127 26.2753 50.6127H26.0039V48.4413V46.27H26.2753H26.5467V47.0532V47.8287L26.7484 47.6736C27.2679 47.2626 28.0356 47.3169 28.5087 47.7977C28.8499 48.1311 28.9817 48.6042 28.9274 49.2633C28.8344 50.4265 27.8728 51.0159 26.9035 50.4963V50.4963ZM27.8418 50.0931C28.3226 49.8682 28.5474 49.0772 28.2993 48.4879C28.0589 47.9063 27.3842 47.7124 26.8492 48.0769C26.5855 48.2552 26.5855 48.263 26.5622 48.9066C26.5312 49.7829 26.5622 49.8682 26.95 50.0621C27.3532 50.2559 27.4851 50.2637 27.8418 50.0931V50.0931Z" fill="#4E5F6E"/>
<path d="M30.1366 50.5814C29.7488 50.403 29.555 50.0385 29.5937 49.55C29.6248 49.0925 29.7798 48.8676 30.1676 48.7047C30.5165 48.5574 30.9431 48.5729 31.3385 48.7512L31.6642 48.8986V48.6117C31.6642 48.2394 31.4936 47.999 31.1679 47.9137C30.819 47.8129 30.5165 47.875 30.2064 48.1076C29.9582 48.2937 29.9427 48.2937 29.8419 48.1619C29.6635 47.9292 29.7023 47.8362 30.059 47.6423C30.7104 47.2701 31.5247 47.3166 31.9512 47.7586L32.1683 47.9835L32.1916 49.3018L32.2226 50.6124H31.9434C31.7108 50.6124 31.6642 50.5814 31.6642 50.4573C31.6642 50.3022 31.6642 50.3022 31.4316 50.465C31.1447 50.6822 30.4855 50.7364 30.1366 50.5814V50.5814ZM31.2222 50.2324C31.5324 50.1161 31.6642 49.9222 31.6642 49.6043C31.6642 49.2553 31.4316 49.0614 30.9275 48.9994C30.6639 48.9761 30.5708 49.0071 30.3615 49.1778C29.7333 49.7051 30.4157 50.5348 31.2222 50.2324V50.2324Z" fill="#4E5F6E"/>
<path d="M41.0866 50.5425C40.4585 50.2633 40.156 49.6817 40.2103 48.8675C40.2646 47.9679 40.8617 47.4019 41.7535 47.4019C42.5522 47.4096 43.1106 47.9447 43.1959 48.7744L43.2424 49.2165H41.9861C41.1331 49.2165 40.7376 49.2397 40.7376 49.3018C40.7376 49.3483 40.7919 49.5034 40.8617 49.6507C41.1331 50.2168 41.8698 50.3952 42.4902 50.0307L42.8159 49.8368L42.94 50.0229C43.0795 50.2401 43.0408 50.2944 42.5135 50.527C42.0869 50.7286 41.4976 50.7286 41.0866 50.5425V50.5425ZM42.6763 48.6349C42.6763 48.5185 42.5677 48.3247 42.4282 48.1696C41.8698 47.5647 40.978 47.8129 40.7764 48.6193L40.7221 48.8287H41.6992H42.6763V48.6349V48.6349Z" fill="#4E5F6E"/>
<path d="M44.7316 50.5426C44.1345 50.2712 43.8398 49.7516 43.8398 49.0072C43.8476 48.1774 44.2741 47.6036 45.0186 47.4407C45.5536 47.3167 46.0112 47.4252 46.3834 47.7664L46.554 47.9293L46.3911 48.0999L46.2205 48.2783L45.9956 48.0921C45.6777 47.8207 45.1039 47.8207 44.7859 48.0921C44.468 48.3558 44.3594 48.6737 44.3982 49.1856C44.4292 49.5578 44.4757 49.6586 44.7239 49.899C44.972 50.1549 45.0496 50.1859 45.383 50.1859C45.67 50.1859 45.8095 50.1471 45.9491 50.0153C46.174 49.7982 46.2593 49.7982 46.4222 49.9765C46.5462 50.1084 46.5385 50.1316 46.3911 50.2945C46.0189 50.6977 45.29 50.8063 44.7316 50.5426V50.5426Z" fill="#4E5F6E"/>
<path d="M49.7484 50.5737C49.3374 50.3953 49.2676 50.1084 49.2676 48.6738V47.4253L49.5235 47.4486L49.7716 47.4718L49.8104 48.6816C49.8414 49.5346 49.8802 49.9301 49.9577 50.0154C50.1904 50.3023 50.8185 50.2402 51.1907 49.899C51.3536 49.7439 51.3613 49.6742 51.3613 48.5807V47.4253L51.6173 47.4486L51.8654 47.4718L51.8887 49.046L51.9042 50.6125H51.6328C51.3924 50.6125 51.3613 50.5892 51.3613 50.4031C51.3613 50.217 51.3536 50.2092 51.2218 50.3256C50.8495 50.6668 50.2137 50.7753 49.7484 50.5737Z" fill="#4E5F6E"/>
<path d="M54.7196 50.597C54.456 50.4729 54.3862 50.1317 54.3862 48.9762V47.8983H54.1535C53.9442 47.8983 53.9209 47.8751 53.9209 47.6657C53.9209 47.4563 53.9442 47.433 54.1458 47.433C54.3707 47.433 54.3784 47.4175 54.4017 47.0298C54.425 46.6265 54.4327 46.6188 54.6809 46.5955L54.929 46.5723V46.9988V47.433H55.2392C55.5339 47.433 55.5494 47.4485 55.5494 47.6657C55.5494 47.8828 55.5339 47.8983 55.2392 47.8983H54.929V48.9374C54.929 49.7827 54.9523 50.0076 55.0531 50.1007C55.1927 50.248 55.3633 50.2635 55.4408 50.1317C55.5029 50.0386 55.7045 50.2557 55.7045 50.4186C55.7045 50.6435 55.0531 50.7598 54.7196 50.597Z" fill="#4E5F6E"/>
<path d="M62.1022 50.5425C61.4741 50.2633 61.1717 49.6817 61.2259 48.8675C61.2802 47.9679 61.8773 47.4019 62.7691 47.4019C63.5679 47.4096 64.1262 47.9447 64.2115 48.7744L64.258 49.2165H63.0018C62.1487 49.2165 61.7533 49.2397 61.7533 49.3018C61.7533 49.3483 61.8075 49.5034 61.8773 49.6507C62.1487 50.2168 62.8854 50.3952 63.5058 50.0307L63.8315 49.8368L63.9556 50.0229C64.0952 50.2401 64.0564 50.2944 63.5291 50.527C63.1026 50.7286 62.5132 50.7286 62.1022 50.5425V50.5425ZM63.6919 48.6349C63.6919 48.5185 63.5834 48.3247 63.4438 48.1696C62.8854 47.5647 61.9937 47.8129 61.792 48.6193L61.7377 48.8287H62.7148H63.6919V48.6349V48.6349Z" fill="#4E5F6E"/>
<path d="M68.9872 50.597C68.7236 50.4729 68.6538 50.1317 68.6538 48.9762V47.8983H68.4211C68.2117 47.8983 68.1885 47.8751 68.1885 47.6657C68.1885 47.4563 68.2117 47.433 68.4134 47.433C68.6383 47.433 68.646 47.4175 68.6693 47.0298C68.6925 46.6265 68.7003 46.6188 68.9484 46.5955L69.1966 46.5723V46.9988V47.433H69.5068C69.8015 47.433 69.817 47.4485 69.817 47.6657C69.817 47.8828 69.8015 47.8983 69.5068 47.8983H69.1966V48.9374C69.1966 49.7827 69.2198 50.0076 69.3207 50.1007C69.4602 50.248 69.6308 50.2635 69.7084 50.1317C69.7704 50.0386 69.9721 50.2557 69.9721 50.4186C69.9721 50.6435 69.3207 50.7598 68.9872 50.597Z" fill="#4E5F6E"/>
<path d="M81.93 50.5737C81.519 50.3953 81.4492 50.1084 81.4492 48.6738V47.4253L81.7051 47.4486L81.9533 47.4718L81.992 48.6816C82.0231 49.5346 82.0618 49.9301 82.1394 50.0154C82.372 50.3023 83.0002 50.2402 83.3724 49.899C83.5352 49.7439 83.543 49.6742 83.543 48.5807V47.4253L83.7989 47.4486L84.047 47.4718L84.0703 49.046L84.0858 50.6125H83.8144C83.574 50.6125 83.543 50.5892 83.543 50.4031C83.543 50.217 83.5352 50.2092 83.4034 50.3256C83.0312 50.6668 82.3953 50.7753 81.93 50.5737Z" fill="#4E5F6E"/>
<path d="M85.1869 50.4884C84.7682 50.279 84.7139 50.1937 84.8845 49.9611C84.9775 49.837 85.0008 49.837 85.3265 50.0231C85.9546 50.3798 86.7224 50.2402 86.7224 49.775C86.7224 49.5113 86.5517 49.4027 85.8383 49.2011C85.1249 49.0072 84.8612 48.7668 84.8612 48.3093C84.8612 47.6347 85.5204 47.2547 86.3889 47.433C86.6138 47.4873 86.893 47.5959 87.0015 47.6889C87.1799 47.8518 87.1876 47.8673 87.0713 48.0379L86.9472 48.2085L86.7146 48.0534C86.2726 47.7355 85.66 47.751 85.4351 48.0922C85.311 48.2783 85.3188 48.3016 85.4428 48.4411C85.5204 48.5264 85.7763 48.6428 86.0167 48.7126C86.6991 48.9064 86.8697 48.984 87.0791 49.2399C87.4901 49.7284 87.1489 50.5039 86.4742 50.6435C85.9934 50.7365 85.5902 50.69 85.1869 50.4884V50.4884Z" fill="#4E5F6E"/>
<path d="M93.818 50.5425C93.1899 50.2633 92.8875 49.6817 92.9418 48.8675C92.996 47.9679 93.5932 47.4019 94.4849 47.4019C95.2837 47.4096 95.842 47.9447 95.9273 48.7744L95.9739 49.2165H94.7176C93.8646 49.2165 93.4691 49.2397 93.4691 49.3018C93.4691 49.3483 93.5234 49.5034 93.5932 49.6507C93.8646 50.2168 94.6013 50.3952 95.2216 50.0307L95.5473 49.8368L95.6714 50.0229C95.811 50.2401 95.7722 50.2944 95.2449 50.527C94.8184 50.7286 94.229 50.7286 93.818 50.5425V50.5425ZM95.4078 48.6349C95.4078 48.5185 95.2992 48.3247 95.1596 48.1696C94.6013 47.5647 93.7095 47.8129 93.5079 48.6193L93.4536 48.8287H94.4307H95.4078V48.6349V48.6349Z" fill="#4E5F6E"/>
<path d="M96.8969 50.4884C96.4781 50.279 96.4239 50.1937 96.5945 49.9611C96.6875 49.837 96.7108 49.837 97.0365 50.0231C97.6646 50.3798 98.4323 50.2402 98.4323 49.775C98.4323 49.5113 98.2617 49.4027 97.5483 49.2011C96.8348 49.0072 96.5712 48.7668 96.5712 48.3093C96.5712 47.6347 97.2303 47.2547 98.0989 47.433C98.3237 47.4873 98.6029 47.5959 98.7115 47.6889C98.8898 47.8518 98.8976 47.8673 98.7813 48.0379L98.6572 48.2085L98.4246 48.0534C97.9825 47.7355 97.3699 47.751 97.145 48.0922C97.021 48.2783 97.0287 48.3016 97.1528 48.4411C97.2303 48.5264 97.4862 48.6428 97.7266 48.7126C98.4091 48.9064 98.5797 48.984 98.789 49.2399C99.2 49.7284 98.8588 50.5039 98.1842 50.6435C97.7034 50.7365 97.3001 50.69 96.8969 50.4884V50.4884Z" fill="#4E5F6E"/>
<path d="M99.9203 50.4884C99.5016 50.279 99.4473 50.1937 99.6179 49.9611C99.7109 49.837 99.7342 49.837 100.06 50.0231C100.688 50.3798 101.456 50.2402 101.456 49.775C101.456 49.5113 101.285 49.4027 100.572 49.2011C99.8583 49.0072 99.5946 48.7668 99.5946 48.3093C99.5946 47.6347 100.254 47.2547 101.122 47.433C101.347 47.4873 101.626 47.5959 101.735 47.6889C101.913 47.8518 101.921 47.8673 101.805 48.0379L101.681 48.2085L101.448 48.0534C101.006 47.7355 100.393 47.751 100.168 48.0922C100.044 48.2783 100.052 48.3016 100.176 48.4411C100.254 48.5264 100.51 48.6428 100.75 48.7126C101.432 48.9064 101.603 48.984 101.812 49.2399C102.223 49.7284 101.882 50.5039 101.208 50.6435C100.727 50.7365 100.324 50.69 99.9203 50.4884V50.4884Z" fill="#4E5F6E"/>
<path d="M115.36 50.5814C114.972 50.403 114.779 50.0385 114.817 49.55C114.848 49.0925 115.003 48.8676 115.391 48.7047C115.74 48.5574 116.167 48.5729 116.562 48.7512L116.888 48.8986V48.6117C116.888 48.2394 116.717 47.999 116.392 47.9137C116.043 47.8129 115.74 47.875 115.43 48.1076C115.182 48.2937 115.166 48.2937 115.066 48.1619C114.887 47.9292 114.926 47.8362 115.283 47.6423C115.934 47.2701 116.748 47.3166 117.175 47.7586L117.392 47.9835L117.415 49.3018L117.446 50.6124H117.167C116.934 50.6124 116.888 50.5814 116.888 50.4573C116.888 50.3022 116.888 50.3022 116.655 50.465C116.368 50.6822 115.709 50.7364 115.36 50.5814ZM116.446 50.2324C116.756 50.1161 116.888 49.9222 116.888 49.6043C116.888 49.2553 116.655 49.0614 116.151 48.9994C115.888 48.9761 115.794 49.0071 115.585 49.1778C114.957 49.7051 115.639 50.5348 116.446 50.2324Z" fill="#4E5F6E"/>
<path d="M122.1 50.4884C121.681 50.279 121.627 50.1937 121.798 49.9611C121.891 49.837 121.914 49.837 122.24 50.0231C122.868 50.3798 123.635 50.2402 123.635 49.775C123.635 49.5113 123.465 49.4027 122.751 49.2011C122.038 49.0072 121.774 48.7668 121.774 48.3093C121.774 47.6347 122.433 47.2547 123.302 47.433C123.527 47.4873 123.806 47.5959 123.915 47.6889C124.093 47.8518 124.101 47.8673 123.984 48.0379L123.86 48.2085L123.628 48.0534C123.186 47.7355 122.573 47.751 122.348 48.0922C122.224 48.2783 122.232 48.3016 122.356 48.4411C122.433 48.5264 122.689 48.6428 122.93 48.7126C123.612 48.9064 123.783 48.984 123.992 49.2399C124.403 49.7284 124.062 50.5039 123.387 50.6435C122.907 50.7365 122.503 50.69 122.1 50.4884V50.4884Z" fill="#4E5F6E"/>
<path d="M127.295 50.6278C127 50.5348 126.573 50.1393 126.418 49.8058C126.139 49.1932 126.263 48.2781 126.682 47.8361C127.124 47.3553 127.977 47.2468 128.59 47.5957C129.094 47.8749 129.334 48.3402 129.334 49.0304C129.334 49.5034 129.303 49.6275 129.101 49.9609C128.729 50.5658 128.008 50.8294 127.295 50.6278ZM128.334 50.0307C128.605 49.8524 128.784 49.4569 128.784 49.0226C128.784 48.3169 128.404 47.8982 127.76 47.8982C127.209 47.8982 126.814 48.3712 126.814 49.0381C126.814 49.9609 127.628 50.496 128.334 50.0307V50.0307Z" fill="#4E5F6E"/>
<path d="M20.8857 48.4413V46.27H21.1572H21.4286V48.4413V50.6127H21.1572H20.8857V48.4413Z" fill="#4E5F6E"/>
<path d="M33.1377 48.4413V46.27H33.4091H33.6805V48.4413V50.6127H33.4091H33.1377V48.4413Z" fill="#4E5F6E"/>
<path d="M36.4727 48.4335V46.2544L37.6281 46.2854C38.6595 46.3087 38.8146 46.3242 39.0084 46.4715C39.4039 46.7662 39.5745 47.0997 39.5745 47.5882C39.5745 48.131 39.3652 48.4877 38.9154 48.7126C38.7448 48.7979 38.5897 48.8755 38.5742 48.8832C38.5587 48.8987 38.737 49.1934 38.9697 49.5424C39.2023 49.8991 39.4582 50.2791 39.528 50.4032L39.6676 50.6125H39.3186H38.9697L38.4191 49.7595L37.8763 48.9065H37.4808H37.093V49.7595V50.6125H36.7828H36.4727V48.4335V48.4335ZM38.7138 48.1621C38.9154 47.9914 38.9542 47.9061 38.9542 47.6115C38.9542 47.3323 38.9076 47.2237 38.7293 47.0376C38.5121 46.8205 38.4734 46.8127 37.7987 46.8127H37.093V47.5882V48.3637H37.7832C38.4191 48.3637 38.4966 48.3482 38.7138 48.1621Z" fill="#4E5F6E"/>
<path d="M47.1738 49.015V47.4253L47.4297 47.4486C47.6158 47.4641 47.6856 47.5106 47.7011 47.6424L47.7244 47.8208L48.0113 47.6269C48.1664 47.5183 48.3913 47.433 48.5076 47.433C48.6938 47.433 48.7248 47.4641 48.7248 47.6579C48.7248 47.8518 48.686 47.8906 48.4534 47.9293C48.306 47.9604 48.0811 48.0689 47.9493 48.1775L47.7167 48.3791V49.4958V50.6125H47.4452H47.1738V49.015V49.015Z" fill="#4E5F6E"/>
<path d="M52.834 49.015V47.4253L53.0899 47.4486L53.338 47.4718L53.3613 49.046L53.3768 50.6125H53.1054H52.834V49.015Z" fill="#4E5F6E"/>
<path d="M56.1689 49.0153V47.4256L56.4248 47.4488C56.611 47.4643 56.6808 47.5109 56.6963 47.6504L56.7195 47.821L56.9212 47.6659C57.3787 47.3092 58.0999 47.317 58.3945 47.697L58.5419 47.8753L58.7513 47.697C59.2243 47.286 59.9688 47.3092 60.2712 47.7357C60.4185 47.9451 60.434 48.0769 60.434 49.2867V50.6127H60.1626H59.8912V49.3875C59.8912 48.2941 59.8757 48.139 59.7516 48.0304C59.5345 47.8288 59.0925 47.8676 58.8133 48.1002L58.5729 48.3018V49.4573V50.6127H58.3015H58.0301V49.4263C58.0301 48.0382 57.9835 47.8986 57.4872 47.8986C57.2779 47.8986 57.115 47.9606 56.9522 48.1002L56.7118 48.3018V49.4573V50.6127H56.4404H56.1689V49.0153V49.0153Z" fill="#4E5F6E"/>
<path d="M65.0098 49.0146V47.4249L65.2657 47.4482C65.4518 47.4637 65.5216 47.5102 65.5371 47.6498L65.5603 47.8204L65.7775 47.6731C66.3203 47.2853 67.0337 47.3008 67.4215 47.7118C67.5998 47.9057 67.6076 47.96 67.6309 49.2628L67.6619 50.6121H67.3827H67.1035V49.4566C67.1035 48.4098 67.088 48.2857 66.9407 48.0996C66.7313 47.8282 66.235 47.8204 65.855 48.0763L65.5914 48.2547L65.5681 49.4334L65.5448 50.6121H65.2812H65.0098V49.0146V49.0146Z" fill="#4E5F6E"/>
<path d="M77.418 48.4413V46.27H78.5424C79.7832 46.27 80.0701 46.3398 80.3492 46.6965C80.706 47.1463 80.6362 47.9063 80.2097 48.2242L79.977 48.3871L80.1554 48.4724C80.2484 48.5189 80.4035 48.6972 80.5043 48.8678C80.7215 49.2401 80.706 49.8139 80.4656 50.1319C80.1631 50.5429 79.8995 50.6127 78.6044 50.6127H77.418V48.4413ZM79.8529 49.8682C80.1476 49.5658 80.1321 49.147 79.8142 48.8756C79.597 48.6895 79.5195 48.674 78.8061 48.674H78.0383V49.3719V50.0698H78.8448C79.6048 50.0698 79.6591 50.0621 79.8529 49.8682ZM79.6125 48.0381C80.0313 47.821 80.1011 47.3479 79.7754 47.0145C79.5815 46.8206 79.5272 46.8128 78.8061 46.8128H78.0383V47.472V48.1311H78.744C79.1318 48.1311 79.5195 48.0924 79.6125 48.0381V48.0381Z" fill="#4E5F6E"/>
<path d="M88.042 49.015V47.4253L88.2979 47.4486L88.546 47.4718L88.5693 49.046L88.5848 50.6125H88.3134H88.042V49.015Z" fill="#4E5F6E"/>
<path d="M89.5146 49.0146V47.4249L89.7706 47.4482C89.9567 47.4637 90.0265 47.5102 90.042 47.6498L90.0652 47.8204L90.2824 47.6731C90.8252 47.2853 91.5386 47.3008 91.9264 47.7118C92.1047 47.9057 92.1125 47.96 92.1357 49.2628L92.1668 50.6121H91.8876H91.6084V49.4566C91.6084 48.4098 91.5929 48.2857 91.4456 48.0996C91.2362 47.8282 90.7399 47.8204 90.3599 48.0763L90.0963 48.2547L90.073 49.4334L90.0497 50.6121H89.7861H89.5146V49.0146V49.0146Z" fill="#4E5F6E"/>
<path d="M104.559 48.4413V46.27H105.993H107.428V46.5414V46.8128H106.303H105.179V47.472V48.1311H106.265H107.35V48.4026V48.674H106.265H105.179V49.3719V50.0698H106.303H107.428V50.3412V50.6127H105.993H104.559V48.4413Z" fill="#4E5F6E"/>
<path d="M107.814 50.5733C107.814 50.55 108.063 50.2088 108.357 49.8056C108.66 49.4101 108.9 49.0456 108.9 48.9913C108.9 48.9448 108.675 48.6036 108.396 48.2314C108.117 47.8669 107.892 47.5334 107.892 47.4947C107.892 47.4636 108.016 47.4326 108.163 47.4326C108.404 47.4326 108.474 47.4869 108.869 48.0142L109.311 48.5958L109.73 48.0142C110.11 47.4869 110.172 47.4326 110.42 47.4326C110.567 47.4326 110.684 47.4714 110.684 47.5102C110.684 47.5567 110.459 47.8901 110.18 48.2624C109.9 48.6268 109.676 48.9525 109.676 48.9836C109.676 49.0146 109.854 49.2782 110.079 49.5729C110.296 49.8676 110.567 50.2243 110.668 50.3639L110.854 50.612H110.536C110.226 50.612 110.203 50.5888 109.761 49.9917L109.296 49.3713L108.846 49.9917C108.419 50.581 108.381 50.612 108.109 50.612C107.946 50.612 107.814 50.5965 107.814 50.5733V50.5733Z" fill="#4E5F6E"/>
<path d="M118.361 49.0146V47.4249L118.617 47.4482C118.803 47.4637 118.873 47.5102 118.889 47.6498L118.912 47.8204L119.129 47.6731C119.672 47.2853 120.385 47.3008 120.773 47.7118C120.951 47.9057 120.959 47.96 120.982 49.2628L121.013 50.6121H120.734H120.455V49.4566C120.455 48.4098 120.44 48.2857 120.292 48.0996C120.083 47.8282 119.587 47.8204 119.207 48.0763L118.943 48.2547L118.92 49.4334L118.896 50.6121H118.633H118.361V49.0146V49.0146Z" fill="#4E5F6E"/>
<path d="M124.954 49.015V47.4253L125.21 47.4486L125.458 47.4718L125.481 49.046L125.497 50.6125H125.226H124.954V49.015Z" fill="#4E5F6E"/>
<path d="M130.072 49.0146V47.4249L130.328 47.4482C130.514 47.4637 130.584 47.5102 130.6 47.6498L130.623 47.8204L130.84 47.6731C131.383 47.2853 132.096 47.3008 132.484 47.7118C132.662 47.9057 132.67 47.96 132.693 49.2628L132.724 50.6121H132.445H132.166V49.4566C132.166 48.4098 132.151 48.2857 132.003 48.0996C131.794 47.8282 131.298 47.8204 130.918 48.0763L130.654 48.2547L130.631 49.4334L130.607 50.6121H130.344H130.072V49.0146V49.0146Z" fill="#4E5F6E"/>
<path d="M52.85 46.952C52.7026 46.8047 52.7414 46.5177 52.912 46.4247C53.2455 46.2463 53.5556 46.5565 53.3773 46.89C53.2842 47.0606 52.9973 47.0993 52.85 46.952Z" fill="#4E5F6E"/>
<path d="M88.057 46.952C87.9097 46.8047 87.9484 46.5177 88.119 46.4247C88.4525 46.2463 88.7627 46.5565 88.5843 46.89C88.4913 47.0606 88.2043 47.0993 88.057 46.952Z" fill="#4E5F6E"/>
<path d="M124.968 46.952C124.821 46.8047 124.86 46.5177 125.03 46.4247C125.364 46.2463 125.674 46.5565 125.495 46.89C125.402 47.0606 125.115 47.0993 124.968 46.952Z" fill="#4E5F6E"/>
<path d="M30.1598 42.8893C28.1359 42.4938 26.6392 41.478 25.6233 39.8185C25.0185 38.8181 24.7471 37.9806 24.6152 36.7321C24.3981 34.553 25.1425 32.4205 26.6237 30.9548C27.2751 30.3112 27.3526 30.2414 28.0118 29.8769C29.2448 29.1713 30.5398 28.8999 31.8969 29.0549C34.169 29.3109 35.813 30.4275 36.7358 32.3507C37.1391 33.2037 37.4415 34.46 37.4958 35.5301L37.5191 35.9954L31.8271 36.0187L26.1351 36.0342L26.1817 36.639C26.298 38.2675 27.2131 39.8262 28.6011 40.7568C29.5705 41.4004 30.6251 41.6408 32.0752 41.5245C33.2617 41.4392 34.0915 41.1135 35.1694 40.3225L35.6502 39.9658L36.0999 40.4621C36.3481 40.7335 36.5342 40.9972 36.5264 41.036C36.4877 41.1523 35.4796 41.8967 34.9988 42.1526C33.6417 42.8816 31.641 43.184 30.1598 42.8893V42.8893ZM35.8518 34.5065C35.844 34.1731 35.6036 33.3898 35.3477 32.878C34.6188 31.3969 33.2385 30.5594 31.3928 30.4741C30.3692 30.4198 29.8341 30.5361 28.8881 31.0014C27.6241 31.614 26.647 32.9013 26.2825 34.429L26.236 34.6383H31.0439C35.5726 34.6383 35.8518 34.6306 35.8518 34.5065Z" fill="#4E5F6E"/>
<path d="M46.2826 42.8965C43.646 42.4157 41.7151 40.6166 40.9241 37.9335C40.6527 36.9874 40.5906 35.7312 40.7768 34.7541C41.4669 31.0861 44.5378 28.6666 48.0196 29.0544C48.989 29.1629 49.4698 29.3103 50.3538 29.76C51.8505 30.52 52.8353 31.8383 53.3394 33.7382C53.5177 34.3974 53.7038 35.9173 53.6185 35.9948C53.603 36.0181 51.044 36.0336 47.9343 36.0336H42.2889V36.3826C42.2889 36.5764 42.3432 37.0107 42.413 37.3364C42.824 39.3293 44.2974 40.9191 46.205 41.4231C47.0813 41.648 48.5935 41.5705 49.6171 41.2525C50.0359 41.1207 50.9819 40.5701 51.4627 40.1901L51.7574 39.9575L52.2149 40.4538C52.4708 40.7329 52.6802 40.9811 52.6802 41.0199C52.6802 41.0897 51.8039 41.7411 51.2378 42.0823C49.9816 42.8422 47.8645 43.1912 46.2826 42.8965V42.8965ZM51.8737 34.2035C51.7962 33.5521 51.4162 32.637 50.9897 32.1175C50.5089 31.5204 49.7179 30.9775 48.9269 30.7061C48.3608 30.5123 48.198 30.489 47.2519 30.489C46.3059 30.4967 46.1508 30.5123 45.6545 30.7061C44.8325 31.0163 44.406 31.28 43.8786 31.7995C43.1419 32.5207 42.6069 33.4668 42.4052 34.3896L42.351 34.6378H47.1434H51.928L51.8737 34.2035V34.2035Z" fill="#4E5F6E"/>
<path d="M59.8531 42.8966C58.5813 42.6174 57.5267 41.9815 56.8908 41.1208C56.3324 40.3608 56.3247 40.4306 56.9606 40.0196C57.2708 39.818 57.5809 39.6396 57.643 39.6241C57.7128 39.6086 57.8213 39.6939 57.9066 39.849C58.1548 40.2677 58.8992 41.0044 59.2715 41.1905C59.8065 41.462 60.2175 41.5473 61.0085 41.5473C62.133 41.5473 62.7766 41.3379 63.397 40.7795C63.8312 40.3841 64.0018 39.9963 64.0018 39.3372C64.0018 38.616 63.8778 38.2593 63.4823 37.8172C63.0635 37.352 62.1485 36.8867 60.6053 36.3516C59.2947 35.9018 58.7752 35.6149 58.1393 34.9868C56.5418 33.4126 56.7047 30.9001 58.4882 29.7601C59.4111 29.163 60.5898 28.9071 61.722 29.0544C62.4897 29.1552 63.4125 29.5973 63.9553 30.1246C64.4206 30.5666 64.9557 31.3886 64.8549 31.4894C64.8161 31.5282 64.5292 31.6755 64.219 31.8074L63.6606 32.0555L63.4435 31.7221C62.9627 30.9621 62.226 30.5278 61.3342 30.4658C60.2175 30.396 59.287 30.7837 58.845 31.4894C58.6356 31.8306 58.6123 31.9314 58.6201 32.4587C58.6201 32.9628 58.6589 33.1179 58.845 33.4669C59.2637 34.2346 59.8453 34.599 61.5746 35.1884C64.1182 36.0492 65.2581 37.0728 65.5605 38.7478C65.7932 40.0428 65.134 41.4464 63.9398 42.2142C62.8852 42.8888 61.1404 43.1835 59.8531 42.8966V42.8966Z" fill="#4E5F6E"/>
<path d="M98.3541 42.8573C97.6252 42.7022 96.7722 42.3998 96.3457 42.1439C94.6319 41.128 93.4764 39.4763 93.0344 37.429C92.8948 36.7699 92.8948 35.2499 93.0422 34.583C93.6936 31.4967 96.0044 29.3641 99.0288 29.0539C99.8973 28.9609 101.068 29.0617 101.828 29.2943C102.642 29.5502 103.635 30.1008 104.201 30.6126L104.705 31.0779L104.728 30.1629L104.752 29.2478L105.512 29.2245L106.264 29.2013V35.9944V42.7798H105.488H104.713V41.888V40.9962L104.155 41.4692C103.441 42.0663 103.053 42.2912 102.27 42.5704C100.975 43.0279 99.6181 43.1287 98.3541 42.8573V42.8573ZM101.565 41.3451C102.565 41.0815 103.682 40.3215 104.341 39.4608L104.713 38.9722V36.0022V33.0321L104.496 32.7297C104.069 32.1403 103.162 31.3881 102.511 31.0702C101.642 30.6592 101.099 30.5273 100.06 30.4731C98.959 30.4265 98.3774 30.5428 97.3848 31.0236C96.6869 31.3648 96.0355 31.9232 95.5159 32.6211C94.5078 33.9859 94.2286 36.1805 94.8335 38.0339C95.3143 39.4995 96.6869 40.9031 98.0672 41.3219C99.0365 41.6088 100.525 41.6243 101.565 41.3451V41.3451Z" fill="#4E5F6E"/>
<path d="M16 35.9948V29.2094H16.7755H17.5509V30.1788C17.5509 30.7138 17.5664 31.1481 17.5897 31.1481C17.613 31.1481 17.8611 30.9077 18.1403 30.6053C18.5668 30.1555 18.7839 30.0004 19.4353 29.6825C20.4512 29.1862 21.436 29.0156 22.2736 29.1784L22.5139 29.2249V30.0392C22.5139 30.7836 22.4984 30.8534 22.3821 30.7991C22.0874 30.6906 21.2732 30.6673 20.7381 30.7604C19.5051 30.9697 18.3497 31.8228 17.7913 32.9394L17.5509 33.4202V38.1041V42.7802H16.7755H16V35.9948V35.9948Z" fill="#4E5F6E"/>
<path d="M69.9881 37.8406L70.0114 32.8931L70.2207 32.2727C70.6628 30.9699 71.446 30.0316 72.5316 29.5043C74.0593 28.7676 76.2539 28.8451 77.6032 29.6904C78.0685 29.9773 78.6579 30.5279 78.9448 30.9312C79.0534 31.094 79.1697 31.2258 79.2007 31.2258C79.2317 31.2258 79.2937 31.1405 79.3403 31.032C79.6117 30.4426 80.7206 29.5818 81.6046 29.2872C82.9385 28.8374 84.7531 28.9382 85.8465 29.5276C86.8158 30.0471 87.3431 30.5822 87.8007 31.5128C88.3202 32.5519 88.3047 32.389 88.3357 37.8406L88.359 42.7803H87.6145H86.8778V38.3834C86.8778 35.7003 86.8468 33.7849 86.7925 33.4747C86.6917 32.8311 86.1877 31.7764 85.7999 31.3887C85.6293 31.2181 85.2261 30.9544 84.8926 30.7916C84.3033 30.4969 84.2723 30.4891 83.427 30.4891C82.605 30.4891 82.5507 30.5047 81.9846 30.7761C81.0386 31.2413 80.3794 32.0944 80.1235 33.2033C80.0615 33.4669 80.0227 35.0954 79.9994 38.1896L79.9684 42.7803H79.1619H78.3554L78.3244 38.112C78.3011 34.0873 78.2779 33.3816 78.1693 33.0172C77.8514 31.947 77.2155 31.1793 76.2927 30.745C75.8972 30.5667 75.6413 30.5047 75.145 30.4736C73.4312 30.3651 72.1284 31.3266 71.6243 33.0637C71.5158 33.4592 71.4925 34.1106 71.4615 38.1508L71.4305 42.7803H70.7015H69.9648L69.9881 37.8406V37.8406Z" fill="#4E5F6E"/>
<path d="M111.383 35.9949V29.2018L112.143 29.225L112.895 29.2483L112.918 30.2099L112.942 31.1714L113.5 30.5976C113.942 30.1401 114.198 29.954 114.741 29.6903C115.508 29.3103 116.222 29.132 116.966 29.132C117.85 29.132 117.819 29.1009 117.819 30.0237V30.8225L117.532 30.7527C116.811 30.5898 115.702 30.7527 114.896 31.1482C114.322 31.4351 113.632 32.102 113.244 32.7456L112.973 33.1954L112.934 37.9723L112.895 42.7415L112.143 42.7647L111.383 42.788V35.9949V35.9949Z" fill="#4E5F6E"/>
<path d="M72.1426 50.5738C72.1426 50.5505 72.3907 50.2093 72.6854 49.806C72.9878 49.4106 73.2282 49.0461 73.2282 48.9918C73.2282 48.9453 73.0034 48.6041 72.7242 48.2318C72.445 47.8674 72.2201 47.5339 72.2201 47.4951C72.2201 47.4641 72.3442 47.4331 72.4915 47.4331C72.7319 47.4331 72.8017 47.4874 73.1972 48.0147L73.6392 48.5963L74.058 48.0147C74.438 47.4874 74.5 47.4331 74.7482 47.4331C74.8955 47.4331 75.0118 47.4719 75.0118 47.5107C75.0118 47.5572 74.7869 47.8906 74.5078 48.2629C74.2286 48.6273 74.0037 48.953 74.0037 48.984C74.0037 49.0151 74.1821 49.2787 74.407 49.5734C74.6241 49.8681 74.8955 50.2248 74.9963 50.3644L75.1824 50.6125H74.8645C74.5543 50.6125 74.531 50.5893 74.089 49.9922L73.6237 49.3718L73.174 49.9922C72.7474 50.5815 72.7087 50.6125 72.4373 50.6125C72.2744 50.6125 72.1426 50.597 72.1426 50.5738V50.5738Z" fill="#4E5F6E"/>
<path d="M120.501 42.6876C120.532 42.6334 120.803 42.2766 121.113 41.8889C121.416 41.5089 121.897 40.8963 122.183 40.5318C122.463 40.1674 123.036 39.4384 123.463 38.9033C124.176 37.996 125.355 36.4839 125.681 36.0651C125.844 35.848 125.913 35.9721 124.991 34.7933C124.649 34.3513 124.161 33.7232 123.905 33.3897C123.649 33.0563 123.106 32.3584 122.703 31.8388C121.175 29.8691 120.989 29.6287 120.834 29.4271L120.679 29.21H121.61H122.54L122.757 29.5124C122.874 29.683 123.587 30.5903 124.331 31.5441C125.076 32.4902 125.906 33.5603 126.177 33.9093C126.449 34.266 126.697 34.5762 126.728 34.5917C126.79 34.6305 127.146 34.1885 128.48 32.4592C128.736 32.1257 129.256 31.4588 129.636 30.978C130.016 30.4972 130.481 29.9001 130.675 29.6597L131.008 29.21H131.939H132.869L132.497 29.683C132.296 29.9467 131.916 30.4352 131.66 30.7687C131.404 31.0944 130.861 31.7923 130.458 32.3196C130.054 32.8392 129.581 33.444 129.411 33.6689C129.24 33.8938 128.821 34.4366 128.48 34.8709C128.139 35.3052 127.829 35.7084 127.79 35.7704C127.705 35.8712 128.193 36.5304 130.535 39.4849C130.9 39.9425 131.404 40.5939 131.66 40.9196C131.916 41.253 132.342 41.8036 132.614 42.1526L133.102 42.7807H132.187H131.272L130.977 42.4162C130.822 42.2068 130.256 41.4857 129.713 40.8032C129.178 40.1208 128.317 39.0197 127.806 38.3605C127.294 37.7014 126.828 37.1508 126.782 37.1353C126.728 37.1198 126.433 37.4377 126.131 37.8332C125.828 38.2287 125.309 38.8956 124.975 39.3143C124.269 40.2061 123.579 41.0902 122.819 42.075L122.276 42.7807H121.361C120.648 42.7807 120.454 42.7574 120.501 42.6876Z" fill="#4E5F6E"/>
</svg>
