<svg width="150" height="80" viewBox="0 0 150 80" fill="none" xmlns="http://www.w3.org/2000/svg">
<rect width="150" height="80" fill="white"/>
<path fill-rule="evenodd" clip-rule="evenodd" d="M61.1716 35.4744C56.6191 35.4744 52.8976 38.9619 52.8976 43.2317C52.8976 47.4904 56.6191 50.978 61.1716 50.978C65.7262 50.978 69.437 47.4904 69.437 43.2317C69.437 38.9619 65.7262 35.4744 61.1716 35.4744ZM61.1716 45.2916C60.1728 45.2916 59.3635 44.3707 59.3635 43.2317C59.3635 42.1014 60.1728 41.1717 61.1716 41.1717C62.1725 41.1717 62.9839 42.1014 62.9839 43.2317C62.9839 44.3707 62.1746 45.2916 61.1716 45.2916ZM90.9574 35.5096C86.4048 35.5096 82.681 38.9862 82.681 43.2559C82.681 47.5256 86.4026 51 90.9574 51C95.5117 51 99.2333 47.5256 99.2333 43.2559C99.2333 38.9862 95.5117 35.5096 90.9574 35.5096ZM90.9574 45.3137C89.9562 45.3137 89.1473 44.395 89.1473 43.2537C89.1473 42.1257 89.9562 41.2048 90.9574 41.2048C91.9559 41.2048 92.7675 42.1257 92.7675 43.2537C92.7675 44.395 91.9579 45.3137 90.9574 45.3137ZM77.8682 35.4612C79.2995 35.4612 80.6577 35.8776 81.805 36.5892V42.2975C81.1528 41.6652 79.9948 41.2268 79.3641 41.2268C78.4429 41.2268 77.0373 42.1477 77.0373 43.289C77.0373 44.4148 78.4429 45.3357 79.3641 45.3357C79.9948 45.3357 81.1528 44.9105 81.805 44.265V49.85C80.6577 50.5528 79.2995 50.967 77.8682 50.967C73.6644 50.967 70.2356 47.4772 70.2356 43.2206C70.2356 38.951 73.6644 35.4612 77.8682 35.4612ZM123.711 39.4908V50.6651H117.301V42.335C117.391 40.61 115.174 40.7355 115.187 42.335V50.6651H108.676V42.335C108.575 41.0352 107.215 40.8721 106.675 42.0001V50.61H100.04V36.2785H106.675V38.1556C109.195 34.4147 113.22 35.3708 114.714 38.4421C117.525 34.6085 122.034 35.1615 123.339 38.4421L123.711 39.4908ZM52.4025 35.7123V42.6765C51.4813 42.0883 48.4786 41.0528 47.6585 44.32V50.6167H40.9794V36.2433H47.4992V38.268C48.8832 36.4504 50.941 35.6462 52.4025 35.7123ZM23 49.5261H30.2193V50.5969H23V49.5261ZM23 47.649H30.2193V48.6955H23V47.649ZM23 45.7521H30.2193V46.8118H23V45.7521ZM30.1181 36.9813H23V35.8533H30.1181V36.9813ZM30.1181 38.9047H23V37.7767H30.1181V38.9047ZM23 43.7495H36.2892C35.2561 44.7056 30.3872 44.8532 29.8922 44.8091H23V43.7495ZM36.2892 31.0659H23V30.0084H29.8922C30.3549 29.9621 34.5027 30.0899 35.975 30.8478C36.0654 30.905 36.1429 30.9513 36.2333 31.0086C36.257 31.0328 36.2677 31.0438 36.2892 31.0659ZM38.4374 33.0333L23 33.0465V31.9758L37.4257 31.9405C37.796 32.2754 38.1339 32.6433 38.4374 33.0333ZM39.5394 35.0249H23V33.8969H39.0099C39.2252 34.2538 39.3931 34.635 39.5394 35.0249ZM32.6473 35.8533H39.787C39.8752 36.2213 39.9333 36.5892 39.9548 36.9813H33.5126C33.4222 36.6245 33.3554 36.1287 32.6473 35.8533ZM33.5126 37.7767L39.9656 37.7525C39.9548 38.1336 39.8989 38.5125 39.8192 38.8804L32.7033 38.9025C33.0971 38.7527 33.4803 38.4442 33.5126 37.7767ZM23 39.9291H39.5179C39.3716 40.3213 39.1908 40.7003 38.9776 41.0572H23V39.9291ZM23 41.8261L38.4481 41.8393C38.1446 42.2292 37.8175 42.5884 37.4472 42.9321L23 42.8968V41.8261ZM127 37.1554C127 37.2854 126.981 37.4044 126.934 37.5233C126.883 37.6335 126.817 37.7326 126.737 37.8229C126.649 37.9044 126.552 37.975 126.444 38.0234C126.326 38.0653 126.21 38.0939 126.083 38.0939V37.9044C126.19 37.9044 126.288 37.8846 126.376 37.8428C126.464 37.8031 126.531 37.7525 126.6 37.6841C126.658 37.6247 126.705 37.5432 126.735 37.4528C126.774 37.3647 126.785 37.2633 126.785 37.1642C126.785 37.0541 126.774 36.9527 126.735 36.8536C126.697 36.7633 126.647 36.6839 126.589 36.6134C126.531 36.5517 126.453 36.5033 126.365 36.4636C126.277 36.4328 126.188 36.4129 126.081 36.4129V36.2235C126.219 36.2235 126.346 36.2455 126.453 36.294C126.57 36.3446 126.658 36.4041 126.746 36.4834C126.824 36.5628 126.883 36.6641 126.931 36.7852C126.981 36.8976 127 37.0254 127 37.1554ZM126.081 37.2766C126.1 37.2854 126.111 37.2854 126.12 37.3052C126.15 37.325 126.169 37.3647 126.188 37.4242L126.238 37.5828C126.238 37.6026 126.249 37.6137 126.249 37.6247C126.258 37.6247 126.268 37.6335 126.279 37.6335C126.288 37.6445 126.298 37.6445 126.317 37.6445H126.387H126.456C126.473 37.6445 126.483 37.6445 126.494 37.6335C126.505 37.6335 126.505 37.6335 126.514 37.6247V37.6026C126.514 37.5938 126.503 37.574 126.494 37.5343L126.447 37.3845C126.417 37.3229 126.387 37.2766 126.359 37.2457C126.329 37.2149 126.29 37.195 126.251 37.1841C126.32 37.1642 126.378 37.1333 126.417 37.0937C126.456 37.0541 126.473 36.9945 126.473 36.913C126.473 36.8646 126.464 36.8227 126.456 36.7831C126.436 36.7412 126.406 36.7125 126.378 36.6927C126.339 36.6707 126.298 36.6531 126.251 36.6421C126.202 36.6333 126.154 36.6245 126.083 36.6245V36.8139C126.102 36.8139 126.122 36.8139 126.132 36.8227C126.161 36.8227 126.173 36.8337 126.19 36.8536C126.2 36.8646 126.21 36.8734 126.221 36.8954V36.9439C126.221 36.9836 126.21 37.0144 126.182 37.043C126.161 37.0628 126.132 37.0739 126.083 37.0827V37.2766H126.081ZM126.081 38.0939C125.946 38.0939 125.818 38.0741 125.711 38.0234C125.592 37.975 125.506 37.9155 125.418 37.8229C125.341 37.7437 125.28 37.6445 125.233 37.5343C125.183 37.4242 125.164 37.2942 125.164 37.1554C125.164 37.0254 125.183 36.9042 125.233 36.7941C125.28 36.6729 125.349 36.5737 125.429 36.4944C125.515 36.4129 125.614 36.3446 125.722 36.294C125.84 36.2455 125.956 36.2235 126.083 36.2235V36.4129C125.975 36.4129 125.878 36.4328 125.801 36.4724C125.713 36.5121 125.635 36.5628 125.577 36.631C125.51 36.6927 125.461 36.7721 125.431 36.8624C125.392 36.9505 125.381 37.0408 125.381 37.1422C125.381 37.2612 125.392 37.3625 125.431 37.4506C125.47 37.552 125.517 37.6313 125.577 37.6908C125.635 37.7612 125.715 37.8097 125.801 37.8516C125.89 37.8825 125.978 37.9023 126.083 37.9023V38.0939H126.081ZM126.081 36.6266H125.818C125.78 36.6266 125.749 36.6354 125.741 36.6553C125.722 36.6751 125.713 36.706 125.713 36.7346V37.6049C125.713 37.6159 125.722 37.6357 125.732 37.6357C125.751 37.6467 125.782 37.6467 125.831 37.6467C125.881 37.6467 125.911 37.6467 125.928 37.6357C125.939 37.6357 125.947 37.6159 125.947 37.6049V37.2656H126.005C126.036 37.2656 126.064 37.2656 126.083 37.2766V37.0849H126.044H125.947V36.8161H126.055H126.085V36.6266H126.081Z" fill="#4E5F6E"/>
</svg>
