<svg width="150" height="80" viewBox="0 0 150 80" fill="none" xmlns="http://www.w3.org/2000/svg">
<rect width="150" height="80" fill="white"/>
<path d="M62.696 38.024C61.9709 38.0118 61.2521 38.1609 60.5916 38.4603C59.931 38.7598 59.3452 39.2022 58.8765 39.7556V31.5715L56.8843 31.905V43.4332C56.8843 46.7788 59.2562 49.0544 62.4578 49.0544C63.1999 49.0781 63.9391 48.9519 64.6313 48.6831C65.3233 48.4143 65.9541 48.0087 66.4855 47.4903C67.0171 46.9719 67.4386 46.3517 67.7246 45.6666C68.0107 44.9814 68.1556 44.2457 68.1506 43.5032C68.1629 42.7824 68.0305 42.0664 67.7611 41.3976C67.4916 40.7289 67.0907 40.121 66.5821 39.6101C66.0735 39.0991 65.4674 38.6954 64.7999 38.423C64.1323 38.1506 63.417 38.0148 62.696 38.024ZM62.4826 47.2514C62.0001 47.258 61.5211 47.167 61.0746 46.984C60.628 46.801 60.2231 46.5295 59.8841 46.186C59.545 45.8426 59.2789 45.4341 59.1016 44.9852C58.9244 44.5363 58.8397 44.0562 58.8527 43.5737C58.8379 43.0835 58.9223 42.5953 59.1011 42.1385C59.2797 41.6818 59.5489 41.2658 59.8925 40.9158C60.236 40.5657 60.6467 40.2888 61.1001 40.1015C61.5533 39.9142 62.0399 39.8206 62.5303 39.8261C63.5054 39.8466 64.4331 40.2501 65.1132 40.9491C65.7933 41.6481 66.171 42.5867 66.1647 43.5619C66.1585 44.5372 65.7688 45.4708 65.0798 46.1611C64.3908 46.8514 63.4579 47.2428 62.4826 47.2509V47.2514Z" fill="#4E5F6E"/>
<path d="M77.2581 44.2389C77.2581 46.0663 76.1196 47.2049 74.5304 47.2049C73.0598 47.2049 72.0399 46.2558 72.0399 44.4285V38.0956L70.0463 38.429V44.6419C70.0463 47.4183 71.7078 49.0308 74.1031 49.0308C74.718 49.0455 75.3286 48.9232 75.8906 48.6731C76.4526 48.4228 76.9519 48.0509 77.3524 47.584V48.8173H79.2508V38.0956L77.2577 38.429L77.2581 44.2389Z" fill="#4E5F6E"/>
<path d="M87.5535 38.024C86.8284 38.0117 86.1096 38.1607 85.449 38.4602C84.7884 38.7596 84.2027 39.2022 83.734 39.7556V31.5715L81.7417 31.905V43.4332C81.7417 46.7788 84.1136 49.0544 87.3154 49.0544C88.0574 49.0781 88.7966 48.9519 89.4887 48.6831C90.1807 48.4143 90.8115 48.0087 91.3431 47.4903C91.8746 46.9719 92.296 46.3517 92.5822 45.6666C92.8682 44.9814 93.013 44.2457 93.008 43.5032C93.0204 42.7824 92.8879 42.0664 92.6185 41.3976C92.349 40.7289 91.9482 40.121 91.4395 39.6101C90.9309 39.0991 90.3248 38.6954 89.6573 38.423C88.9899 38.1506 88.2745 38.0148 87.5535 38.024ZM87.3401 47.2514C86.8575 47.258 86.3786 47.167 85.932 46.984C85.4854 46.801 85.0805 46.5295 84.7415 46.186C84.4024 45.8426 84.1363 45.4341 83.9591 44.9852C83.7819 44.5363 83.6972 44.0562 83.7101 43.5737C83.6953 43.0835 83.7798 42.5953 83.9585 42.1385C84.1371 41.6818 84.4064 41.2658 84.7499 40.9158C85.0934 40.5657 85.5041 40.2888 85.9575 40.1015C86.4109 39.9142 86.8973 39.8206 87.3877 39.8261C88.3628 39.8466 89.2906 40.2501 89.9707 40.9491C90.6507 41.6481 91.0284 42.5867 91.0222 43.5619C91.0159 44.5372 90.6262 45.4708 89.9372 46.1611C89.2483 46.8514 88.3153 47.2428 87.3401 47.2509V47.2514Z" fill="#4E5F6E"/>
<path d="M100.457 38.024C99.732 38.0118 99.0133 38.1609 98.353 38.4603C97.6925 38.7598 97.107 39.2023 96.6384 39.7556V31.5715L94.6453 31.905V43.4332C94.6453 46.7788 97.018 49.0544 100.219 49.0544C100.961 49.0781 101.7 48.9519 102.392 48.6831C103.084 48.4143 103.715 48.0087 104.247 47.4904C104.778 46.972 105.2 46.3517 105.486 45.6667C105.772 44.9815 105.917 44.2457 105.912 43.5032C105.925 42.7823 105.792 42.0663 105.523 41.3975C105.253 40.7288 104.852 40.1209 104.343 39.61C103.835 39.0991 103.228 38.6954 102.561 38.423C101.893 38.1506 101.178 38.0149 100.457 38.024ZM100.244 47.2514C99.761 47.2579 99.2823 47.1668 98.8357 46.9837C98.3893 46.8005 97.9845 46.5292 97.6456 46.1857C97.3067 45.8422 97.0406 45.4337 96.8634 44.9849C96.6863 44.5362 96.6016 44.0561 96.6145 43.5737C96.5996 43.0836 96.684 42.5955 96.8625 42.1387C97.041 41.682 97.3102 41.2661 97.6535 40.916C97.9969 40.566 98.4076 40.289 98.8607 40.1016C99.314 39.9144 99.8003 39.8206 100.291 39.8261C101.266 39.8466 102.194 40.2501 102.874 40.9491C103.554 41.6481 103.931 42.5867 103.925 43.5619C103.919 44.5372 103.529 45.4708 102.84 46.1611C102.151 46.8514 101.218 47.2428 100.243 47.2509L100.244 47.2514Z" fill="#4E5F6E"/>
<path d="M109.376 45.8761C109.068 45.8852 108.77 45.9849 108.519 46.1625C108.267 46.3402 108.074 46.5879 107.963 46.8748C107.851 47.1618 107.827 47.4752 107.893 47.7759C107.958 48.0766 108.111 48.3513 108.332 48.5657C108.553 48.78 108.832 48.9246 109.135 48.9812C109.437 49.0378 109.75 49.0041 110.033 48.8842C110.317 48.7643 110.558 48.5634 110.729 48.3068C110.899 48.0502 110.989 47.7492 110.989 47.4414C110.989 47.2319 110.946 47.0246 110.865 46.8317C110.783 46.6389 110.663 46.4644 110.513 46.3185C110.362 46.1726 110.184 46.0583 109.989 45.9824C109.794 45.9063 109.586 45.8702 109.376 45.8761Z" fill="#4E5F6E"/>
<path d="M114.047 48.7932H114.545V38.4725L114.047 38.686V48.7932Z" fill="#4E5F6E"/>
<path d="M114.308 34.7975C114.623 34.7975 114.878 34.5427 114.878 34.2283C114.878 33.9139 114.623 33.659 114.308 33.659C113.994 33.659 113.739 33.9139 113.739 34.2283C113.739 34.5427 113.994 34.7975 114.308 34.7975Z" fill="#4E5F6E"/>
<path d="M122.374 38.4036C121.328 38.404 120.306 38.7145 119.437 39.2959C118.568 39.8771 117.89 40.7031 117.49 41.6694C117.09 42.6356 116.986 43.6987 117.19 44.7243C117.395 45.7499 117.899 46.6919 118.638 47.4311C119.378 48.1704 120.32 48.6738 121.346 48.8776C122.371 49.0814 123.434 48.9765 124.4 48.5763C125.366 48.176 126.192 47.4982 126.773 46.6288C127.354 45.7592 127.664 44.737 127.664 43.6912C127.671 42.9948 127.539 42.3038 127.276 41.659C127.012 41.0141 126.623 40.4283 126.13 39.9359C125.637 39.4433 125.051 39.0541 124.406 38.7911C123.761 38.528 123.07 38.3962 122.374 38.4036ZM122.374 48.5089C121.421 48.5135 120.487 48.235 119.692 47.7087C118.897 47.1823 118.276 46.4318 117.908 45.5523C117.54 44.6727 117.441 43.7037 117.625 42.768C117.808 41.8323 118.265 40.9722 118.937 40.2964C119.61 39.6205 120.468 39.1596 121.402 38.9718C122.337 38.7841 123.307 38.8781 124.188 39.2419C125.069 39.6057 125.823 40.2229 126.353 41.0153C126.883 41.8078 127.166 42.7397 127.166 43.6931C127.174 44.3259 127.056 44.9538 126.818 45.5402C126.581 46.1265 126.228 46.6596 125.782 47.1081C125.336 47.5565 124.804 47.9115 124.219 48.1519C123.634 48.3925 123.007 48.5138 122.374 48.5089Z" fill="#4E5F6E"/>
<path d="M51.1193 37.6085L46.4633 29.543C46.0167 28.7697 45.3745 28.1278 44.6012 27.6813C43.8279 27.235 42.9507 27.0001 42.0578 27.0001H33.6912V43.365C34.2421 41.8582 35.2507 40.5615 36.5754 39.6564C37.9001 38.7515 39.4749 38.2835 41.0788 38.3183C43.1618 38.3088 45.1686 39.1016 46.6827 40.532C48.1968 41.9626 49.1022 43.921 49.211 46.0012L48.4055 47.3966C48.4441 47.0908 48.4645 46.783 48.4664 46.4747C48.4578 45.1434 48.0895 43.8393 47.4007 42.7001C46.7118 41.5609 45.7279 40.629 44.553 40.0029C43.3781 39.3768 42.0559 39.0798 40.726 39.1433C39.3963 39.2068 38.1084 39.6285 36.9985 40.3636C35.8887 41.0988 34.998 42.1203 34.4208 43.32C33.8437 44.5196 33.6014 45.853 33.7196 47.1791C33.8379 48.5051 34.3121 49.7746 35.0925 50.8532C35.8728 51.9319 36.93 52.7796 38.1525 53.3069H42.0587C42.9517 53.3069 43.8289 53.072 44.6021 52.6257C45.3755 52.1793 46.0177 51.5373 46.4643 50.7641L51.1203 42.6986C51.5675 41.9249 51.8028 41.047 51.8026 40.1534C51.8025 39.2598 51.5668 38.382 51.1193 37.6085Z" fill="#4E5F6E"/>
<path d="M32.9235 46.4742V27.2601L33.5318 27H32.7439C31.851 27 30.9738 27.2349 30.2005 27.6812C29.4272 28.1277 28.785 28.7696 28.3384 29.5429L23.6814 37.6084C23.235 38.3819 23 39.2594 23 40.1524C23 41.0456 23.235 41.923 23.6814 42.6966L28.3384 50.7621C28.785 51.5352 29.4272 52.1773 30.2005 52.6237C30.9738 53.07 31.851 53.3049 32.7439 53.3049H36.6059C35.4704 52.5645 34.5386 51.5514 33.8954 50.3582C33.2521 49.1651 32.918 47.8297 32.9235 46.4742Z" fill="#4E5F6E"/>
</svg>
