<svg width="150" height="80" viewBox="0 0 150 80" fill="none" xmlns="http://www.w3.org/2000/svg">
<rect width="150" height="80" fill="white"/>
<path d="M51.7676 34.92V40.956C51.7676 43.452 49.7396 45.48 47.2436 45.48H36.6836V42.468H47.2436C48.0716 42.468 48.7556 41.796 48.7556 40.956V34.92C48.7556 34.092 48.0836 33.408 47.2436 33.408H39.7076V39.444H36.6956V30.396H47.2556C49.7516 30.396 51.7676 32.424 51.7676 34.92Z" fill="#4E5F6E"/>
<path d="M57.804 30.396H54.792V45.48H57.804V30.396Z" fill="#4E5F6E"/>
<path d="M75.9001 30.396V33.408H69.8761V45.48H66.8521V33.408H60.8281V30.396H75.9001Z" fill="#4E5F6E"/>
<path d="M124.164 36.432V39.444H118.128V45.48H115.116V30.396H118.128V36.432H124.164ZM127.188 45.48H130.2V30.396H127.188V45.48Z" fill="#4E5F6E"/>
<path d="M112.104 42.456V45.48H101.544C99.0475 45.48 97.0195 43.452 97.0195 40.956V36.432H100.032V40.956C100.032 41.784 100.704 42.468 101.544 42.468H112.104V42.456ZM112.104 33.408V30.396H101.544C99.5755 30.396 97.8955 31.656 97.2715 33.408H112.104V33.408Z" fill="#4E5F6E"/>
<path d="M81.9358 39.444V40.956C81.9358 41.784 82.6078 42.468 83.4478 42.468H94.0078V45.48H83.4478C80.9518 45.48 78.9238 43.452 78.9238 40.956V36.432H94.0078V39.444H81.9358V39.444ZM94.0078 33.408V30.396H83.4478C81.4798 30.396 79.7998 31.656 79.1758 33.408H94.0078V33.408Z" fill="#4E5F6E"/>
<path d="M24.7675 40.284L27.3475 33.408L29.0755 38.016C29.8795 37.704 30.7195 37.428 31.5955 37.224L28.8595 30.396H25.8235L20.5195 43.656C21.1075 43.092 21.8875 42.408 22.8115 41.676C23.3875 41.232 24.0355 40.764 24.7675 40.284Z" fill="#4E5F6E"/>
<path d="M19.7998 45.4798C19.7998 45.4798 25.0798 39.4438 31.8598 37.9438L33.6718 42.4678C23.9518 42.4558 19.7998 45.4798 19.7998 45.4798Z" fill="#4E5F6E"/>
<path d="M20.9995 49.1522C20.9875 49.0562 20.9035 48.9002 20.6395 48.9002C20.4595 48.9002 20.3515 49.0082 20.3515 49.1162C20.3515 49.2122 20.4115 49.2842 20.5675 49.3082L20.8555 49.3562C21.2635 49.4282 21.4795 49.6802 21.4795 49.9682C21.4795 50.2802 21.2035 50.6042 20.6875 50.6042C20.0995 50.6042 19.8475 50.2442 19.8115 49.9562L20.2435 49.8602C20.2675 50.0402 20.3995 50.2082 20.6875 50.2082C20.8795 50.2082 20.9875 50.1242 20.9875 49.9922C20.9875 49.8842 20.9035 49.8122 20.7595 49.7882L20.4715 49.7402C20.1115 49.6802 19.8835 49.4402 19.8835 49.1402C19.8835 48.7562 20.2435 48.4922 20.6515 48.4922C21.1915 48.4922 21.3835 48.7922 21.4315 49.0322L20.9995 49.1522Z" fill="#4E5F6E"/>
<path d="M24.9956 48.54H24.5156V50.568H24.9956V48.54Z" fill="#4E5F6E"/>
<path d="M30.1318 50.568V49.224L29.5678 50.568H29.1838L28.6198 49.236V50.568H28.1758V48.54H28.7998L29.3878 49.908L29.9398 48.54H30.5998V50.568H30.1318Z" fill="#4E5F6E"/>
<path d="M34.2603 49.836V50.568H33.7803V48.54H34.5843C35.0163 48.54 35.3163 48.816 35.3163 49.188C35.3163 49.572 35.0163 49.836 34.5843 49.836H34.2603ZM34.5363 49.44C34.7163 49.44 34.8363 49.344 34.8363 49.188C34.8363 49.02 34.7163 48.924 34.5363 48.924H34.2603V49.44H34.5363V49.44Z" fill="#4E5F6E"/>
<path d="M38.3516 50.568V48.54H39.7076V48.96H38.8196V49.344H39.6236V49.74H38.8196V50.136H39.7076V50.568H38.3516Z" fill="#4E5F6E"/>
<path d="M42.8281 50.568V48.54H43.3081V50.136H44.2321V50.568H42.8281Z" fill="#4E5F6E"/>
<path d="M49.6318 48.54H50.1238L49.5478 50.568H49.0558L48.5998 49.224L48.1318 50.568H47.6398L47.0518 48.54H47.5558L47.9158 49.836L48.3598 48.54H48.8518L49.2958 49.836L49.6318 48.54Z" fill="#4E5F6E"/>
<path d="M53.1113 50.568V48.54H54.4673V48.96H53.5793V49.344H54.3833V49.74H53.5793V50.136H54.4673V50.568H53.1113Z" fill="#4E5F6E"/>
<path d="M59.1721 50.5679L59.1361 50.3639C59.0401 50.4959 58.8361 50.6159 58.5361 50.6159C57.9361 50.6159 57.4561 50.1959 57.4561 49.5599C57.4561 48.9239 57.9721 48.5039 58.5721 48.5039C59.1841 48.5039 59.4721 48.8519 59.5681 49.1279L59.1121 49.2839C59.0761 49.1639 58.9321 48.9239 58.5841 48.9239C58.2961 48.9239 57.9481 49.1039 57.9481 49.5599C57.9481 49.9799 58.2481 50.2079 58.5961 50.2079C58.9441 50.2079 59.1001 49.9919 59.1241 49.8719H58.4761V49.4879H59.5681V50.5679H59.1721Z" fill="#4E5F6E"/>
<path d="M68.4841 50.1478H67.6561L67.5001 50.5558H66.9961L67.8001 48.5278H68.3521L69.1441 50.5558H68.6401L68.4841 50.1478ZM67.8121 49.7398H68.3281L68.0761 49.0438L67.8121 49.7398Z" fill="#4E5F6E"/>
<path d="M72.1436 50.568V48.54H72.6116V50.136H73.5356V50.568H72.1436Z" fill="#4E5F6E"/>
<path d="M77.5196 48.972V50.568H77.0516V48.972H76.3916V48.54H78.1916V48.972H77.5196Z" fill="#4E5F6E"/>
<path d="M81.6714 48.54H81.1914V50.568H81.6714V48.54Z" fill="#4E5F6E"/>
<path d="M84.6836 49.7998L85.1396 49.7278V49.9078C85.1396 50.0878 85.2596 50.1718 85.4036 50.1718C85.5596 50.1718 85.6556 50.0638 85.6556 49.9078V48.5278H86.1356V49.9198C86.1356 50.2918 85.8356 50.5918 85.4156 50.5918C84.9956 50.5918 84.6956 50.3278 84.6956 49.9198V49.7998H84.6836Z" fill="#4E5F6E"/>
<path d="M89.292 50.568V48.54H90.072C90.72 48.54 91.152 48.924 91.152 49.56C91.152 50.196 90.72 50.568 90.072 50.568H89.292ZM90.048 50.136C90.372 50.136 90.648 49.956 90.648 49.548C90.648 49.14 90.384 48.96 90.048 48.96H89.772V50.136H90.048Z" fill="#4E5F6E"/>
<path d="M100.068 48.54H100.584L99.8035 50.568H99.2995L98.5195 48.54H99.0475L99.5635 49.968L100.068 48.54Z" fill="#4E5F6E"/>
<path d="M104.843 50.1478H104.015L103.859 50.5558H103.355L104.159 48.5278H104.711L105.503 50.5558H104.999L104.843 50.1478ZM104.171 49.7398H104.687L104.435 49.0438L104.171 49.7398Z" fill="#4E5F6E"/>
<path d="M109.212 49.764L108.972 50.016V50.568H108.492V48.54H108.972V49.392L109.752 48.54H110.376L109.548 49.416L110.388 50.568H109.788L109.212 49.764Z" fill="#4E5F6E"/>
<path d="M115.752 48.54H116.244L115.656 50.568H115.164L114.708 49.224L114.252 50.568H113.748L113.16 48.54H113.676L114.024 49.836L114.468 48.54H114.96L115.404 49.836L115.752 48.54Z" fill="#4E5F6E"/>
<path d="M119.22 50.568V48.54H120.576V48.96H119.7V49.344H120.492V49.74H119.7V50.136H120.576V50.568H119.22Z" fill="#4E5F6E"/>
<path d="M124.343 49.812H124.175V50.568H123.695V48.54H124.547C124.967 48.54 125.243 48.816 125.243 49.176C125.243 49.452 125.087 49.656 124.823 49.752L125.255 50.568H124.727L124.343 49.812ZM124.451 49.416C124.643 49.416 124.751 49.308 124.751 49.176C124.751 49.02 124.643 48.936 124.451 48.936H124.175V49.428H124.451V49.416Z" fill="#4E5F6E"/>
<path d="M129.024 49.764L128.784 50.016V50.568H128.304V48.54H128.784V49.392L129.564 48.54H130.2L129.36 49.416L130.2 50.568H129.6L129.024 49.764Z" fill="#4E5F6E"/>
</svg>
